G04 #@! TF.FileFunction,Legend,Top*
%FSLAX46Y46*%
G04 Gerber Fmt 4.6, Leading zero omitted, Abs format (unit mm)*
G04 Created by KiCad (PCBNEW 4.0.7-e2-6376~61~ubuntu18.04.1) date Wed Aug 19 23:26:29 2020*
%MOMM*%
%LPD*%
G01*
G04 APERTURE LIST*
%ADD10C,0.100000*%
%ADD11C,0.300000*%
%ADD12C,0.120000*%
%ADD13C,0.200000*%
%ADD14C,0.127000*%
%ADD15C,0.150000*%
%ADD16C,0.406400*%
%ADD17C,0.015000*%
%ADD18C,0.254000*%
G04 APERTURE END LIST*
D10*
D11*
X147535716Y-110903571D02*
X147535716Y-109403571D01*
X148035716Y-110475000D01*
X148535716Y-109403571D01*
X148535716Y-110903571D01*
X149821430Y-110832143D02*
X149678573Y-110903571D01*
X149392859Y-110903571D01*
X149250002Y-110832143D01*
X149178573Y-110689286D01*
X149178573Y-110117857D01*
X149250002Y-109975000D01*
X149392859Y-109903571D01*
X149678573Y-109903571D01*
X149821430Y-109975000D01*
X149892859Y-110117857D01*
X149892859Y-110260714D01*
X149178573Y-110403571D01*
X150535716Y-110903571D02*
X150535716Y-109903571D01*
X150535716Y-110189286D02*
X150607144Y-110046429D01*
X150678573Y-109975000D01*
X150821430Y-109903571D01*
X150964287Y-109903571D01*
X152107144Y-110832143D02*
X151964287Y-110903571D01*
X151678573Y-110903571D01*
X151535715Y-110832143D01*
X151464287Y-110760714D01*
X151392858Y-110617857D01*
X151392858Y-110189286D01*
X151464287Y-110046429D01*
X151535715Y-109975000D01*
X151678573Y-109903571D01*
X151964287Y-109903571D01*
X152107144Y-109975000D01*
X153321429Y-110832143D02*
X153178572Y-110903571D01*
X152892858Y-110903571D01*
X152750001Y-110832143D01*
X152678572Y-110689286D01*
X152678572Y-110117857D01*
X152750001Y-109975000D01*
X152892858Y-109903571D01*
X153178572Y-109903571D01*
X153321429Y-109975000D01*
X153392858Y-110117857D01*
X153392858Y-110260714D01*
X152678572Y-110403571D01*
X154678572Y-110903571D02*
X154678572Y-109403571D01*
X154678572Y-110832143D02*
X154535715Y-110903571D01*
X154250001Y-110903571D01*
X154107143Y-110832143D01*
X154035715Y-110760714D01*
X153964286Y-110617857D01*
X153964286Y-110189286D01*
X154035715Y-110046429D01*
X154107143Y-109975000D01*
X154250001Y-109903571D01*
X154535715Y-109903571D01*
X154678572Y-109975000D01*
X155964286Y-110832143D02*
X155821429Y-110903571D01*
X155535715Y-110903571D01*
X155392858Y-110832143D01*
X155321429Y-110689286D01*
X155321429Y-110117857D01*
X155392858Y-109975000D01*
X155535715Y-109903571D01*
X155821429Y-109903571D01*
X155964286Y-109975000D01*
X156035715Y-110117857D01*
X156035715Y-110260714D01*
X155321429Y-110403571D01*
X156607143Y-110832143D02*
X156750000Y-110903571D01*
X157035715Y-110903571D01*
X157178572Y-110832143D01*
X157250000Y-110689286D01*
X157250000Y-110617857D01*
X157178572Y-110475000D01*
X157035715Y-110403571D01*
X156821429Y-110403571D01*
X156678572Y-110332143D01*
X156607143Y-110189286D01*
X156607143Y-110117857D01*
X156678572Y-109975000D01*
X156821429Y-109903571D01*
X157035715Y-109903571D01*
X157178572Y-109975000D01*
X159892858Y-110760714D02*
X159821429Y-110832143D01*
X159607143Y-110903571D01*
X159464286Y-110903571D01*
X159250001Y-110832143D01*
X159107143Y-110689286D01*
X159035715Y-110546429D01*
X158964286Y-110260714D01*
X158964286Y-110046429D01*
X159035715Y-109760714D01*
X159107143Y-109617857D01*
X159250001Y-109475000D01*
X159464286Y-109403571D01*
X159607143Y-109403571D01*
X159821429Y-109475000D01*
X159892858Y-109546429D01*
X160750001Y-110903571D02*
X160607143Y-110832143D01*
X160535715Y-110760714D01*
X160464286Y-110617857D01*
X160464286Y-110189286D01*
X160535715Y-110046429D01*
X160607143Y-109975000D01*
X160750001Y-109903571D01*
X160964286Y-109903571D01*
X161107143Y-109975000D01*
X161178572Y-110046429D01*
X161250001Y-110189286D01*
X161250001Y-110617857D01*
X161178572Y-110760714D01*
X161107143Y-110832143D01*
X160964286Y-110903571D01*
X160750001Y-110903571D01*
X161892858Y-109903571D02*
X161892858Y-110903571D01*
X161892858Y-110046429D02*
X161964286Y-109975000D01*
X162107144Y-109903571D01*
X162321429Y-109903571D01*
X162464286Y-109975000D01*
X162535715Y-110117857D01*
X162535715Y-110903571D01*
X163035715Y-109903571D02*
X163607144Y-109903571D01*
X163250001Y-109403571D02*
X163250001Y-110689286D01*
X163321429Y-110832143D01*
X163464287Y-110903571D01*
X163607144Y-110903571D01*
X164107144Y-110903571D02*
X164107144Y-109903571D01*
X164107144Y-110189286D02*
X164178572Y-110046429D01*
X164250001Y-109975000D01*
X164392858Y-109903571D01*
X164535715Y-109903571D01*
X165250001Y-110903571D02*
X165107143Y-110832143D01*
X165035715Y-110760714D01*
X164964286Y-110617857D01*
X164964286Y-110189286D01*
X165035715Y-110046429D01*
X165107143Y-109975000D01*
X165250001Y-109903571D01*
X165464286Y-109903571D01*
X165607143Y-109975000D01*
X165678572Y-110046429D01*
X165750001Y-110189286D01*
X165750001Y-110617857D01*
X165678572Y-110760714D01*
X165607143Y-110832143D01*
X165464286Y-110903571D01*
X165250001Y-110903571D01*
X166607144Y-110903571D02*
X166464286Y-110832143D01*
X166392858Y-110689286D01*
X166392858Y-109403571D01*
X167392858Y-110903571D02*
X167250000Y-110832143D01*
X167178572Y-110689286D01*
X167178572Y-109403571D01*
X168535714Y-110832143D02*
X168392857Y-110903571D01*
X168107143Y-110903571D01*
X167964286Y-110832143D01*
X167892857Y-110689286D01*
X167892857Y-110117857D01*
X167964286Y-109975000D01*
X168107143Y-109903571D01*
X168392857Y-109903571D01*
X168535714Y-109975000D01*
X168607143Y-110117857D01*
X168607143Y-110260714D01*
X167892857Y-110403571D01*
X169250000Y-110903571D02*
X169250000Y-109903571D01*
X169250000Y-110189286D02*
X169321428Y-110046429D01*
X169392857Y-109975000D01*
X169535714Y-109903571D01*
X169678571Y-109903571D01*
X146107143Y-112453571D02*
X146678572Y-112453571D01*
X146321429Y-113453571D02*
X146321429Y-112167857D01*
X146392857Y-112025000D01*
X146535715Y-111953571D01*
X146678572Y-111953571D01*
X147178572Y-113453571D02*
X147178572Y-112453571D01*
X147178572Y-112739286D02*
X147250000Y-112596429D01*
X147321429Y-112525000D01*
X147464286Y-112453571D01*
X147607143Y-112453571D01*
X148321429Y-113453571D02*
X148178571Y-113382143D01*
X148107143Y-113310714D01*
X148035714Y-113167857D01*
X148035714Y-112739286D01*
X148107143Y-112596429D01*
X148178571Y-112525000D01*
X148321429Y-112453571D01*
X148535714Y-112453571D01*
X148678571Y-112525000D01*
X148750000Y-112596429D01*
X148821429Y-112739286D01*
X148821429Y-113167857D01*
X148750000Y-113310714D01*
X148678571Y-113382143D01*
X148535714Y-113453571D01*
X148321429Y-113453571D01*
X149464286Y-113453571D02*
X149464286Y-112453571D01*
X149464286Y-112596429D02*
X149535714Y-112525000D01*
X149678572Y-112453571D01*
X149892857Y-112453571D01*
X150035714Y-112525000D01*
X150107143Y-112667857D01*
X150107143Y-113453571D01*
X150107143Y-112667857D02*
X150178572Y-112525000D01*
X150321429Y-112453571D01*
X150535714Y-112453571D01*
X150678572Y-112525000D01*
X150750000Y-112667857D01*
X150750000Y-113453571D01*
X152607143Y-113453571D02*
X152607143Y-111953571D01*
X153178571Y-111953571D01*
X153321429Y-112025000D01*
X153392857Y-112096429D01*
X153464286Y-112239286D01*
X153464286Y-112453571D01*
X153392857Y-112596429D01*
X153321429Y-112667857D01*
X153178571Y-112739286D01*
X152607143Y-112739286D01*
X154750000Y-113453571D02*
X154750000Y-112667857D01*
X154678571Y-112525000D01*
X154535714Y-112453571D01*
X154250000Y-112453571D01*
X154107143Y-112525000D01*
X154750000Y-113382143D02*
X154607143Y-113453571D01*
X154250000Y-113453571D01*
X154107143Y-113382143D01*
X154035714Y-113239286D01*
X154035714Y-113096429D01*
X154107143Y-112953571D01*
X154250000Y-112882143D01*
X154607143Y-112882143D01*
X154750000Y-112810714D01*
X155464286Y-112453571D02*
X155464286Y-113953571D01*
X155464286Y-112525000D02*
X155607143Y-112453571D01*
X155892857Y-112453571D01*
X156035714Y-112525000D01*
X156107143Y-112596429D01*
X156178572Y-112739286D01*
X156178572Y-113167857D01*
X156107143Y-113310714D01*
X156035714Y-113382143D01*
X155892857Y-113453571D01*
X155607143Y-113453571D01*
X155464286Y-113382143D01*
X157464286Y-113453571D02*
X157464286Y-112667857D01*
X157392857Y-112525000D01*
X157250000Y-112453571D01*
X156964286Y-112453571D01*
X156821429Y-112525000D01*
X157464286Y-113382143D02*
X157321429Y-113453571D01*
X156964286Y-113453571D01*
X156821429Y-113382143D01*
X156750000Y-113239286D01*
X156750000Y-113096429D01*
X156821429Y-112953571D01*
X156964286Y-112882143D01*
X157321429Y-112882143D01*
X157464286Y-112810714D01*
X159107143Y-112453571D02*
X159678572Y-112453571D01*
X159321429Y-113453571D02*
X159321429Y-112167857D01*
X159392857Y-112025000D01*
X159535715Y-111953571D01*
X159678572Y-111953571D01*
X160392858Y-113453571D02*
X160250000Y-113382143D01*
X160178572Y-113310714D01*
X160107143Y-113167857D01*
X160107143Y-112739286D01*
X160178572Y-112596429D01*
X160250000Y-112525000D01*
X160392858Y-112453571D01*
X160607143Y-112453571D01*
X160750000Y-112525000D01*
X160821429Y-112596429D01*
X160892858Y-112739286D01*
X160892858Y-113167857D01*
X160821429Y-113310714D01*
X160750000Y-113382143D01*
X160607143Y-113453571D01*
X160392858Y-113453571D01*
X161535715Y-113453571D02*
X161535715Y-112453571D01*
X161535715Y-112739286D02*
X161607143Y-112596429D01*
X161678572Y-112525000D01*
X161821429Y-112453571D01*
X161964286Y-112453571D01*
X163607143Y-113453571D02*
X163607143Y-111953571D01*
X164107143Y-113025000D01*
X164607143Y-111953571D01*
X164607143Y-113453571D01*
X165964286Y-113453571D02*
X165964286Y-112667857D01*
X165892857Y-112525000D01*
X165750000Y-112453571D01*
X165464286Y-112453571D01*
X165321429Y-112525000D01*
X165964286Y-113382143D02*
X165821429Y-113453571D01*
X165464286Y-113453571D01*
X165321429Y-113382143D01*
X165250000Y-113239286D01*
X165250000Y-113096429D01*
X165321429Y-112953571D01*
X165464286Y-112882143D01*
X165821429Y-112882143D01*
X165964286Y-112810714D01*
X166678572Y-113453571D02*
X166678572Y-112453571D01*
X166678572Y-112739286D02*
X166750000Y-112596429D01*
X166821429Y-112525000D01*
X166964286Y-112453571D01*
X167107143Y-112453571D01*
X167607143Y-113453571D02*
X167607143Y-111953571D01*
X167750000Y-112882143D02*
X168178571Y-113453571D01*
X168178571Y-112453571D02*
X167607143Y-113025000D01*
X169464286Y-112453571D02*
X169464286Y-113453571D01*
X168821429Y-112453571D02*
X168821429Y-113239286D01*
X168892857Y-113382143D01*
X169035715Y-113453571D01*
X169250000Y-113453571D01*
X169392857Y-113382143D01*
X169464286Y-113310714D01*
X170107143Y-113382143D02*
X170250000Y-113453571D01*
X170535715Y-113453571D01*
X170678572Y-113382143D01*
X170750000Y-113239286D01*
X170750000Y-113167857D01*
X170678572Y-113025000D01*
X170535715Y-112953571D01*
X170321429Y-112953571D01*
X170178572Y-112882143D01*
X170107143Y-112739286D01*
X170107143Y-112667857D01*
X170178572Y-112525000D01*
X170321429Y-112453571D01*
X170535715Y-112453571D01*
X170678572Y-112525000D01*
D12*
X111350000Y-84400000D02*
X110650000Y-84400000D01*
X110650000Y-83200000D02*
X111350000Y-83200000D01*
X127600000Y-86150000D02*
X127600000Y-86850000D01*
X126400000Y-86850000D02*
X126400000Y-86150000D01*
X131650000Y-80400000D02*
X132350000Y-80400000D01*
X132350000Y-81600000D02*
X131650000Y-81600000D01*
X131650000Y-69900000D02*
X132350000Y-69900000D01*
X132350000Y-71100000D02*
X131650000Y-71100000D01*
X114900000Y-65350000D02*
X114900000Y-64650000D01*
X116100000Y-64650000D02*
X116100000Y-65350000D01*
X131650000Y-67400000D02*
X132350000Y-67400000D01*
X132350000Y-68600000D02*
X131650000Y-68600000D01*
X127150000Y-96900000D02*
X127850000Y-96900000D01*
X127850000Y-98100000D02*
X127150000Y-98100000D01*
X145850000Y-87100000D02*
X145150000Y-87100000D01*
X145150000Y-85900000D02*
X145850000Y-85900000D01*
X118600000Y-64650000D02*
X118600000Y-65350000D01*
X117400000Y-65350000D02*
X117400000Y-64650000D01*
X110650000Y-81100000D02*
X111350000Y-81100000D01*
X111350000Y-82300000D02*
X110650000Y-82300000D01*
X105900000Y-85400000D02*
X106600000Y-85400000D01*
X106600000Y-86600000D02*
X105900000Y-86600000D01*
X106900000Y-68850000D02*
X106900000Y-68150000D01*
X108100000Y-68150000D02*
X108100000Y-68850000D01*
X106600000Y-82400000D02*
X106600000Y-83100000D01*
X105400000Y-83100000D02*
X105400000Y-82400000D01*
X97600000Y-68150000D02*
X97600000Y-68850000D01*
X96400000Y-68850000D02*
X96400000Y-68150000D01*
X101100000Y-68150000D02*
X101100000Y-68850000D01*
X99900000Y-68850000D02*
X99900000Y-68150000D01*
X99900000Y-83350000D02*
X99900000Y-82650000D01*
X101100000Y-82650000D02*
X101100000Y-83350000D01*
X82550000Y-81210000D02*
X85440000Y-81210000D01*
X91450000Y-81210000D02*
X88560000Y-81210000D01*
X92210000Y-70790000D02*
X88560000Y-70790000D01*
X81790000Y-70790000D02*
X85440000Y-70790000D01*
X92210000Y-70790000D02*
X92210000Y-80450000D01*
X92210000Y-80450000D02*
X91450000Y-81210000D01*
X82550000Y-81210000D02*
X81790000Y-80450000D01*
X81790000Y-80450000D02*
X81790000Y-70790000D01*
X153500000Y-92650000D02*
X152500000Y-92650000D01*
X152500000Y-94350000D02*
X153500000Y-94350000D01*
X152650000Y-88400000D02*
X153350000Y-88400000D01*
X153350000Y-89600000D02*
X152650000Y-89600000D01*
X139150000Y-108900000D02*
X139850000Y-108900000D01*
X139850000Y-110100000D02*
X139150000Y-110100000D01*
X140500000Y-87650000D02*
X139500000Y-87650000D01*
X139500000Y-89350000D02*
X140500000Y-89350000D01*
X100850000Y-93000000D02*
X100850000Y-92000000D01*
X99150000Y-92000000D02*
X99150000Y-93000000D01*
X189440000Y-86450000D02*
X196560000Y-86450000D01*
X189440000Y-92550000D02*
X196560000Y-92550000D01*
X153300000Y-48200000D02*
X153300000Y-42250000D01*
X153300000Y-42250000D02*
X138200000Y-42250000D01*
X138200000Y-42250000D02*
X138200000Y-48200000D01*
X138200000Y-48200000D02*
X153300000Y-48200000D01*
X150000000Y-48200000D02*
X150000000Y-47450000D01*
X150000000Y-47450000D02*
X141500000Y-47450000D01*
X141500000Y-47450000D02*
X141500000Y-48200000D01*
X141500000Y-48200000D02*
X150000000Y-48200000D01*
X153300000Y-48200000D02*
X153300000Y-47450000D01*
X153300000Y-47450000D02*
X151500000Y-47450000D01*
X151500000Y-47450000D02*
X151500000Y-48200000D01*
X151500000Y-48200000D02*
X153300000Y-48200000D01*
X140000000Y-48200000D02*
X140000000Y-47450000D01*
X140000000Y-47450000D02*
X138200000Y-47450000D01*
X138200000Y-47450000D02*
X138200000Y-48200000D01*
X138200000Y-48200000D02*
X140000000Y-48200000D01*
X153300000Y-45950000D02*
X152550000Y-45950000D01*
X152550000Y-45950000D02*
X152550000Y-43000000D01*
X152550000Y-43000000D02*
X145750000Y-43000000D01*
X138200000Y-45950000D02*
X138950000Y-45950000D01*
X138950000Y-45950000D02*
X138950000Y-43000000D01*
X138950000Y-43000000D02*
X145750000Y-43000000D01*
X151100000Y-48500000D02*
X153600000Y-48500000D01*
X153600000Y-48500000D02*
X153600000Y-46000000D01*
X168300000Y-48200000D02*
X168300000Y-42250000D01*
X168300000Y-42250000D02*
X158200000Y-42250000D01*
X158200000Y-42250000D02*
X158200000Y-48200000D01*
X158200000Y-48200000D02*
X168300000Y-48200000D01*
X165000000Y-48200000D02*
X165000000Y-47450000D01*
X165000000Y-47450000D02*
X161500000Y-47450000D01*
X161500000Y-47450000D02*
X161500000Y-48200000D01*
X161500000Y-48200000D02*
X165000000Y-48200000D01*
X168300000Y-48200000D02*
X168300000Y-47450000D01*
X168300000Y-47450000D02*
X166500000Y-47450000D01*
X166500000Y-47450000D02*
X166500000Y-48200000D01*
X166500000Y-48200000D02*
X168300000Y-48200000D01*
X160000000Y-48200000D02*
X160000000Y-47450000D01*
X160000000Y-47450000D02*
X158200000Y-47450000D01*
X158200000Y-47450000D02*
X158200000Y-48200000D01*
X158200000Y-48200000D02*
X160000000Y-48200000D01*
X168300000Y-45950000D02*
X167550000Y-45950000D01*
X167550000Y-45950000D02*
X167550000Y-43000000D01*
X167550000Y-43000000D02*
X163250000Y-43000000D01*
X158200000Y-45950000D02*
X158950000Y-45950000D01*
X158950000Y-45950000D02*
X158950000Y-43000000D01*
X158950000Y-43000000D02*
X163250000Y-43000000D01*
X166100000Y-48500000D02*
X168600000Y-48500000D01*
X168600000Y-48500000D02*
X168600000Y-46000000D01*
X133050000Y-48200000D02*
X133050000Y-42250000D01*
X133050000Y-42250000D02*
X125450000Y-42250000D01*
X125450000Y-42250000D02*
X125450000Y-48200000D01*
X125450000Y-48200000D02*
X133050000Y-48200000D01*
X129750000Y-48200000D02*
X129750000Y-47450000D01*
X129750000Y-47450000D02*
X128750000Y-47450000D01*
X128750000Y-47450000D02*
X128750000Y-48200000D01*
X128750000Y-48200000D02*
X129750000Y-48200000D01*
X133050000Y-48200000D02*
X133050000Y-47450000D01*
X133050000Y-47450000D02*
X131250000Y-47450000D01*
X131250000Y-47450000D02*
X131250000Y-48200000D01*
X131250000Y-48200000D02*
X133050000Y-48200000D01*
X127250000Y-48200000D02*
X127250000Y-47450000D01*
X127250000Y-47450000D02*
X125450000Y-47450000D01*
X125450000Y-47450000D02*
X125450000Y-48200000D01*
X125450000Y-48200000D02*
X127250000Y-48200000D01*
X133050000Y-45950000D02*
X132300000Y-45950000D01*
X132300000Y-45950000D02*
X132300000Y-43000000D01*
X132300000Y-43000000D02*
X129250000Y-43000000D01*
X125450000Y-45950000D02*
X126200000Y-45950000D01*
X126200000Y-45950000D02*
X126200000Y-43000000D01*
X126200000Y-43000000D02*
X129250000Y-43000000D01*
X130850000Y-48500000D02*
X133350000Y-48500000D01*
X133350000Y-48500000D02*
X133350000Y-46000000D01*
X104050000Y-48200000D02*
X104050000Y-42250000D01*
X104050000Y-42250000D02*
X96450000Y-42250000D01*
X96450000Y-42250000D02*
X96450000Y-48200000D01*
X96450000Y-48200000D02*
X104050000Y-48200000D01*
X100750000Y-48200000D02*
X100750000Y-47450000D01*
X100750000Y-47450000D02*
X99750000Y-47450000D01*
X99750000Y-47450000D02*
X99750000Y-48200000D01*
X99750000Y-48200000D02*
X100750000Y-48200000D01*
X104050000Y-48200000D02*
X104050000Y-47450000D01*
X104050000Y-47450000D02*
X102250000Y-47450000D01*
X102250000Y-47450000D02*
X102250000Y-48200000D01*
X102250000Y-48200000D02*
X104050000Y-48200000D01*
X98250000Y-48200000D02*
X98250000Y-47450000D01*
X98250000Y-47450000D02*
X96450000Y-47450000D01*
X96450000Y-47450000D02*
X96450000Y-48200000D01*
X96450000Y-48200000D02*
X98250000Y-48200000D01*
X104050000Y-45950000D02*
X103300000Y-45950000D01*
X103300000Y-45950000D02*
X103300000Y-43000000D01*
X103300000Y-43000000D02*
X100250000Y-43000000D01*
X96450000Y-45950000D02*
X97200000Y-45950000D01*
X97200000Y-45950000D02*
X97200000Y-43000000D01*
X97200000Y-43000000D02*
X100250000Y-43000000D01*
X101850000Y-48500000D02*
X104350000Y-48500000D01*
X104350000Y-48500000D02*
X104350000Y-46000000D01*
X121050000Y-48200000D02*
X121050000Y-42250000D01*
X121050000Y-42250000D02*
X108450000Y-42250000D01*
X108450000Y-42250000D02*
X108450000Y-48200000D01*
X108450000Y-48200000D02*
X121050000Y-48200000D01*
X117750000Y-48200000D02*
X117750000Y-47450000D01*
X117750000Y-47450000D02*
X111750000Y-47450000D01*
X111750000Y-47450000D02*
X111750000Y-48200000D01*
X111750000Y-48200000D02*
X117750000Y-48200000D01*
X121050000Y-48200000D02*
X121050000Y-47450000D01*
X121050000Y-47450000D02*
X119250000Y-47450000D01*
X119250000Y-47450000D02*
X119250000Y-48200000D01*
X119250000Y-48200000D02*
X121050000Y-48200000D01*
X110250000Y-48200000D02*
X110250000Y-47450000D01*
X110250000Y-47450000D02*
X108450000Y-47450000D01*
X108450000Y-47450000D02*
X108450000Y-48200000D01*
X108450000Y-48200000D02*
X110250000Y-48200000D01*
X121050000Y-45950000D02*
X120300000Y-45950000D01*
X120300000Y-45950000D02*
X120300000Y-43000000D01*
X120300000Y-43000000D02*
X114750000Y-43000000D01*
X108450000Y-45950000D02*
X109200000Y-45950000D01*
X109200000Y-45950000D02*
X109200000Y-43000000D01*
X109200000Y-43000000D02*
X114750000Y-43000000D01*
X118850000Y-48500000D02*
X121350000Y-48500000D01*
X121350000Y-48500000D02*
X121350000Y-46000000D01*
X191550000Y-83050000D02*
X197500000Y-83050000D01*
X197500000Y-83050000D02*
X197500000Y-75450000D01*
X197500000Y-75450000D02*
X191550000Y-75450000D01*
X191550000Y-75450000D02*
X191550000Y-83050000D01*
X191550000Y-79750000D02*
X192300000Y-79750000D01*
X192300000Y-79750000D02*
X192300000Y-78750000D01*
X192300000Y-78750000D02*
X191550000Y-78750000D01*
X191550000Y-78750000D02*
X191550000Y-79750000D01*
X191550000Y-83050000D02*
X192300000Y-83050000D01*
X192300000Y-83050000D02*
X192300000Y-81250000D01*
X192300000Y-81250000D02*
X191550000Y-81250000D01*
X191550000Y-81250000D02*
X191550000Y-83050000D01*
X191550000Y-77250000D02*
X192300000Y-77250000D01*
X192300000Y-77250000D02*
X192300000Y-75450000D01*
X192300000Y-75450000D02*
X191550000Y-75450000D01*
X191550000Y-75450000D02*
X191550000Y-77250000D01*
X193800000Y-83050000D02*
X193800000Y-82300000D01*
X193800000Y-82300000D02*
X196750000Y-82300000D01*
X196750000Y-82300000D02*
X196750000Y-79250000D01*
X193800000Y-75450000D02*
X193800000Y-76200000D01*
X193800000Y-76200000D02*
X196750000Y-76200000D01*
X196750000Y-76200000D02*
X196750000Y-79250000D01*
X191250000Y-80850000D02*
X191250000Y-83350000D01*
X191250000Y-83350000D02*
X193750000Y-83350000D01*
X191550000Y-72050000D02*
X197500000Y-72050000D01*
X197500000Y-72050000D02*
X197500000Y-64450000D01*
X197500000Y-64450000D02*
X191550000Y-64450000D01*
X191550000Y-64450000D02*
X191550000Y-72050000D01*
X191550000Y-68750000D02*
X192300000Y-68750000D01*
X192300000Y-68750000D02*
X192300000Y-67750000D01*
X192300000Y-67750000D02*
X191550000Y-67750000D01*
X191550000Y-67750000D02*
X191550000Y-68750000D01*
X191550000Y-72050000D02*
X192300000Y-72050000D01*
X192300000Y-72050000D02*
X192300000Y-70250000D01*
X192300000Y-70250000D02*
X191550000Y-70250000D01*
X191550000Y-70250000D02*
X191550000Y-72050000D01*
X191550000Y-66250000D02*
X192300000Y-66250000D01*
X192300000Y-66250000D02*
X192300000Y-64450000D01*
X192300000Y-64450000D02*
X191550000Y-64450000D01*
X191550000Y-64450000D02*
X191550000Y-66250000D01*
X193800000Y-72050000D02*
X193800000Y-71300000D01*
X193800000Y-71300000D02*
X196750000Y-71300000D01*
X196750000Y-71300000D02*
X196750000Y-68250000D01*
X193800000Y-64450000D02*
X193800000Y-65200000D01*
X193800000Y-65200000D02*
X196750000Y-65200000D01*
X196750000Y-65200000D02*
X196750000Y-68250000D01*
X191250000Y-69850000D02*
X191250000Y-72350000D01*
X191250000Y-72350000D02*
X193750000Y-72350000D01*
X103730000Y-113010000D02*
X103220000Y-112660000D01*
X106240000Y-112810000D02*
X106500000Y-112810000D01*
X106040000Y-113010000D02*
X106240000Y-112810000D01*
X96640000Y-113010000D02*
X96850000Y-112810000D01*
X96850000Y-112660000D02*
X96850000Y-112810000D01*
X96850000Y-112660000D02*
X103220000Y-112660000D01*
X93750000Y-108050000D02*
X93750000Y-109850000D01*
X93750000Y-102050000D02*
X93750000Y-106750000D01*
X94780000Y-113010000D02*
X94580000Y-112810000D01*
X94780000Y-113010000D02*
X96640000Y-113010000D01*
X106040000Y-113010000D02*
X103730000Y-113010000D01*
X93750000Y-96740000D02*
X93750000Y-100350000D01*
X94200000Y-96740000D02*
X93750000Y-96740000D01*
X107720000Y-96740000D02*
X107720000Y-110750000D01*
X105800000Y-96740000D02*
X107720000Y-96740000D01*
X88450000Y-86450000D02*
X82500000Y-86450000D01*
X82500000Y-86450000D02*
X82500000Y-94050000D01*
X82500000Y-94050000D02*
X88450000Y-94050000D01*
X88450000Y-94050000D02*
X88450000Y-86450000D01*
X88450000Y-89750000D02*
X87700000Y-89750000D01*
X87700000Y-89750000D02*
X87700000Y-90750000D01*
X87700000Y-90750000D02*
X88450000Y-90750000D01*
X88450000Y-90750000D02*
X88450000Y-89750000D01*
X88450000Y-86450000D02*
X87700000Y-86450000D01*
X87700000Y-86450000D02*
X87700000Y-88250000D01*
X87700000Y-88250000D02*
X88450000Y-88250000D01*
X88450000Y-88250000D02*
X88450000Y-86450000D01*
X88450000Y-92250000D02*
X87700000Y-92250000D01*
X87700000Y-92250000D02*
X87700000Y-94050000D01*
X87700000Y-94050000D02*
X88450000Y-94050000D01*
X88450000Y-94050000D02*
X88450000Y-92250000D01*
X86200000Y-86450000D02*
X86200000Y-87200000D01*
X86200000Y-87200000D02*
X83250000Y-87200000D01*
X83250000Y-87200000D02*
X83250000Y-90250000D01*
X86200000Y-94050000D02*
X86200000Y-93300000D01*
X86200000Y-93300000D02*
X83250000Y-93300000D01*
X83250000Y-93300000D02*
X83250000Y-90250000D01*
X88750000Y-88650000D02*
X88750000Y-86150000D01*
X88750000Y-86150000D02*
X86250000Y-86150000D01*
X88450000Y-58950000D02*
X82500000Y-58950000D01*
X82500000Y-58950000D02*
X82500000Y-66550000D01*
X82500000Y-66550000D02*
X88450000Y-66550000D01*
X88450000Y-66550000D02*
X88450000Y-58950000D01*
X88450000Y-62250000D02*
X87700000Y-62250000D01*
X87700000Y-62250000D02*
X87700000Y-63250000D01*
X87700000Y-63250000D02*
X88450000Y-63250000D01*
X88450000Y-63250000D02*
X88450000Y-62250000D01*
X88450000Y-58950000D02*
X87700000Y-58950000D01*
X87700000Y-58950000D02*
X87700000Y-60750000D01*
X87700000Y-60750000D02*
X88450000Y-60750000D01*
X88450000Y-60750000D02*
X88450000Y-58950000D01*
X88450000Y-64750000D02*
X87700000Y-64750000D01*
X87700000Y-64750000D02*
X87700000Y-66550000D01*
X87700000Y-66550000D02*
X88450000Y-66550000D01*
X88450000Y-66550000D02*
X88450000Y-64750000D01*
X86200000Y-58950000D02*
X86200000Y-59700000D01*
X86200000Y-59700000D02*
X83250000Y-59700000D01*
X83250000Y-59700000D02*
X83250000Y-62750000D01*
X86200000Y-66550000D02*
X86200000Y-65800000D01*
X86200000Y-65800000D02*
X83250000Y-65800000D01*
X83250000Y-65800000D02*
X83250000Y-62750000D01*
X88750000Y-61150000D02*
X88750000Y-58650000D01*
X88750000Y-58650000D02*
X86250000Y-58650000D01*
X189080000Y-95930000D02*
X196120000Y-95930000D01*
X196120000Y-95930000D02*
X196120000Y-97130000D01*
X196120000Y-97130000D02*
X197820000Y-97130000D01*
X197820000Y-97130000D02*
X197820000Y-102830000D01*
X197820000Y-102830000D02*
X196120000Y-102830000D01*
X196120000Y-102830000D02*
X196120000Y-104030000D01*
X196120000Y-104030000D02*
X189080000Y-104030000D01*
X189080000Y-104030000D02*
X189080000Y-95930000D01*
X194000000Y-95730000D02*
X193700000Y-95130000D01*
X193700000Y-95130000D02*
X194300000Y-95130000D01*
X194300000Y-95130000D02*
X194000000Y-95730000D01*
X189080000Y-51930000D02*
X196120000Y-51930000D01*
X196120000Y-51930000D02*
X196120000Y-53130000D01*
X196120000Y-53130000D02*
X197820000Y-53130000D01*
X197820000Y-53130000D02*
X197820000Y-58830000D01*
X197820000Y-58830000D02*
X196120000Y-58830000D01*
X196120000Y-58830000D02*
X196120000Y-60030000D01*
X196120000Y-60030000D02*
X189080000Y-60030000D01*
X189080000Y-60030000D02*
X189080000Y-51930000D01*
X194000000Y-51730000D02*
X193700000Y-51130000D01*
X193700000Y-51130000D02*
X194300000Y-51130000D01*
X194300000Y-51130000D02*
X194000000Y-51730000D01*
D10*
X125235000Y-104350000D02*
X125235000Y-109650000D01*
X126505000Y-105350000D02*
X126505000Y-108650000D01*
X133495000Y-108650000D02*
X133495000Y-105350000D01*
X126825000Y-104350000D02*
X125235000Y-104350000D01*
X126825000Y-105350000D02*
X126505000Y-105350000D01*
X133495000Y-105350000D02*
X133175000Y-105350000D01*
X126505000Y-108650000D02*
X126825000Y-108650000D01*
X133175000Y-108650000D02*
X133495000Y-108650000D01*
D12*
X131600000Y-103000000D02*
X131600000Y-101000000D01*
X134400000Y-103000000D02*
X131600000Y-103000000D01*
X134400000Y-101000000D02*
X134400000Y-103000000D01*
X131600000Y-101000000D02*
X134400000Y-101000000D01*
D10*
X161890000Y-69310000D02*
X181890000Y-69310000D01*
X181890000Y-69310000D02*
X181890000Y-59310000D01*
X181890000Y-59310000D02*
X161890000Y-59310000D01*
X161890000Y-59310000D02*
X161890000Y-69310000D01*
D13*
X161000000Y-60500000D02*
X161000000Y-60500000D01*
X161100000Y-60500000D02*
X161100000Y-60500000D01*
X161000000Y-60500000D02*
X161000000Y-60500000D01*
X161100000Y-60500000D02*
G75*
G02X161000000Y-60500000I-50000J0D01*
G01*
X161000000Y-60500000D02*
G75*
G02X161100000Y-60500000I50000J0D01*
G01*
X161100000Y-60500000D02*
G75*
G02X161000000Y-60500000I-50000J0D01*
G01*
D10*
X161890000Y-85810000D02*
X181890000Y-85810000D01*
X181890000Y-85810000D02*
X181890000Y-75810000D01*
X181890000Y-75810000D02*
X161890000Y-75810000D01*
X161890000Y-75810000D02*
X161890000Y-85810000D01*
D13*
X161000000Y-77000000D02*
X161000000Y-77000000D01*
X161100000Y-77000000D02*
X161100000Y-77000000D01*
X161000000Y-77000000D02*
X161000000Y-77000000D01*
X161100000Y-77000000D02*
G75*
G02X161000000Y-77000000I-50000J0D01*
G01*
X161000000Y-77000000D02*
G75*
G02X161100000Y-77000000I50000J0D01*
G01*
X161100000Y-77000000D02*
G75*
G02X161000000Y-77000000I-50000J0D01*
G01*
D12*
X128000000Y-101930000D02*
X127000000Y-101930000D01*
X127000000Y-100570000D02*
X128000000Y-100570000D01*
X133000000Y-97820000D02*
X134000000Y-97820000D01*
X134000000Y-99180000D02*
X133000000Y-99180000D01*
X102820000Y-83500000D02*
X102820000Y-82500000D01*
X104180000Y-82500000D02*
X104180000Y-83500000D01*
X105180000Y-68000000D02*
X105180000Y-69000000D01*
X103820000Y-69000000D02*
X103820000Y-68000000D01*
X148930000Y-51250000D02*
X148930000Y-52250000D01*
X147570000Y-52250000D02*
X147570000Y-51250000D01*
X146430000Y-51250000D02*
X146430000Y-52250000D01*
X145070000Y-52250000D02*
X145070000Y-51250000D01*
X143930000Y-51250000D02*
X143930000Y-52250000D01*
X142570000Y-52250000D02*
X142570000Y-51250000D01*
X141430000Y-51250000D02*
X141430000Y-52250000D01*
X140070000Y-52250000D02*
X140070000Y-51250000D01*
X166430000Y-50750000D02*
X166430000Y-51750000D01*
X165070000Y-51750000D02*
X165070000Y-50750000D01*
X163880000Y-50700000D02*
X163880000Y-51700000D01*
X162520000Y-51700000D02*
X162520000Y-50700000D01*
X161430000Y-50750000D02*
X161430000Y-51750000D01*
X160070000Y-51750000D02*
X160070000Y-50750000D01*
X131180000Y-51500000D02*
X131180000Y-52500000D01*
X129820000Y-52500000D02*
X129820000Y-51500000D01*
X128680000Y-51500000D02*
X128680000Y-52500000D01*
X127320000Y-52500000D02*
X127320000Y-51500000D01*
X102180000Y-52250000D02*
X102180000Y-53250000D01*
X100820000Y-53250000D02*
X100820000Y-52250000D01*
X99680000Y-52250000D02*
X99680000Y-53250000D01*
X98320000Y-53250000D02*
X98320000Y-52250000D01*
X114180000Y-52500000D02*
X114180000Y-53500000D01*
X112820000Y-53500000D02*
X112820000Y-52500000D01*
X111680000Y-52500000D02*
X111680000Y-53500000D01*
X110320000Y-53500000D02*
X110320000Y-52500000D01*
X105320000Y-93000000D02*
X105320000Y-92000000D01*
X106680000Y-92000000D02*
X106680000Y-93000000D01*
X103320000Y-93000000D02*
X103320000Y-92000000D01*
X104680000Y-92000000D02*
X104680000Y-93000000D01*
X101320000Y-93000000D02*
X101320000Y-92000000D01*
X102680000Y-92000000D02*
X102680000Y-93000000D01*
X97320000Y-93000000D02*
X97320000Y-92000000D01*
X98680000Y-92000000D02*
X98680000Y-93000000D01*
X95320000Y-93000000D02*
X95320000Y-92000000D01*
X96680000Y-92000000D02*
X96680000Y-93000000D01*
X93320000Y-93000000D02*
X93320000Y-92000000D01*
X94680000Y-92000000D02*
X94680000Y-93000000D01*
X89820000Y-103000000D02*
X89820000Y-102000000D01*
X91180000Y-102000000D02*
X91180000Y-103000000D01*
X116000000Y-97430000D02*
X115000000Y-97430000D01*
X115000000Y-96070000D02*
X116000000Y-96070000D01*
X116000000Y-94680000D02*
X115000000Y-94680000D01*
X115000000Y-93320000D02*
X116000000Y-93320000D01*
X116000000Y-91680000D02*
X115000000Y-91680000D01*
X115000000Y-90320000D02*
X116000000Y-90320000D01*
X116000000Y-88680000D02*
X115000000Y-88680000D01*
X115000000Y-87320000D02*
X116000000Y-87320000D01*
X97500000Y-86320000D02*
X98500000Y-86320000D01*
X98500000Y-87680000D02*
X97500000Y-87680000D01*
X94680000Y-86000000D02*
X94680000Y-87000000D01*
X93320000Y-87000000D02*
X93320000Y-86000000D01*
X88680000Y-102000000D02*
X88680000Y-103000000D01*
X87320000Y-103000000D02*
X87320000Y-102000000D01*
D13*
X101770000Y-57400000D02*
G75*
G03X101770000Y-57400000I-50000J0D01*
G01*
D14*
X104315000Y-63250000D02*
X105250000Y-63250000D01*
X105250000Y-63250000D02*
X105250000Y-58750000D01*
X105250000Y-58750000D02*
X105150000Y-58750000D01*
X100850000Y-58750000D02*
X100750000Y-58750000D01*
X100750000Y-58750000D02*
X100750000Y-63250000D01*
X100750000Y-63250000D02*
X101685000Y-63250000D01*
D13*
X94270000Y-57400000D02*
G75*
G03X94270000Y-57400000I-50000J0D01*
G01*
D14*
X96815000Y-63250000D02*
X97750000Y-63250000D01*
X97750000Y-63250000D02*
X97750000Y-58750000D01*
X97750000Y-58750000D02*
X97650000Y-58750000D01*
X93350000Y-58750000D02*
X93250000Y-58750000D01*
X93250000Y-58750000D02*
X93250000Y-63250000D01*
X93250000Y-63250000D02*
X94185000Y-63250000D01*
D15*
X141625000Y-72050000D02*
X141625000Y-72300000D01*
X149375000Y-72050000D02*
X149375000Y-72395000D01*
X149375000Y-83950000D02*
X149375000Y-83605000D01*
X141625000Y-83950000D02*
X141625000Y-83605000D01*
X141625000Y-72050000D02*
X149375000Y-72050000D01*
X141625000Y-83950000D02*
X149375000Y-83950000D01*
X141625000Y-72300000D02*
X139800000Y-72300000D01*
X126715000Y-80975000D02*
X126715000Y-79975000D01*
X116365000Y-80975000D02*
X116365000Y-79900000D01*
X116365000Y-70625000D02*
X116365000Y-71700000D01*
X126715000Y-70625000D02*
X126715000Y-71700000D01*
X126715000Y-80975000D02*
X125640000Y-80975000D01*
X126715000Y-70625000D02*
X125640000Y-70625000D01*
X116365000Y-70625000D02*
X117440000Y-70625000D01*
X116365000Y-80975000D02*
X117440000Y-80975000D01*
X126715000Y-79975000D02*
X127740000Y-79975000D01*
D14*
X96050000Y-77075000D02*
X105950000Y-77075000D01*
X105950000Y-77075000D02*
X105950000Y-73925000D01*
X105950000Y-73925000D02*
X96050000Y-73925000D01*
X96050000Y-73925000D02*
X96050000Y-77075000D01*
D16*
X96641419Y-79500000D02*
G75*
G03X96641419Y-79500000I-141419J0D01*
G01*
D12*
X147450000Y-106700000D02*
X148950000Y-106700000D01*
X148950000Y-106700000D02*
X148950000Y-104890000D01*
X148950000Y-104890000D02*
X154075000Y-104890000D01*
X147450000Y-96300000D02*
X148950000Y-96300000D01*
X148950000Y-96300000D02*
X148950000Y-98110000D01*
X148950000Y-98110000D02*
X150050000Y-98110000D01*
X181550000Y-48200000D02*
X181550000Y-42250000D01*
X181550000Y-42250000D02*
X173950000Y-42250000D01*
X173950000Y-42250000D02*
X173950000Y-48200000D01*
X173950000Y-48200000D02*
X181550000Y-48200000D01*
X178250000Y-48200000D02*
X178250000Y-47450000D01*
X178250000Y-47450000D02*
X177250000Y-47450000D01*
X177250000Y-47450000D02*
X177250000Y-48200000D01*
X177250000Y-48200000D02*
X178250000Y-48200000D01*
X181550000Y-48200000D02*
X181550000Y-47450000D01*
X181550000Y-47450000D02*
X179750000Y-47450000D01*
X179750000Y-47450000D02*
X179750000Y-48200000D01*
X179750000Y-48200000D02*
X181550000Y-48200000D01*
X175750000Y-48200000D02*
X175750000Y-47450000D01*
X175750000Y-47450000D02*
X173950000Y-47450000D01*
X173950000Y-47450000D02*
X173950000Y-48200000D01*
X173950000Y-48200000D02*
X175750000Y-48200000D01*
X181550000Y-45950000D02*
X180800000Y-45950000D01*
X180800000Y-45950000D02*
X180800000Y-43000000D01*
X180800000Y-43000000D02*
X177750000Y-43000000D01*
X173950000Y-45950000D02*
X174700000Y-45950000D01*
X174700000Y-45950000D02*
X174700000Y-43000000D01*
X174700000Y-43000000D02*
X177750000Y-43000000D01*
X179350000Y-48500000D02*
X181850000Y-48500000D01*
X181850000Y-48500000D02*
X181850000Y-46000000D01*
D10*
X161890000Y-102810000D02*
X181890000Y-102810000D01*
X181890000Y-102810000D02*
X181890000Y-92810000D01*
X181890000Y-92810000D02*
X161890000Y-92810000D01*
X161890000Y-92810000D02*
X161890000Y-102810000D01*
D13*
X161000000Y-94000000D02*
X161000000Y-94000000D01*
X161100000Y-94000000D02*
X161100000Y-94000000D01*
X161000000Y-94000000D02*
X161000000Y-94000000D01*
X161100000Y-94000000D02*
G75*
G02X161000000Y-94000000I-50000J0D01*
G01*
X161000000Y-94000000D02*
G75*
G02X161100000Y-94000000I50000J0D01*
G01*
X161100000Y-94000000D02*
G75*
G02X161000000Y-94000000I-50000J0D01*
G01*
D12*
X127600000Y-65550000D02*
X127600000Y-64850000D01*
X128800000Y-64850000D02*
X128800000Y-65550000D01*
D15*
X111833334Y-86357143D02*
X111785715Y-86404762D01*
X111642858Y-86452381D01*
X111547620Y-86452381D01*
X111404762Y-86404762D01*
X111309524Y-86309524D01*
X111261905Y-86214286D01*
X111214286Y-86023810D01*
X111214286Y-85880952D01*
X111261905Y-85690476D01*
X111309524Y-85595238D01*
X111404762Y-85500000D01*
X111547620Y-85452381D01*
X111642858Y-85452381D01*
X111785715Y-85500000D01*
X111833334Y-85547619D01*
X112785715Y-86452381D02*
X112214286Y-86452381D01*
X112500000Y-86452381D02*
X112500000Y-85452381D01*
X112404762Y-85595238D01*
X112309524Y-85690476D01*
X112214286Y-85738095D01*
X129357143Y-87166666D02*
X129404762Y-87214285D01*
X129452381Y-87357142D01*
X129452381Y-87452380D01*
X129404762Y-87595238D01*
X129309524Y-87690476D01*
X129214286Y-87738095D01*
X129023810Y-87785714D01*
X128880952Y-87785714D01*
X128690476Y-87738095D01*
X128595238Y-87690476D01*
X128500000Y-87595238D01*
X128452381Y-87452380D01*
X128452381Y-87357142D01*
X128500000Y-87214285D01*
X128547619Y-87166666D01*
X128452381Y-86833333D02*
X128452381Y-86214285D01*
X128833333Y-86547619D01*
X128833333Y-86404761D01*
X128880952Y-86309523D01*
X128928571Y-86261904D01*
X129023810Y-86214285D01*
X129261905Y-86214285D01*
X129357143Y-86261904D01*
X129404762Y-86309523D01*
X129452381Y-86404761D01*
X129452381Y-86690476D01*
X129404762Y-86785714D01*
X129357143Y-86833333D01*
X131833334Y-80107143D02*
X131785715Y-80154762D01*
X131642858Y-80202381D01*
X131547620Y-80202381D01*
X131404762Y-80154762D01*
X131309524Y-80059524D01*
X131261905Y-79964286D01*
X131214286Y-79773810D01*
X131214286Y-79630952D01*
X131261905Y-79440476D01*
X131309524Y-79345238D01*
X131404762Y-79250000D01*
X131547620Y-79202381D01*
X131642858Y-79202381D01*
X131785715Y-79250000D01*
X131833334Y-79297619D01*
X132690477Y-79535714D02*
X132690477Y-80202381D01*
X132452381Y-79154762D02*
X132214286Y-79869048D01*
X132833334Y-79869048D01*
X131833334Y-69607143D02*
X131785715Y-69654762D01*
X131642858Y-69702381D01*
X131547620Y-69702381D01*
X131404762Y-69654762D01*
X131309524Y-69559524D01*
X131261905Y-69464286D01*
X131214286Y-69273810D01*
X131214286Y-69130952D01*
X131261905Y-68940476D01*
X131309524Y-68845238D01*
X131404762Y-68750000D01*
X131547620Y-68702381D01*
X131642858Y-68702381D01*
X131785715Y-68750000D01*
X131833334Y-68797619D01*
X132738096Y-68702381D02*
X132261905Y-68702381D01*
X132214286Y-69178571D01*
X132261905Y-69130952D01*
X132357143Y-69083333D01*
X132595239Y-69083333D01*
X132690477Y-69130952D01*
X132738096Y-69178571D01*
X132785715Y-69273810D01*
X132785715Y-69511905D01*
X132738096Y-69607143D01*
X132690477Y-69654762D01*
X132595239Y-69702381D01*
X132357143Y-69702381D01*
X132261905Y-69654762D01*
X132214286Y-69607143D01*
X114607143Y-65166666D02*
X114654762Y-65214285D01*
X114702381Y-65357142D01*
X114702381Y-65452380D01*
X114654762Y-65595238D01*
X114559524Y-65690476D01*
X114464286Y-65738095D01*
X114273810Y-65785714D01*
X114130952Y-65785714D01*
X113940476Y-65738095D01*
X113845238Y-65690476D01*
X113750000Y-65595238D01*
X113702381Y-65452380D01*
X113702381Y-65357142D01*
X113750000Y-65214285D01*
X113797619Y-65166666D01*
X113702381Y-64309523D02*
X113702381Y-64500000D01*
X113750000Y-64595238D01*
X113797619Y-64642857D01*
X113940476Y-64738095D01*
X114130952Y-64785714D01*
X114511905Y-64785714D01*
X114607143Y-64738095D01*
X114654762Y-64690476D01*
X114702381Y-64595238D01*
X114702381Y-64404761D01*
X114654762Y-64309523D01*
X114607143Y-64261904D01*
X114511905Y-64214285D01*
X114273810Y-64214285D01*
X114178571Y-64261904D01*
X114130952Y-64309523D01*
X114083333Y-64404761D01*
X114083333Y-64595238D01*
X114130952Y-64690476D01*
X114178571Y-64738095D01*
X114273810Y-64785714D01*
X131833334Y-67107143D02*
X131785715Y-67154762D01*
X131642858Y-67202381D01*
X131547620Y-67202381D01*
X131404762Y-67154762D01*
X131309524Y-67059524D01*
X131261905Y-66964286D01*
X131214286Y-66773810D01*
X131214286Y-66630952D01*
X131261905Y-66440476D01*
X131309524Y-66345238D01*
X131404762Y-66250000D01*
X131547620Y-66202381D01*
X131642858Y-66202381D01*
X131785715Y-66250000D01*
X131833334Y-66297619D01*
X132166667Y-66202381D02*
X132833334Y-66202381D01*
X132404762Y-67202381D01*
X127333334Y-96607143D02*
X127285715Y-96654762D01*
X127142858Y-96702381D01*
X127047620Y-96702381D01*
X126904762Y-96654762D01*
X126809524Y-96559524D01*
X126761905Y-96464286D01*
X126714286Y-96273810D01*
X126714286Y-96130952D01*
X126761905Y-95940476D01*
X126809524Y-95845238D01*
X126904762Y-95750000D01*
X127047620Y-95702381D01*
X127142858Y-95702381D01*
X127285715Y-95750000D01*
X127333334Y-95797619D01*
X127904762Y-96130952D02*
X127809524Y-96083333D01*
X127761905Y-96035714D01*
X127714286Y-95940476D01*
X127714286Y-95892857D01*
X127761905Y-95797619D01*
X127809524Y-95750000D01*
X127904762Y-95702381D01*
X128095239Y-95702381D01*
X128190477Y-95750000D01*
X128238096Y-95797619D01*
X128285715Y-95892857D01*
X128285715Y-95940476D01*
X128238096Y-96035714D01*
X128190477Y-96083333D01*
X128095239Y-96130952D01*
X127904762Y-96130952D01*
X127809524Y-96178571D01*
X127761905Y-96226190D01*
X127714286Y-96321429D01*
X127714286Y-96511905D01*
X127761905Y-96607143D01*
X127809524Y-96654762D01*
X127904762Y-96702381D01*
X128095239Y-96702381D01*
X128190477Y-96654762D01*
X128238096Y-96607143D01*
X128285715Y-96511905D01*
X128285715Y-96321429D01*
X128238096Y-96226190D01*
X128190477Y-96178571D01*
X128095239Y-96130952D01*
X145333334Y-88107143D02*
X145285715Y-88154762D01*
X145142858Y-88202381D01*
X145047620Y-88202381D01*
X144904762Y-88154762D01*
X144809524Y-88059524D01*
X144761905Y-87964286D01*
X144714286Y-87773810D01*
X144714286Y-87630952D01*
X144761905Y-87440476D01*
X144809524Y-87345238D01*
X144904762Y-87250000D01*
X145047620Y-87202381D01*
X145142858Y-87202381D01*
X145285715Y-87250000D01*
X145333334Y-87297619D01*
X145809524Y-88202381D02*
X146000000Y-88202381D01*
X146095239Y-88154762D01*
X146142858Y-88107143D01*
X146238096Y-87964286D01*
X146285715Y-87773810D01*
X146285715Y-87392857D01*
X146238096Y-87297619D01*
X146190477Y-87250000D01*
X146095239Y-87202381D01*
X145904762Y-87202381D01*
X145809524Y-87250000D01*
X145761905Y-87297619D01*
X145714286Y-87392857D01*
X145714286Y-87630952D01*
X145761905Y-87726190D01*
X145809524Y-87773810D01*
X145904762Y-87821429D01*
X146095239Y-87821429D01*
X146190477Y-87773810D01*
X146238096Y-87726190D01*
X146285715Y-87630952D01*
X119607143Y-65642857D02*
X119654762Y-65690476D01*
X119702381Y-65833333D01*
X119702381Y-65928571D01*
X119654762Y-66071429D01*
X119559524Y-66166667D01*
X119464286Y-66214286D01*
X119273810Y-66261905D01*
X119130952Y-66261905D01*
X118940476Y-66214286D01*
X118845238Y-66166667D01*
X118750000Y-66071429D01*
X118702381Y-65928571D01*
X118702381Y-65833333D01*
X118750000Y-65690476D01*
X118797619Y-65642857D01*
X119702381Y-64690476D02*
X119702381Y-65261905D01*
X119702381Y-64976191D02*
X118702381Y-64976191D01*
X118845238Y-65071429D01*
X118940476Y-65166667D01*
X118988095Y-65261905D01*
X118702381Y-64071429D02*
X118702381Y-63976190D01*
X118750000Y-63880952D01*
X118797619Y-63833333D01*
X118892857Y-63785714D01*
X119083333Y-63738095D01*
X119321429Y-63738095D01*
X119511905Y-63785714D01*
X119607143Y-63833333D01*
X119654762Y-63880952D01*
X119702381Y-63976190D01*
X119702381Y-64071429D01*
X119654762Y-64166667D01*
X119607143Y-64214286D01*
X119511905Y-64261905D01*
X119321429Y-64309524D01*
X119083333Y-64309524D01*
X118892857Y-64261905D01*
X118797619Y-64214286D01*
X118750000Y-64166667D01*
X118702381Y-64071429D01*
X110357143Y-80807143D02*
X110309524Y-80854762D01*
X110166667Y-80902381D01*
X110071429Y-80902381D01*
X109928571Y-80854762D01*
X109833333Y-80759524D01*
X109785714Y-80664286D01*
X109738095Y-80473810D01*
X109738095Y-80330952D01*
X109785714Y-80140476D01*
X109833333Y-80045238D01*
X109928571Y-79950000D01*
X110071429Y-79902381D01*
X110166667Y-79902381D01*
X110309524Y-79950000D01*
X110357143Y-79997619D01*
X111309524Y-80902381D02*
X110738095Y-80902381D01*
X111023809Y-80902381D02*
X111023809Y-79902381D01*
X110928571Y-80045238D01*
X110833333Y-80140476D01*
X110738095Y-80188095D01*
X112261905Y-80902381D02*
X111690476Y-80902381D01*
X111976190Y-80902381D02*
X111976190Y-79902381D01*
X111880952Y-80045238D01*
X111785714Y-80140476D01*
X111690476Y-80188095D01*
X105607143Y-85107143D02*
X105559524Y-85154762D01*
X105416667Y-85202381D01*
X105321429Y-85202381D01*
X105178571Y-85154762D01*
X105083333Y-85059524D01*
X105035714Y-84964286D01*
X104988095Y-84773810D01*
X104988095Y-84630952D01*
X105035714Y-84440476D01*
X105083333Y-84345238D01*
X105178571Y-84250000D01*
X105321429Y-84202381D01*
X105416667Y-84202381D01*
X105559524Y-84250000D01*
X105607143Y-84297619D01*
X106559524Y-85202381D02*
X105988095Y-85202381D01*
X106273809Y-85202381D02*
X106273809Y-84202381D01*
X106178571Y-84345238D01*
X106083333Y-84440476D01*
X105988095Y-84488095D01*
X106940476Y-84297619D02*
X106988095Y-84250000D01*
X107083333Y-84202381D01*
X107321429Y-84202381D01*
X107416667Y-84250000D01*
X107464286Y-84297619D01*
X107511905Y-84392857D01*
X107511905Y-84488095D01*
X107464286Y-84630952D01*
X106892857Y-85202381D01*
X107511905Y-85202381D01*
X109357143Y-69642857D02*
X109404762Y-69690476D01*
X109452381Y-69833333D01*
X109452381Y-69928571D01*
X109404762Y-70071429D01*
X109309524Y-70166667D01*
X109214286Y-70214286D01*
X109023810Y-70261905D01*
X108880952Y-70261905D01*
X108690476Y-70214286D01*
X108595238Y-70166667D01*
X108500000Y-70071429D01*
X108452381Y-69928571D01*
X108452381Y-69833333D01*
X108500000Y-69690476D01*
X108547619Y-69642857D01*
X109452381Y-68690476D02*
X109452381Y-69261905D01*
X109452381Y-68976191D02*
X108452381Y-68976191D01*
X108595238Y-69071429D01*
X108690476Y-69166667D01*
X108738095Y-69261905D01*
X108452381Y-68357143D02*
X108452381Y-67738095D01*
X108833333Y-68071429D01*
X108833333Y-67928571D01*
X108880952Y-67833333D01*
X108928571Y-67785714D01*
X109023810Y-67738095D01*
X109261905Y-67738095D01*
X109357143Y-67785714D01*
X109404762Y-67833333D01*
X109452381Y-67928571D01*
X109452381Y-68214286D01*
X109404762Y-68309524D01*
X109357143Y-68357143D01*
X107607143Y-83392857D02*
X107654762Y-83440476D01*
X107702381Y-83583333D01*
X107702381Y-83678571D01*
X107654762Y-83821429D01*
X107559524Y-83916667D01*
X107464286Y-83964286D01*
X107273810Y-84011905D01*
X107130952Y-84011905D01*
X106940476Y-83964286D01*
X106845238Y-83916667D01*
X106750000Y-83821429D01*
X106702381Y-83678571D01*
X106702381Y-83583333D01*
X106750000Y-83440476D01*
X106797619Y-83392857D01*
X107702381Y-82440476D02*
X107702381Y-83011905D01*
X107702381Y-82726191D02*
X106702381Y-82726191D01*
X106845238Y-82821429D01*
X106940476Y-82916667D01*
X106988095Y-83011905D01*
X107035714Y-81583333D02*
X107702381Y-81583333D01*
X106654762Y-81821429D02*
X107369048Y-82059524D01*
X107369048Y-81440476D01*
X95357143Y-69642857D02*
X95404762Y-69690476D01*
X95452381Y-69833333D01*
X95452381Y-69928571D01*
X95404762Y-70071429D01*
X95309524Y-70166667D01*
X95214286Y-70214286D01*
X95023810Y-70261905D01*
X94880952Y-70261905D01*
X94690476Y-70214286D01*
X94595238Y-70166667D01*
X94500000Y-70071429D01*
X94452381Y-69928571D01*
X94452381Y-69833333D01*
X94500000Y-69690476D01*
X94547619Y-69642857D01*
X95452381Y-68690476D02*
X95452381Y-69261905D01*
X95452381Y-68976191D02*
X94452381Y-68976191D01*
X94595238Y-69071429D01*
X94690476Y-69166667D01*
X94738095Y-69261905D01*
X94452381Y-67785714D02*
X94452381Y-68261905D01*
X94928571Y-68309524D01*
X94880952Y-68261905D01*
X94833333Y-68166667D01*
X94833333Y-67928571D01*
X94880952Y-67833333D01*
X94928571Y-67785714D01*
X95023810Y-67738095D01*
X95261905Y-67738095D01*
X95357143Y-67785714D01*
X95404762Y-67833333D01*
X95452381Y-67928571D01*
X95452381Y-68166667D01*
X95404762Y-68261905D01*
X95357143Y-68309524D01*
X99357143Y-69642857D02*
X99404762Y-69690476D01*
X99452381Y-69833333D01*
X99452381Y-69928571D01*
X99404762Y-70071429D01*
X99309524Y-70166667D01*
X99214286Y-70214286D01*
X99023810Y-70261905D01*
X98880952Y-70261905D01*
X98690476Y-70214286D01*
X98595238Y-70166667D01*
X98500000Y-70071429D01*
X98452381Y-69928571D01*
X98452381Y-69833333D01*
X98500000Y-69690476D01*
X98547619Y-69642857D01*
X99452381Y-68690476D02*
X99452381Y-69261905D01*
X99452381Y-68976191D02*
X98452381Y-68976191D01*
X98595238Y-69071429D01*
X98690476Y-69166667D01*
X98738095Y-69261905D01*
X98452381Y-67833333D02*
X98452381Y-68023810D01*
X98500000Y-68119048D01*
X98547619Y-68166667D01*
X98690476Y-68261905D01*
X98880952Y-68309524D01*
X99261905Y-68309524D01*
X99357143Y-68261905D01*
X99404762Y-68214286D01*
X99452381Y-68119048D01*
X99452381Y-67928571D01*
X99404762Y-67833333D01*
X99357143Y-67785714D01*
X99261905Y-67738095D01*
X99023810Y-67738095D01*
X98928571Y-67785714D01*
X98880952Y-67833333D01*
X98833333Y-67928571D01*
X98833333Y-68119048D01*
X98880952Y-68214286D01*
X98928571Y-68261905D01*
X99023810Y-68309524D01*
X99607143Y-83642857D02*
X99654762Y-83690476D01*
X99702381Y-83833333D01*
X99702381Y-83928571D01*
X99654762Y-84071429D01*
X99559524Y-84166667D01*
X99464286Y-84214286D01*
X99273810Y-84261905D01*
X99130952Y-84261905D01*
X98940476Y-84214286D01*
X98845238Y-84166667D01*
X98750000Y-84071429D01*
X98702381Y-83928571D01*
X98702381Y-83833333D01*
X98750000Y-83690476D01*
X98797619Y-83642857D01*
X99702381Y-82690476D02*
X99702381Y-83261905D01*
X99702381Y-82976191D02*
X98702381Y-82976191D01*
X98845238Y-83071429D01*
X98940476Y-83166667D01*
X98988095Y-83261905D01*
X98702381Y-82357143D02*
X98702381Y-81690476D01*
X99702381Y-82119048D01*
X93817143Y-76642857D02*
X93864762Y-76690476D01*
X93912381Y-76833333D01*
X93912381Y-76928571D01*
X93864762Y-77071429D01*
X93769524Y-77166667D01*
X93674286Y-77214286D01*
X93483810Y-77261905D01*
X93340952Y-77261905D01*
X93150476Y-77214286D01*
X93055238Y-77166667D01*
X92960000Y-77071429D01*
X92912381Y-76928571D01*
X92912381Y-76833333D01*
X92960000Y-76690476D01*
X93007619Y-76642857D01*
X93912381Y-75690476D02*
X93912381Y-76261905D01*
X93912381Y-75976191D02*
X92912381Y-75976191D01*
X93055238Y-76071429D01*
X93150476Y-76166667D01*
X93198095Y-76261905D01*
X93340952Y-75119048D02*
X93293333Y-75214286D01*
X93245714Y-75261905D01*
X93150476Y-75309524D01*
X93102857Y-75309524D01*
X93007619Y-75261905D01*
X92960000Y-75214286D01*
X92912381Y-75119048D01*
X92912381Y-74928571D01*
X92960000Y-74833333D01*
X93007619Y-74785714D01*
X93102857Y-74738095D01*
X93150476Y-74738095D01*
X93245714Y-74785714D01*
X93293333Y-74833333D01*
X93340952Y-74928571D01*
X93340952Y-75119048D01*
X93388571Y-75214286D01*
X93436190Y-75261905D01*
X93531429Y-75309524D01*
X93721905Y-75309524D01*
X93817143Y-75261905D01*
X93864762Y-75214286D01*
X93912381Y-75119048D01*
X93912381Y-74928571D01*
X93864762Y-74833333D01*
X93817143Y-74785714D01*
X93721905Y-74738095D01*
X93531429Y-74738095D01*
X93436190Y-74785714D01*
X93388571Y-74833333D01*
X93340952Y-74928571D01*
X92041429Y-82160952D02*
X92041429Y-81399047D01*
X92422381Y-81779999D02*
X91660476Y-81779999D01*
X152357143Y-92107143D02*
X152309524Y-92154762D01*
X152166667Y-92202381D01*
X152071429Y-92202381D01*
X151928571Y-92154762D01*
X151833333Y-92059524D01*
X151785714Y-91964286D01*
X151738095Y-91773810D01*
X151738095Y-91630952D01*
X151785714Y-91440476D01*
X151833333Y-91345238D01*
X151928571Y-91250000D01*
X152071429Y-91202381D01*
X152166667Y-91202381D01*
X152309524Y-91250000D01*
X152357143Y-91297619D01*
X153309524Y-92202381D02*
X152738095Y-92202381D01*
X153023809Y-92202381D02*
X153023809Y-91202381D01*
X152928571Y-91345238D01*
X152833333Y-91440476D01*
X152738095Y-91488095D01*
X153785714Y-92202381D02*
X153976190Y-92202381D01*
X154071429Y-92154762D01*
X154119048Y-92107143D01*
X154214286Y-91964286D01*
X154261905Y-91773810D01*
X154261905Y-91392857D01*
X154214286Y-91297619D01*
X154166667Y-91250000D01*
X154071429Y-91202381D01*
X153880952Y-91202381D01*
X153785714Y-91250000D01*
X153738095Y-91297619D01*
X153690476Y-91392857D01*
X153690476Y-91630952D01*
X153738095Y-91726190D01*
X153785714Y-91773810D01*
X153880952Y-91821429D01*
X154071429Y-91821429D01*
X154166667Y-91773810D01*
X154214286Y-91726190D01*
X154261905Y-91630952D01*
X152357143Y-88107143D02*
X152309524Y-88154762D01*
X152166667Y-88202381D01*
X152071429Y-88202381D01*
X151928571Y-88154762D01*
X151833333Y-88059524D01*
X151785714Y-87964286D01*
X151738095Y-87773810D01*
X151738095Y-87630952D01*
X151785714Y-87440476D01*
X151833333Y-87345238D01*
X151928571Y-87250000D01*
X152071429Y-87202381D01*
X152166667Y-87202381D01*
X152309524Y-87250000D01*
X152357143Y-87297619D01*
X152738095Y-87297619D02*
X152785714Y-87250000D01*
X152880952Y-87202381D01*
X153119048Y-87202381D01*
X153214286Y-87250000D01*
X153261905Y-87297619D01*
X153309524Y-87392857D01*
X153309524Y-87488095D01*
X153261905Y-87630952D01*
X152690476Y-88202381D01*
X153309524Y-88202381D01*
X153928571Y-87202381D02*
X154023810Y-87202381D01*
X154119048Y-87250000D01*
X154166667Y-87297619D01*
X154214286Y-87392857D01*
X154261905Y-87583333D01*
X154261905Y-87821429D01*
X154214286Y-88011905D01*
X154166667Y-88107143D01*
X154119048Y-88154762D01*
X154023810Y-88202381D01*
X153928571Y-88202381D01*
X153833333Y-88154762D01*
X153785714Y-88107143D01*
X153738095Y-88011905D01*
X153690476Y-87821429D01*
X153690476Y-87583333D01*
X153738095Y-87392857D01*
X153785714Y-87297619D01*
X153833333Y-87250000D01*
X153928571Y-87202381D01*
X138857143Y-108607143D02*
X138809524Y-108654762D01*
X138666667Y-108702381D01*
X138571429Y-108702381D01*
X138428571Y-108654762D01*
X138333333Y-108559524D01*
X138285714Y-108464286D01*
X138238095Y-108273810D01*
X138238095Y-108130952D01*
X138285714Y-107940476D01*
X138333333Y-107845238D01*
X138428571Y-107750000D01*
X138571429Y-107702381D01*
X138666667Y-107702381D01*
X138809524Y-107750000D01*
X138857143Y-107797619D01*
X139238095Y-107797619D02*
X139285714Y-107750000D01*
X139380952Y-107702381D01*
X139619048Y-107702381D01*
X139714286Y-107750000D01*
X139761905Y-107797619D01*
X139809524Y-107892857D01*
X139809524Y-107988095D01*
X139761905Y-108130952D01*
X139190476Y-108702381D01*
X139809524Y-108702381D01*
X140761905Y-108702381D02*
X140190476Y-108702381D01*
X140476190Y-108702381D02*
X140476190Y-107702381D01*
X140380952Y-107845238D01*
X140285714Y-107940476D01*
X140190476Y-107988095D01*
X139357143Y-87107143D02*
X139309524Y-87154762D01*
X139166667Y-87202381D01*
X139071429Y-87202381D01*
X138928571Y-87154762D01*
X138833333Y-87059524D01*
X138785714Y-86964286D01*
X138738095Y-86773810D01*
X138738095Y-86630952D01*
X138785714Y-86440476D01*
X138833333Y-86345238D01*
X138928571Y-86250000D01*
X139071429Y-86202381D01*
X139166667Y-86202381D01*
X139309524Y-86250000D01*
X139357143Y-86297619D01*
X139738095Y-86297619D02*
X139785714Y-86250000D01*
X139880952Y-86202381D01*
X140119048Y-86202381D01*
X140214286Y-86250000D01*
X140261905Y-86297619D01*
X140309524Y-86392857D01*
X140309524Y-86488095D01*
X140261905Y-86630952D01*
X139690476Y-87202381D01*
X140309524Y-87202381D01*
X140690476Y-86297619D02*
X140738095Y-86250000D01*
X140833333Y-86202381D01*
X141071429Y-86202381D01*
X141166667Y-86250000D01*
X141214286Y-86297619D01*
X141261905Y-86392857D01*
X141261905Y-86488095D01*
X141214286Y-86630952D01*
X140642857Y-87202381D01*
X141261905Y-87202381D01*
X102357143Y-89357143D02*
X102309524Y-89404762D01*
X102166667Y-89452381D01*
X102071429Y-89452381D01*
X101928571Y-89404762D01*
X101833333Y-89309524D01*
X101785714Y-89214286D01*
X101738095Y-89023810D01*
X101738095Y-88880952D01*
X101785714Y-88690476D01*
X101833333Y-88595238D01*
X101928571Y-88500000D01*
X102071429Y-88452381D01*
X102166667Y-88452381D01*
X102309524Y-88500000D01*
X102357143Y-88547619D01*
X102738095Y-88547619D02*
X102785714Y-88500000D01*
X102880952Y-88452381D01*
X103119048Y-88452381D01*
X103214286Y-88500000D01*
X103261905Y-88547619D01*
X103309524Y-88642857D01*
X103309524Y-88738095D01*
X103261905Y-88880952D01*
X102690476Y-89452381D01*
X103309524Y-89452381D01*
X103642857Y-88452381D02*
X104261905Y-88452381D01*
X103928571Y-88833333D01*
X104071429Y-88833333D01*
X104166667Y-88880952D01*
X104214286Y-88928571D01*
X104261905Y-89023810D01*
X104261905Y-89261905D01*
X104214286Y-89357143D01*
X104166667Y-89404762D01*
X104071429Y-89452381D01*
X103785714Y-89452381D01*
X103690476Y-89404762D01*
X103642857Y-89357143D01*
X192666667Y-85298571D02*
X192333333Y-85298571D01*
X192333333Y-85822381D02*
X192333333Y-84822381D01*
X192809524Y-84822381D01*
X193714286Y-85822381D02*
X193142857Y-85822381D01*
X193428571Y-85822381D02*
X193428571Y-84822381D01*
X193333333Y-84965238D01*
X193238095Y-85060476D01*
X193142857Y-85108095D01*
X136452381Y-48333333D02*
X137166667Y-48333333D01*
X137309524Y-48380953D01*
X137404762Y-48476191D01*
X137452381Y-48619048D01*
X137452381Y-48714286D01*
X137452381Y-47333333D02*
X137452381Y-47904762D01*
X137452381Y-47619048D02*
X136452381Y-47619048D01*
X136595238Y-47714286D01*
X136690476Y-47809524D01*
X136738095Y-47904762D01*
X156452381Y-47833333D02*
X157166667Y-47833333D01*
X157309524Y-47880953D01*
X157404762Y-47976191D01*
X157452381Y-48119048D01*
X157452381Y-48214286D01*
X156547619Y-47404762D02*
X156500000Y-47357143D01*
X156452381Y-47261905D01*
X156452381Y-47023809D01*
X156500000Y-46928571D01*
X156547619Y-46880952D01*
X156642857Y-46833333D01*
X156738095Y-46833333D01*
X156880952Y-46880952D01*
X157452381Y-47452381D01*
X157452381Y-46833333D01*
X123452381Y-48333333D02*
X124166667Y-48333333D01*
X124309524Y-48380953D01*
X124404762Y-48476191D01*
X124452381Y-48619048D01*
X124452381Y-48714286D01*
X123452381Y-47952381D02*
X123452381Y-47333333D01*
X123833333Y-47666667D01*
X123833333Y-47523809D01*
X123880952Y-47428571D01*
X123928571Y-47380952D01*
X124023810Y-47333333D01*
X124261905Y-47333333D01*
X124357143Y-47380952D01*
X124404762Y-47428571D01*
X124452381Y-47523809D01*
X124452381Y-47809524D01*
X124404762Y-47904762D01*
X124357143Y-47952381D01*
X94452381Y-48333333D02*
X95166667Y-48333333D01*
X95309524Y-48380953D01*
X95404762Y-48476191D01*
X95452381Y-48619048D01*
X95452381Y-48714286D01*
X94785714Y-47428571D02*
X95452381Y-47428571D01*
X94404762Y-47666667D02*
X95119048Y-47904762D01*
X95119048Y-47285714D01*
X106452381Y-48333333D02*
X107166667Y-48333333D01*
X107309524Y-48380953D01*
X107404762Y-48476191D01*
X107452381Y-48619048D01*
X107452381Y-48714286D01*
X106452381Y-47380952D02*
X106452381Y-47857143D01*
X106928571Y-47904762D01*
X106880952Y-47857143D01*
X106833333Y-47761905D01*
X106833333Y-47523809D01*
X106880952Y-47428571D01*
X106928571Y-47380952D01*
X107023810Y-47333333D01*
X107261905Y-47333333D01*
X107357143Y-47380952D01*
X107404762Y-47428571D01*
X107452381Y-47523809D01*
X107452381Y-47761905D01*
X107404762Y-47857143D01*
X107357143Y-47904762D01*
X189952381Y-83333333D02*
X190666667Y-83333333D01*
X190809524Y-83380953D01*
X190904762Y-83476191D01*
X190952381Y-83619048D01*
X190952381Y-83714286D01*
X189952381Y-82428571D02*
X189952381Y-82619048D01*
X190000000Y-82714286D01*
X190047619Y-82761905D01*
X190190476Y-82857143D01*
X190380952Y-82904762D01*
X190761905Y-82904762D01*
X190857143Y-82857143D01*
X190904762Y-82809524D01*
X190952381Y-82714286D01*
X190952381Y-82523809D01*
X190904762Y-82428571D01*
X190857143Y-82380952D01*
X190761905Y-82333333D01*
X190523810Y-82333333D01*
X190428571Y-82380952D01*
X190380952Y-82428571D01*
X190333333Y-82523809D01*
X190333333Y-82714286D01*
X190380952Y-82809524D01*
X190428571Y-82857143D01*
X190523810Y-82904762D01*
X189702381Y-72083333D02*
X190416667Y-72083333D01*
X190559524Y-72130953D01*
X190654762Y-72226191D01*
X190702381Y-72369048D01*
X190702381Y-72464286D01*
X189702381Y-71702381D02*
X189702381Y-71035714D01*
X190702381Y-71464286D01*
X109666667Y-107452381D02*
X109666667Y-108166667D01*
X109619047Y-108309524D01*
X109523809Y-108404762D01*
X109380952Y-108452381D01*
X109285714Y-108452381D01*
X110285714Y-107880952D02*
X110190476Y-107833333D01*
X110142857Y-107785714D01*
X110095238Y-107690476D01*
X110095238Y-107642857D01*
X110142857Y-107547619D01*
X110190476Y-107500000D01*
X110285714Y-107452381D01*
X110476191Y-107452381D01*
X110571429Y-107500000D01*
X110619048Y-107547619D01*
X110666667Y-107642857D01*
X110666667Y-107690476D01*
X110619048Y-107785714D01*
X110571429Y-107833333D01*
X110476191Y-107880952D01*
X110285714Y-107880952D01*
X110190476Y-107928571D01*
X110142857Y-107976190D01*
X110095238Y-108071429D01*
X110095238Y-108261905D01*
X110142857Y-108357143D01*
X110190476Y-108404762D01*
X110285714Y-108452381D01*
X110476191Y-108452381D01*
X110571429Y-108404762D01*
X110619048Y-108357143D01*
X110666667Y-108261905D01*
X110666667Y-108071429D01*
X110619048Y-107976190D01*
X110571429Y-107928571D01*
X110476191Y-107880952D01*
X88952381Y-90583333D02*
X89666667Y-90583333D01*
X89809524Y-90630953D01*
X89904762Y-90726191D01*
X89952381Y-90869048D01*
X89952381Y-90964286D01*
X89952381Y-90059524D02*
X89952381Y-89869048D01*
X89904762Y-89773809D01*
X89857143Y-89726190D01*
X89714286Y-89630952D01*
X89523810Y-89583333D01*
X89142857Y-89583333D01*
X89047619Y-89630952D01*
X89000000Y-89678571D01*
X88952381Y-89773809D01*
X88952381Y-89964286D01*
X89000000Y-90059524D01*
X89047619Y-90107143D01*
X89142857Y-90154762D01*
X89380952Y-90154762D01*
X89476190Y-90107143D01*
X89523810Y-90059524D01*
X89571429Y-89964286D01*
X89571429Y-89773809D01*
X89523810Y-89678571D01*
X89476190Y-89630952D01*
X89380952Y-89583333D01*
X88952381Y-63559523D02*
X89666667Y-63559523D01*
X89809524Y-63607143D01*
X89904762Y-63702381D01*
X89952381Y-63845238D01*
X89952381Y-63940476D01*
X89952381Y-62559523D02*
X89952381Y-63130952D01*
X89952381Y-62845238D02*
X88952381Y-62845238D01*
X89095238Y-62940476D01*
X89190476Y-63035714D01*
X89238095Y-63130952D01*
X88952381Y-61940476D02*
X88952381Y-61845237D01*
X89000000Y-61749999D01*
X89047619Y-61702380D01*
X89142857Y-61654761D01*
X89333333Y-61607142D01*
X89571429Y-61607142D01*
X89761905Y-61654761D01*
X89857143Y-61702380D01*
X89904762Y-61749999D01*
X89952381Y-61845237D01*
X89952381Y-61940476D01*
X89904762Y-62035714D01*
X89857143Y-62083333D01*
X89761905Y-62130952D01*
X89571429Y-62178571D01*
X89333333Y-62178571D01*
X89142857Y-62130952D01*
X89047619Y-62083333D01*
X89000000Y-62035714D01*
X88952381Y-61940476D01*
X187452381Y-103809523D02*
X188166667Y-103809523D01*
X188309524Y-103857143D01*
X188404762Y-103952381D01*
X188452381Y-104095238D01*
X188452381Y-104190476D01*
X188452381Y-102809523D02*
X188452381Y-103380952D01*
X188452381Y-103095238D02*
X187452381Y-103095238D01*
X187595238Y-103190476D01*
X187690476Y-103285714D01*
X187738095Y-103380952D01*
X188452381Y-101857142D02*
X188452381Y-102428571D01*
X188452381Y-102142857D02*
X187452381Y-102142857D01*
X187595238Y-102238095D01*
X187690476Y-102333333D01*
X187738095Y-102428571D01*
X187202381Y-60059523D02*
X187916667Y-60059523D01*
X188059524Y-60107143D01*
X188154762Y-60202381D01*
X188202381Y-60345238D01*
X188202381Y-60440476D01*
X188202381Y-59059523D02*
X188202381Y-59630952D01*
X188202381Y-59345238D02*
X187202381Y-59345238D01*
X187345238Y-59440476D01*
X187440476Y-59535714D01*
X187488095Y-59630952D01*
X187297619Y-58678571D02*
X187250000Y-58630952D01*
X187202381Y-58535714D01*
X187202381Y-58297618D01*
X187250000Y-58202380D01*
X187297619Y-58154761D01*
X187392857Y-58107142D01*
X187488095Y-58107142D01*
X187630952Y-58154761D01*
X188202381Y-58726190D01*
X188202381Y-58107142D01*
D17*
X123166102Y-103452010D02*
X123166102Y-104166779D01*
X123118451Y-104309733D01*
X123023148Y-104405035D01*
X122880194Y-104452687D01*
X122784892Y-104452687D01*
X123642615Y-104452687D02*
X123642615Y-103452010D01*
X124023826Y-103452010D01*
X124119128Y-103499661D01*
X124166780Y-103547312D01*
X124214431Y-103642615D01*
X124214431Y-103785569D01*
X124166780Y-103880871D01*
X124119128Y-103928523D01*
X124023826Y-103976174D01*
X123642615Y-103976174D01*
X125167457Y-104452687D02*
X124595641Y-104452687D01*
X124881549Y-104452687D02*
X124881549Y-103452010D01*
X124786246Y-103594964D01*
X124690944Y-103690266D01*
X124595641Y-103737917D01*
D15*
X135166667Y-103452381D02*
X135166667Y-104166667D01*
X135119047Y-104309524D01*
X135023809Y-104404762D01*
X134880952Y-104452381D01*
X134785714Y-104452381D01*
X135642857Y-104452381D02*
X135642857Y-103452381D01*
X136023810Y-103452381D01*
X136119048Y-103500000D01*
X136166667Y-103547619D01*
X136214286Y-103642857D01*
X136214286Y-103785714D01*
X136166667Y-103880952D01*
X136119048Y-103928571D01*
X136023810Y-103976190D01*
X135642857Y-103976190D01*
X136595238Y-103547619D02*
X136642857Y-103500000D01*
X136738095Y-103452381D01*
X136976191Y-103452381D01*
X137071429Y-103500000D01*
X137119048Y-103547619D01*
X137166667Y-103642857D01*
X137166667Y-103738095D01*
X137119048Y-103880952D01*
X136547619Y-104452381D01*
X137166667Y-104452381D01*
D18*
X170507619Y-64884524D02*
X170507619Y-63614524D01*
X171233333Y-64884524D02*
X170689048Y-64158810D01*
X171233333Y-63614524D02*
X170507619Y-64340238D01*
X172442857Y-64884524D02*
X171717143Y-64884524D01*
X172080000Y-64884524D02*
X172080000Y-63614524D01*
X171959048Y-63795952D01*
X171838095Y-63916905D01*
X171717143Y-63977381D01*
X170507619Y-81384524D02*
X170507619Y-80114524D01*
X171233333Y-81384524D02*
X170689048Y-80658810D01*
X171233333Y-80114524D02*
X170507619Y-80840238D01*
X171717143Y-80235476D02*
X171777619Y-80175000D01*
X171898571Y-80114524D01*
X172200952Y-80114524D01*
X172321905Y-80175000D01*
X172382381Y-80235476D01*
X172442857Y-80356429D01*
X172442857Y-80477381D01*
X172382381Y-80658810D01*
X171656667Y-81384524D01*
X172442857Y-81384524D01*
D15*
X127333334Y-100252381D02*
X127000000Y-99776190D01*
X126761905Y-100252381D02*
X126761905Y-99252381D01*
X127142858Y-99252381D01*
X127238096Y-99300000D01*
X127285715Y-99347619D01*
X127333334Y-99442857D01*
X127333334Y-99585714D01*
X127285715Y-99680952D01*
X127238096Y-99728571D01*
X127142858Y-99776190D01*
X126761905Y-99776190D01*
X128285715Y-100252381D02*
X127714286Y-100252381D01*
X128000000Y-100252381D02*
X128000000Y-99252381D01*
X127904762Y-99395238D01*
X127809524Y-99490476D01*
X127714286Y-99538095D01*
X133333334Y-100402381D02*
X133000000Y-99926190D01*
X132761905Y-100402381D02*
X132761905Y-99402381D01*
X133142858Y-99402381D01*
X133238096Y-99450000D01*
X133285715Y-99497619D01*
X133333334Y-99592857D01*
X133333334Y-99735714D01*
X133285715Y-99830952D01*
X133238096Y-99878571D01*
X133142858Y-99926190D01*
X132761905Y-99926190D01*
X133714286Y-99497619D02*
X133761905Y-99450000D01*
X133857143Y-99402381D01*
X134095239Y-99402381D01*
X134190477Y-99450000D01*
X134238096Y-99497619D01*
X134285715Y-99592857D01*
X134285715Y-99688095D01*
X134238096Y-99830952D01*
X133666667Y-100402381D01*
X134285715Y-100402381D01*
X105402381Y-83166666D02*
X104926190Y-83500000D01*
X105402381Y-83738095D02*
X104402381Y-83738095D01*
X104402381Y-83357142D01*
X104450000Y-83261904D01*
X104497619Y-83214285D01*
X104592857Y-83166666D01*
X104735714Y-83166666D01*
X104830952Y-83214285D01*
X104878571Y-83261904D01*
X104926190Y-83357142D01*
X104926190Y-83738095D01*
X104402381Y-82833333D02*
X104402381Y-82214285D01*
X104783333Y-82547619D01*
X104783333Y-82404761D01*
X104830952Y-82309523D01*
X104878571Y-82261904D01*
X104973810Y-82214285D01*
X105211905Y-82214285D01*
X105307143Y-82261904D01*
X105354762Y-82309523D01*
X105402381Y-82404761D01*
X105402381Y-82690476D01*
X105354762Y-82785714D01*
X105307143Y-82833333D01*
X103502381Y-68666666D02*
X103026190Y-69000000D01*
X103502381Y-69238095D02*
X102502381Y-69238095D01*
X102502381Y-68857142D01*
X102550000Y-68761904D01*
X102597619Y-68714285D01*
X102692857Y-68666666D01*
X102835714Y-68666666D01*
X102930952Y-68714285D01*
X102978571Y-68761904D01*
X103026190Y-68857142D01*
X103026190Y-69238095D01*
X102835714Y-67809523D02*
X103502381Y-67809523D01*
X102454762Y-68047619D02*
X103169048Y-68285714D01*
X103169048Y-67666666D01*
X148452381Y-55166666D02*
X147976190Y-55500000D01*
X148452381Y-55738095D02*
X147452381Y-55738095D01*
X147452381Y-55357142D01*
X147500000Y-55261904D01*
X147547619Y-55214285D01*
X147642857Y-55166666D01*
X147785714Y-55166666D01*
X147880952Y-55214285D01*
X147928571Y-55261904D01*
X147976190Y-55357142D01*
X147976190Y-55738095D01*
X147452381Y-54261904D02*
X147452381Y-54738095D01*
X147928571Y-54785714D01*
X147880952Y-54738095D01*
X147833333Y-54642857D01*
X147833333Y-54404761D01*
X147880952Y-54309523D01*
X147928571Y-54261904D01*
X148023810Y-54214285D01*
X148261905Y-54214285D01*
X148357143Y-54261904D01*
X148404762Y-54309523D01*
X148452381Y-54404761D01*
X148452381Y-54642857D01*
X148404762Y-54738095D01*
X148357143Y-54785714D01*
X146452381Y-55166666D02*
X145976190Y-55500000D01*
X146452381Y-55738095D02*
X145452381Y-55738095D01*
X145452381Y-55357142D01*
X145500000Y-55261904D01*
X145547619Y-55214285D01*
X145642857Y-55166666D01*
X145785714Y-55166666D01*
X145880952Y-55214285D01*
X145928571Y-55261904D01*
X145976190Y-55357142D01*
X145976190Y-55738095D01*
X145452381Y-54309523D02*
X145452381Y-54500000D01*
X145500000Y-54595238D01*
X145547619Y-54642857D01*
X145690476Y-54738095D01*
X145880952Y-54785714D01*
X146261905Y-54785714D01*
X146357143Y-54738095D01*
X146404762Y-54690476D01*
X146452381Y-54595238D01*
X146452381Y-54404761D01*
X146404762Y-54309523D01*
X146357143Y-54261904D01*
X146261905Y-54214285D01*
X146023810Y-54214285D01*
X145928571Y-54261904D01*
X145880952Y-54309523D01*
X145833333Y-54404761D01*
X145833333Y-54595238D01*
X145880952Y-54690476D01*
X145928571Y-54738095D01*
X146023810Y-54785714D01*
X143452381Y-55166666D02*
X142976190Y-55500000D01*
X143452381Y-55738095D02*
X142452381Y-55738095D01*
X142452381Y-55357142D01*
X142500000Y-55261904D01*
X142547619Y-55214285D01*
X142642857Y-55166666D01*
X142785714Y-55166666D01*
X142880952Y-55214285D01*
X142928571Y-55261904D01*
X142976190Y-55357142D01*
X142976190Y-55738095D01*
X142452381Y-54833333D02*
X142452381Y-54166666D01*
X143452381Y-54595238D01*
X141452381Y-55166666D02*
X140976190Y-55500000D01*
X141452381Y-55738095D02*
X140452381Y-55738095D01*
X140452381Y-55357142D01*
X140500000Y-55261904D01*
X140547619Y-55214285D01*
X140642857Y-55166666D01*
X140785714Y-55166666D01*
X140880952Y-55214285D01*
X140928571Y-55261904D01*
X140976190Y-55357142D01*
X140976190Y-55738095D01*
X140880952Y-54595238D02*
X140833333Y-54690476D01*
X140785714Y-54738095D01*
X140690476Y-54785714D01*
X140642857Y-54785714D01*
X140547619Y-54738095D01*
X140500000Y-54690476D01*
X140452381Y-54595238D01*
X140452381Y-54404761D01*
X140500000Y-54309523D01*
X140547619Y-54261904D01*
X140642857Y-54214285D01*
X140690476Y-54214285D01*
X140785714Y-54261904D01*
X140833333Y-54309523D01*
X140880952Y-54404761D01*
X140880952Y-54595238D01*
X140928571Y-54690476D01*
X140976190Y-54738095D01*
X141071429Y-54785714D01*
X141261905Y-54785714D01*
X141357143Y-54738095D01*
X141404762Y-54690476D01*
X141452381Y-54595238D01*
X141452381Y-54404761D01*
X141404762Y-54309523D01*
X141357143Y-54261904D01*
X141261905Y-54214285D01*
X141071429Y-54214285D01*
X140976190Y-54261904D01*
X140928571Y-54309523D01*
X140880952Y-54404761D01*
X166452381Y-55166666D02*
X165976190Y-55500000D01*
X166452381Y-55738095D02*
X165452381Y-55738095D01*
X165452381Y-55357142D01*
X165500000Y-55261904D01*
X165547619Y-55214285D01*
X165642857Y-55166666D01*
X165785714Y-55166666D01*
X165880952Y-55214285D01*
X165928571Y-55261904D01*
X165976190Y-55357142D01*
X165976190Y-55738095D01*
X166452381Y-54690476D02*
X166452381Y-54500000D01*
X166404762Y-54404761D01*
X166357143Y-54357142D01*
X166214286Y-54261904D01*
X166023810Y-54214285D01*
X165642857Y-54214285D01*
X165547619Y-54261904D01*
X165500000Y-54309523D01*
X165452381Y-54404761D01*
X165452381Y-54595238D01*
X165500000Y-54690476D01*
X165547619Y-54738095D01*
X165642857Y-54785714D01*
X165880952Y-54785714D01*
X165976190Y-54738095D01*
X166023810Y-54690476D01*
X166071429Y-54595238D01*
X166071429Y-54404761D01*
X166023810Y-54309523D01*
X165976190Y-54261904D01*
X165880952Y-54214285D01*
X163452381Y-55642857D02*
X162976190Y-55976191D01*
X163452381Y-56214286D02*
X162452381Y-56214286D01*
X162452381Y-55833333D01*
X162500000Y-55738095D01*
X162547619Y-55690476D01*
X162642857Y-55642857D01*
X162785714Y-55642857D01*
X162880952Y-55690476D01*
X162928571Y-55738095D01*
X162976190Y-55833333D01*
X162976190Y-56214286D01*
X163452381Y-54690476D02*
X163452381Y-55261905D01*
X163452381Y-54976191D02*
X162452381Y-54976191D01*
X162595238Y-55071429D01*
X162690476Y-55166667D01*
X162738095Y-55261905D01*
X162452381Y-54071429D02*
X162452381Y-53976190D01*
X162500000Y-53880952D01*
X162547619Y-53833333D01*
X162642857Y-53785714D01*
X162833333Y-53738095D01*
X163071429Y-53738095D01*
X163261905Y-53785714D01*
X163357143Y-53833333D01*
X163404762Y-53880952D01*
X163452381Y-53976190D01*
X163452381Y-54071429D01*
X163404762Y-54166667D01*
X163357143Y-54214286D01*
X163261905Y-54261905D01*
X163071429Y-54309524D01*
X162833333Y-54309524D01*
X162642857Y-54261905D01*
X162547619Y-54214286D01*
X162500000Y-54166667D01*
X162452381Y-54071429D01*
X161452381Y-55642857D02*
X160976190Y-55976191D01*
X161452381Y-56214286D02*
X160452381Y-56214286D01*
X160452381Y-55833333D01*
X160500000Y-55738095D01*
X160547619Y-55690476D01*
X160642857Y-55642857D01*
X160785714Y-55642857D01*
X160880952Y-55690476D01*
X160928571Y-55738095D01*
X160976190Y-55833333D01*
X160976190Y-56214286D01*
X161452381Y-54690476D02*
X161452381Y-55261905D01*
X161452381Y-54976191D02*
X160452381Y-54976191D01*
X160595238Y-55071429D01*
X160690476Y-55166667D01*
X160738095Y-55261905D01*
X161452381Y-53738095D02*
X161452381Y-54309524D01*
X161452381Y-54023810D02*
X160452381Y-54023810D01*
X160595238Y-54119048D01*
X160690476Y-54214286D01*
X160738095Y-54309524D01*
X131452381Y-56642857D02*
X130976190Y-56976191D01*
X131452381Y-57214286D02*
X130452381Y-57214286D01*
X130452381Y-56833333D01*
X130500000Y-56738095D01*
X130547619Y-56690476D01*
X130642857Y-56642857D01*
X130785714Y-56642857D01*
X130880952Y-56690476D01*
X130928571Y-56738095D01*
X130976190Y-56833333D01*
X130976190Y-57214286D01*
X131452381Y-55690476D02*
X131452381Y-56261905D01*
X131452381Y-55976191D02*
X130452381Y-55976191D01*
X130595238Y-56071429D01*
X130690476Y-56166667D01*
X130738095Y-56261905D01*
X130547619Y-55309524D02*
X130500000Y-55261905D01*
X130452381Y-55166667D01*
X130452381Y-54928571D01*
X130500000Y-54833333D01*
X130547619Y-54785714D01*
X130642857Y-54738095D01*
X130738095Y-54738095D01*
X130880952Y-54785714D01*
X131452381Y-55357143D01*
X131452381Y-54738095D01*
X128452381Y-56642857D02*
X127976190Y-56976191D01*
X128452381Y-57214286D02*
X127452381Y-57214286D01*
X127452381Y-56833333D01*
X127500000Y-56738095D01*
X127547619Y-56690476D01*
X127642857Y-56642857D01*
X127785714Y-56642857D01*
X127880952Y-56690476D01*
X127928571Y-56738095D01*
X127976190Y-56833333D01*
X127976190Y-57214286D01*
X128452381Y-55690476D02*
X128452381Y-56261905D01*
X128452381Y-55976191D02*
X127452381Y-55976191D01*
X127595238Y-56071429D01*
X127690476Y-56166667D01*
X127738095Y-56261905D01*
X127452381Y-55357143D02*
X127452381Y-54738095D01*
X127833333Y-55071429D01*
X127833333Y-54928571D01*
X127880952Y-54833333D01*
X127928571Y-54785714D01*
X128023810Y-54738095D01*
X128261905Y-54738095D01*
X128357143Y-54785714D01*
X128404762Y-54833333D01*
X128452381Y-54928571D01*
X128452381Y-55214286D01*
X128404762Y-55309524D01*
X128357143Y-55357143D01*
X103452381Y-53642857D02*
X102976190Y-53976191D01*
X103452381Y-54214286D02*
X102452381Y-54214286D01*
X102452381Y-53833333D01*
X102500000Y-53738095D01*
X102547619Y-53690476D01*
X102642857Y-53642857D01*
X102785714Y-53642857D01*
X102880952Y-53690476D01*
X102928571Y-53738095D01*
X102976190Y-53833333D01*
X102976190Y-54214286D01*
X103452381Y-52690476D02*
X103452381Y-53261905D01*
X103452381Y-52976191D02*
X102452381Y-52976191D01*
X102595238Y-53071429D01*
X102690476Y-53166667D01*
X102738095Y-53261905D01*
X102785714Y-51833333D02*
X103452381Y-51833333D01*
X102404762Y-52071429D02*
X103119048Y-52309524D01*
X103119048Y-51690476D01*
X98002381Y-53392857D02*
X97526190Y-53726191D01*
X98002381Y-53964286D02*
X97002381Y-53964286D01*
X97002381Y-53583333D01*
X97050000Y-53488095D01*
X97097619Y-53440476D01*
X97192857Y-53392857D01*
X97335714Y-53392857D01*
X97430952Y-53440476D01*
X97478571Y-53488095D01*
X97526190Y-53583333D01*
X97526190Y-53964286D01*
X98002381Y-52440476D02*
X98002381Y-53011905D01*
X98002381Y-52726191D02*
X97002381Y-52726191D01*
X97145238Y-52821429D01*
X97240476Y-52916667D01*
X97288095Y-53011905D01*
X97002381Y-51535714D02*
X97002381Y-52011905D01*
X97478571Y-52059524D01*
X97430952Y-52011905D01*
X97383333Y-51916667D01*
X97383333Y-51678571D01*
X97430952Y-51583333D01*
X97478571Y-51535714D01*
X97573810Y-51488095D01*
X97811905Y-51488095D01*
X97907143Y-51535714D01*
X97954762Y-51583333D01*
X98002381Y-51678571D01*
X98002381Y-51916667D01*
X97954762Y-52011905D01*
X97907143Y-52059524D01*
X112502381Y-53642857D02*
X112026190Y-53976191D01*
X112502381Y-54214286D02*
X111502381Y-54214286D01*
X111502381Y-53833333D01*
X111550000Y-53738095D01*
X111597619Y-53690476D01*
X111692857Y-53642857D01*
X111835714Y-53642857D01*
X111930952Y-53690476D01*
X111978571Y-53738095D01*
X112026190Y-53833333D01*
X112026190Y-54214286D01*
X112502381Y-52690476D02*
X112502381Y-53261905D01*
X112502381Y-52976191D02*
X111502381Y-52976191D01*
X111645238Y-53071429D01*
X111740476Y-53166667D01*
X111788095Y-53261905D01*
X111502381Y-51833333D02*
X111502381Y-52023810D01*
X111550000Y-52119048D01*
X111597619Y-52166667D01*
X111740476Y-52261905D01*
X111930952Y-52309524D01*
X112311905Y-52309524D01*
X112407143Y-52261905D01*
X112454762Y-52214286D01*
X112502381Y-52119048D01*
X112502381Y-51928571D01*
X112454762Y-51833333D01*
X112407143Y-51785714D01*
X112311905Y-51738095D01*
X112073810Y-51738095D01*
X111978571Y-51785714D01*
X111930952Y-51833333D01*
X111883333Y-51928571D01*
X111883333Y-52119048D01*
X111930952Y-52214286D01*
X111978571Y-52261905D01*
X112073810Y-52309524D01*
X110002381Y-53642857D02*
X109526190Y-53976191D01*
X110002381Y-54214286D02*
X109002381Y-54214286D01*
X109002381Y-53833333D01*
X109050000Y-53738095D01*
X109097619Y-53690476D01*
X109192857Y-53642857D01*
X109335714Y-53642857D01*
X109430952Y-53690476D01*
X109478571Y-53738095D01*
X109526190Y-53833333D01*
X109526190Y-54214286D01*
X110002381Y-52690476D02*
X110002381Y-53261905D01*
X110002381Y-52976191D02*
X109002381Y-52976191D01*
X109145238Y-53071429D01*
X109240476Y-53166667D01*
X109288095Y-53261905D01*
X109002381Y-52357143D02*
X109002381Y-51690476D01*
X110002381Y-52119048D01*
X108452381Y-93642857D02*
X107976190Y-93976191D01*
X108452381Y-94214286D02*
X107452381Y-94214286D01*
X107452381Y-93833333D01*
X107500000Y-93738095D01*
X107547619Y-93690476D01*
X107642857Y-93642857D01*
X107785714Y-93642857D01*
X107880952Y-93690476D01*
X107928571Y-93738095D01*
X107976190Y-93833333D01*
X107976190Y-94214286D01*
X108452381Y-92690476D02*
X108452381Y-93261905D01*
X108452381Y-92976191D02*
X107452381Y-92976191D01*
X107595238Y-93071429D01*
X107690476Y-93166667D01*
X107738095Y-93261905D01*
X107880952Y-92119048D02*
X107833333Y-92214286D01*
X107785714Y-92261905D01*
X107690476Y-92309524D01*
X107642857Y-92309524D01*
X107547619Y-92261905D01*
X107500000Y-92214286D01*
X107452381Y-92119048D01*
X107452381Y-91928571D01*
X107500000Y-91833333D01*
X107547619Y-91785714D01*
X107642857Y-91738095D01*
X107690476Y-91738095D01*
X107785714Y-91785714D01*
X107833333Y-91833333D01*
X107880952Y-91928571D01*
X107880952Y-92119048D01*
X107928571Y-92214286D01*
X107976190Y-92261905D01*
X108071429Y-92309524D01*
X108261905Y-92309524D01*
X108357143Y-92261905D01*
X108404762Y-92214286D01*
X108452381Y-92119048D01*
X108452381Y-91928571D01*
X108404762Y-91833333D01*
X108357143Y-91785714D01*
X108261905Y-91738095D01*
X108071429Y-91738095D01*
X107976190Y-91785714D01*
X107928571Y-91833333D01*
X107880952Y-91928571D01*
X112452381Y-93642857D02*
X111976190Y-93976191D01*
X112452381Y-94214286D02*
X111452381Y-94214286D01*
X111452381Y-93833333D01*
X111500000Y-93738095D01*
X111547619Y-93690476D01*
X111642857Y-93642857D01*
X111785714Y-93642857D01*
X111880952Y-93690476D01*
X111928571Y-93738095D01*
X111976190Y-93833333D01*
X111976190Y-94214286D01*
X112452381Y-92690476D02*
X112452381Y-93261905D01*
X112452381Y-92976191D02*
X111452381Y-92976191D01*
X111595238Y-93071429D01*
X111690476Y-93166667D01*
X111738095Y-93261905D01*
X112452381Y-92214286D02*
X112452381Y-92023810D01*
X112404762Y-91928571D01*
X112357143Y-91880952D01*
X112214286Y-91785714D01*
X112023810Y-91738095D01*
X111642857Y-91738095D01*
X111547619Y-91785714D01*
X111500000Y-91833333D01*
X111452381Y-91928571D01*
X111452381Y-92119048D01*
X111500000Y-92214286D01*
X111547619Y-92261905D01*
X111642857Y-92309524D01*
X111880952Y-92309524D01*
X111976190Y-92261905D01*
X112023810Y-92214286D01*
X112071429Y-92119048D01*
X112071429Y-91928571D01*
X112023810Y-91833333D01*
X111976190Y-91785714D01*
X111880952Y-91738095D01*
X110452381Y-93642857D02*
X109976190Y-93976191D01*
X110452381Y-94214286D02*
X109452381Y-94214286D01*
X109452381Y-93833333D01*
X109500000Y-93738095D01*
X109547619Y-93690476D01*
X109642857Y-93642857D01*
X109785714Y-93642857D01*
X109880952Y-93690476D01*
X109928571Y-93738095D01*
X109976190Y-93833333D01*
X109976190Y-94214286D01*
X109547619Y-93261905D02*
X109500000Y-93214286D01*
X109452381Y-93119048D01*
X109452381Y-92880952D01*
X109500000Y-92785714D01*
X109547619Y-92738095D01*
X109642857Y-92690476D01*
X109738095Y-92690476D01*
X109880952Y-92738095D01*
X110452381Y-93309524D01*
X110452381Y-92690476D01*
X109452381Y-92071429D02*
X109452381Y-91976190D01*
X109500000Y-91880952D01*
X109547619Y-91833333D01*
X109642857Y-91785714D01*
X109833333Y-91738095D01*
X110071429Y-91738095D01*
X110261905Y-91785714D01*
X110357143Y-91833333D01*
X110404762Y-91880952D01*
X110452381Y-91976190D01*
X110452381Y-92071429D01*
X110404762Y-92166667D01*
X110357143Y-92214286D01*
X110261905Y-92261905D01*
X110071429Y-92309524D01*
X109833333Y-92309524D01*
X109642857Y-92261905D01*
X109547619Y-92214286D01*
X109500000Y-92166667D01*
X109452381Y-92071429D01*
X97357143Y-89452381D02*
X97023809Y-88976190D01*
X96785714Y-89452381D02*
X96785714Y-88452381D01*
X97166667Y-88452381D01*
X97261905Y-88500000D01*
X97309524Y-88547619D01*
X97357143Y-88642857D01*
X97357143Y-88785714D01*
X97309524Y-88880952D01*
X97261905Y-88928571D01*
X97166667Y-88976190D01*
X96785714Y-88976190D01*
X97738095Y-88547619D02*
X97785714Y-88500000D01*
X97880952Y-88452381D01*
X98119048Y-88452381D01*
X98214286Y-88500000D01*
X98261905Y-88547619D01*
X98309524Y-88642857D01*
X98309524Y-88738095D01*
X98261905Y-88880952D01*
X97690476Y-89452381D01*
X98309524Y-89452381D01*
X99261905Y-89452381D02*
X98690476Y-89452381D01*
X98976190Y-89452381D02*
X98976190Y-88452381D01*
X98880952Y-88595238D01*
X98785714Y-88690476D01*
X98690476Y-88738095D01*
X92452381Y-93642857D02*
X91976190Y-93976191D01*
X92452381Y-94214286D02*
X91452381Y-94214286D01*
X91452381Y-93833333D01*
X91500000Y-93738095D01*
X91547619Y-93690476D01*
X91642857Y-93642857D01*
X91785714Y-93642857D01*
X91880952Y-93690476D01*
X91928571Y-93738095D01*
X91976190Y-93833333D01*
X91976190Y-94214286D01*
X91547619Y-93261905D02*
X91500000Y-93214286D01*
X91452381Y-93119048D01*
X91452381Y-92880952D01*
X91500000Y-92785714D01*
X91547619Y-92738095D01*
X91642857Y-92690476D01*
X91738095Y-92690476D01*
X91880952Y-92738095D01*
X92452381Y-93309524D01*
X92452381Y-92690476D01*
X91547619Y-92309524D02*
X91500000Y-92261905D01*
X91452381Y-92166667D01*
X91452381Y-91928571D01*
X91500000Y-91833333D01*
X91547619Y-91785714D01*
X91642857Y-91738095D01*
X91738095Y-91738095D01*
X91880952Y-91785714D01*
X92452381Y-92357143D01*
X92452381Y-91738095D01*
X90452381Y-93642857D02*
X89976190Y-93976191D01*
X90452381Y-94214286D02*
X89452381Y-94214286D01*
X89452381Y-93833333D01*
X89500000Y-93738095D01*
X89547619Y-93690476D01*
X89642857Y-93642857D01*
X89785714Y-93642857D01*
X89880952Y-93690476D01*
X89928571Y-93738095D01*
X89976190Y-93833333D01*
X89976190Y-94214286D01*
X89547619Y-93261905D02*
X89500000Y-93214286D01*
X89452381Y-93119048D01*
X89452381Y-92880952D01*
X89500000Y-92785714D01*
X89547619Y-92738095D01*
X89642857Y-92690476D01*
X89738095Y-92690476D01*
X89880952Y-92738095D01*
X90452381Y-93309524D01*
X90452381Y-92690476D01*
X89452381Y-92357143D02*
X89452381Y-91738095D01*
X89833333Y-92071429D01*
X89833333Y-91928571D01*
X89880952Y-91833333D01*
X89928571Y-91785714D01*
X90023810Y-91738095D01*
X90261905Y-91738095D01*
X90357143Y-91785714D01*
X90404762Y-91833333D01*
X90452381Y-91928571D01*
X90452381Y-92214286D01*
X90404762Y-92309524D01*
X90357143Y-92357143D01*
X92402381Y-103142857D02*
X91926190Y-103476191D01*
X92402381Y-103714286D02*
X91402381Y-103714286D01*
X91402381Y-103333333D01*
X91450000Y-103238095D01*
X91497619Y-103190476D01*
X91592857Y-103142857D01*
X91735714Y-103142857D01*
X91830952Y-103190476D01*
X91878571Y-103238095D01*
X91926190Y-103333333D01*
X91926190Y-103714286D01*
X91497619Y-102761905D02*
X91450000Y-102714286D01*
X91402381Y-102619048D01*
X91402381Y-102380952D01*
X91450000Y-102285714D01*
X91497619Y-102238095D01*
X91592857Y-102190476D01*
X91688095Y-102190476D01*
X91830952Y-102238095D01*
X92402381Y-102809524D01*
X92402381Y-102190476D01*
X91735714Y-101333333D02*
X92402381Y-101333333D01*
X91354762Y-101571429D02*
X92069048Y-101809524D01*
X92069048Y-101190476D01*
X118357143Y-97202381D02*
X118023809Y-96726190D01*
X117785714Y-97202381D02*
X117785714Y-96202381D01*
X118166667Y-96202381D01*
X118261905Y-96250000D01*
X118309524Y-96297619D01*
X118357143Y-96392857D01*
X118357143Y-96535714D01*
X118309524Y-96630952D01*
X118261905Y-96678571D01*
X118166667Y-96726190D01*
X117785714Y-96726190D01*
X118738095Y-96297619D02*
X118785714Y-96250000D01*
X118880952Y-96202381D01*
X119119048Y-96202381D01*
X119214286Y-96250000D01*
X119261905Y-96297619D01*
X119309524Y-96392857D01*
X119309524Y-96488095D01*
X119261905Y-96630952D01*
X118690476Y-97202381D01*
X119309524Y-97202381D01*
X120214286Y-96202381D02*
X119738095Y-96202381D01*
X119690476Y-96678571D01*
X119738095Y-96630952D01*
X119833333Y-96583333D01*
X120071429Y-96583333D01*
X120166667Y-96630952D01*
X120214286Y-96678571D01*
X120261905Y-96773810D01*
X120261905Y-97011905D01*
X120214286Y-97107143D01*
X120166667Y-97154762D01*
X120071429Y-97202381D01*
X119833333Y-97202381D01*
X119738095Y-97154762D01*
X119690476Y-97107143D01*
X118357143Y-94452381D02*
X118023809Y-93976190D01*
X117785714Y-94452381D02*
X117785714Y-93452381D01*
X118166667Y-93452381D01*
X118261905Y-93500000D01*
X118309524Y-93547619D01*
X118357143Y-93642857D01*
X118357143Y-93785714D01*
X118309524Y-93880952D01*
X118261905Y-93928571D01*
X118166667Y-93976190D01*
X117785714Y-93976190D01*
X118738095Y-93547619D02*
X118785714Y-93500000D01*
X118880952Y-93452381D01*
X119119048Y-93452381D01*
X119214286Y-93500000D01*
X119261905Y-93547619D01*
X119309524Y-93642857D01*
X119309524Y-93738095D01*
X119261905Y-93880952D01*
X118690476Y-94452381D01*
X119309524Y-94452381D01*
X120166667Y-93452381D02*
X119976190Y-93452381D01*
X119880952Y-93500000D01*
X119833333Y-93547619D01*
X119738095Y-93690476D01*
X119690476Y-93880952D01*
X119690476Y-94261905D01*
X119738095Y-94357143D01*
X119785714Y-94404762D01*
X119880952Y-94452381D01*
X120071429Y-94452381D01*
X120166667Y-94404762D01*
X120214286Y-94357143D01*
X120261905Y-94261905D01*
X120261905Y-94023810D01*
X120214286Y-93928571D01*
X120166667Y-93880952D01*
X120071429Y-93833333D01*
X119880952Y-93833333D01*
X119785714Y-93880952D01*
X119738095Y-93928571D01*
X119690476Y-94023810D01*
X118357143Y-91702381D02*
X118023809Y-91226190D01*
X117785714Y-91702381D02*
X117785714Y-90702381D01*
X118166667Y-90702381D01*
X118261905Y-90750000D01*
X118309524Y-90797619D01*
X118357143Y-90892857D01*
X118357143Y-91035714D01*
X118309524Y-91130952D01*
X118261905Y-91178571D01*
X118166667Y-91226190D01*
X117785714Y-91226190D01*
X118738095Y-90797619D02*
X118785714Y-90750000D01*
X118880952Y-90702381D01*
X119119048Y-90702381D01*
X119214286Y-90750000D01*
X119261905Y-90797619D01*
X119309524Y-90892857D01*
X119309524Y-90988095D01*
X119261905Y-91130952D01*
X118690476Y-91702381D01*
X119309524Y-91702381D01*
X119642857Y-90702381D02*
X120309524Y-90702381D01*
X119880952Y-91702381D01*
X118357143Y-88452381D02*
X118023809Y-87976190D01*
X117785714Y-88452381D02*
X117785714Y-87452381D01*
X118166667Y-87452381D01*
X118261905Y-87500000D01*
X118309524Y-87547619D01*
X118357143Y-87642857D01*
X118357143Y-87785714D01*
X118309524Y-87880952D01*
X118261905Y-87928571D01*
X118166667Y-87976190D01*
X117785714Y-87976190D01*
X118738095Y-87547619D02*
X118785714Y-87500000D01*
X118880952Y-87452381D01*
X119119048Y-87452381D01*
X119214286Y-87500000D01*
X119261905Y-87547619D01*
X119309524Y-87642857D01*
X119309524Y-87738095D01*
X119261905Y-87880952D01*
X118690476Y-88452381D01*
X119309524Y-88452381D01*
X119880952Y-87880952D02*
X119785714Y-87833333D01*
X119738095Y-87785714D01*
X119690476Y-87690476D01*
X119690476Y-87642857D01*
X119738095Y-87547619D01*
X119785714Y-87500000D01*
X119880952Y-87452381D01*
X120071429Y-87452381D01*
X120166667Y-87500000D01*
X120214286Y-87547619D01*
X120261905Y-87642857D01*
X120261905Y-87690476D01*
X120214286Y-87785714D01*
X120166667Y-87833333D01*
X120071429Y-87880952D01*
X119880952Y-87880952D01*
X119785714Y-87928571D01*
X119738095Y-87976190D01*
X119690476Y-88071429D01*
X119690476Y-88261905D01*
X119738095Y-88357143D01*
X119785714Y-88404762D01*
X119880952Y-88452381D01*
X120071429Y-88452381D01*
X120166667Y-88404762D01*
X120214286Y-88357143D01*
X120261905Y-88261905D01*
X120261905Y-88071429D01*
X120214286Y-87976190D01*
X120166667Y-87928571D01*
X120071429Y-87880952D01*
X96357143Y-85452381D02*
X96023809Y-84976190D01*
X95785714Y-85452381D02*
X95785714Y-84452381D01*
X96166667Y-84452381D01*
X96261905Y-84500000D01*
X96309524Y-84547619D01*
X96357143Y-84642857D01*
X96357143Y-84785714D01*
X96309524Y-84880952D01*
X96261905Y-84928571D01*
X96166667Y-84976190D01*
X95785714Y-84976190D01*
X96738095Y-84547619D02*
X96785714Y-84500000D01*
X96880952Y-84452381D01*
X97119048Y-84452381D01*
X97214286Y-84500000D01*
X97261905Y-84547619D01*
X97309524Y-84642857D01*
X97309524Y-84738095D01*
X97261905Y-84880952D01*
X96690476Y-85452381D01*
X97309524Y-85452381D01*
X97785714Y-85452381D02*
X97976190Y-85452381D01*
X98071429Y-85404762D01*
X98119048Y-85357143D01*
X98214286Y-85214286D01*
X98261905Y-85023810D01*
X98261905Y-84642857D01*
X98214286Y-84547619D01*
X98166667Y-84500000D01*
X98071429Y-84452381D01*
X97880952Y-84452381D01*
X97785714Y-84500000D01*
X97738095Y-84547619D01*
X97690476Y-84642857D01*
X97690476Y-84880952D01*
X97738095Y-84976190D01*
X97785714Y-85023810D01*
X97880952Y-85071429D01*
X98071429Y-85071429D01*
X98166667Y-85023810D01*
X98214286Y-84976190D01*
X98261905Y-84880952D01*
X93002381Y-87142857D02*
X92526190Y-87476191D01*
X93002381Y-87714286D02*
X92002381Y-87714286D01*
X92002381Y-87333333D01*
X92050000Y-87238095D01*
X92097619Y-87190476D01*
X92192857Y-87142857D01*
X92335714Y-87142857D01*
X92430952Y-87190476D01*
X92478571Y-87238095D01*
X92526190Y-87333333D01*
X92526190Y-87714286D01*
X92002381Y-86809524D02*
X92002381Y-86190476D01*
X92383333Y-86523810D01*
X92383333Y-86380952D01*
X92430952Y-86285714D01*
X92478571Y-86238095D01*
X92573810Y-86190476D01*
X92811905Y-86190476D01*
X92907143Y-86238095D01*
X92954762Y-86285714D01*
X93002381Y-86380952D01*
X93002381Y-86666667D01*
X92954762Y-86761905D01*
X92907143Y-86809524D01*
X92002381Y-85571429D02*
X92002381Y-85476190D01*
X92050000Y-85380952D01*
X92097619Y-85333333D01*
X92192857Y-85285714D01*
X92383333Y-85238095D01*
X92621429Y-85238095D01*
X92811905Y-85285714D01*
X92907143Y-85333333D01*
X92954762Y-85380952D01*
X93002381Y-85476190D01*
X93002381Y-85571429D01*
X92954762Y-85666667D01*
X92907143Y-85714286D01*
X92811905Y-85761905D01*
X92621429Y-85809524D01*
X92383333Y-85809524D01*
X92192857Y-85761905D01*
X92097619Y-85714286D01*
X92050000Y-85666667D01*
X92002381Y-85571429D01*
X87002381Y-103142857D02*
X86526190Y-103476191D01*
X87002381Y-103714286D02*
X86002381Y-103714286D01*
X86002381Y-103333333D01*
X86050000Y-103238095D01*
X86097619Y-103190476D01*
X86192857Y-103142857D01*
X86335714Y-103142857D01*
X86430952Y-103190476D01*
X86478571Y-103238095D01*
X86526190Y-103333333D01*
X86526190Y-103714286D01*
X86002381Y-102809524D02*
X86002381Y-102190476D01*
X86383333Y-102523810D01*
X86383333Y-102380952D01*
X86430952Y-102285714D01*
X86478571Y-102238095D01*
X86573810Y-102190476D01*
X86811905Y-102190476D01*
X86907143Y-102238095D01*
X86954762Y-102285714D01*
X87002381Y-102380952D01*
X87002381Y-102666667D01*
X86954762Y-102761905D01*
X86907143Y-102809524D01*
X87002381Y-101238095D02*
X87002381Y-101809524D01*
X87002381Y-101523810D02*
X86002381Y-101523810D01*
X86145238Y-101619048D01*
X86240476Y-101714286D01*
X86288095Y-101809524D01*
D17*
X101769762Y-65897381D02*
X101436428Y-65421190D01*
X101198333Y-65897381D02*
X101198333Y-64897381D01*
X101579286Y-64897381D01*
X101674524Y-64945000D01*
X101722143Y-64992619D01*
X101769762Y-65087857D01*
X101769762Y-65230714D01*
X101722143Y-65325952D01*
X101674524Y-65373571D01*
X101579286Y-65421190D01*
X101198333Y-65421190D01*
X102055476Y-64897381D02*
X102388809Y-65897381D01*
X102722143Y-64897381D01*
X103579286Y-65897381D02*
X103007857Y-65897381D01*
X103293571Y-65897381D02*
X103293571Y-64897381D01*
X103198333Y-65040238D01*
X103103095Y-65135476D01*
X103007857Y-65183095D01*
X94269762Y-65897381D02*
X93936428Y-65421190D01*
X93698333Y-65897381D02*
X93698333Y-64897381D01*
X94079286Y-64897381D01*
X94174524Y-64945000D01*
X94222143Y-64992619D01*
X94269762Y-65087857D01*
X94269762Y-65230714D01*
X94222143Y-65325952D01*
X94174524Y-65373571D01*
X94079286Y-65421190D01*
X93698333Y-65421190D01*
X94555476Y-64897381D02*
X94888809Y-65897381D01*
X95222143Y-64897381D01*
X95507857Y-64992619D02*
X95555476Y-64945000D01*
X95650714Y-64897381D01*
X95888810Y-64897381D01*
X95984048Y-64945000D01*
X96031667Y-64992619D01*
X96079286Y-65087857D01*
X96079286Y-65183095D01*
X96031667Y-65325952D01*
X95460238Y-65897381D01*
X96079286Y-65897381D01*
D15*
X144738095Y-70577381D02*
X144738095Y-71386905D01*
X144785714Y-71482143D01*
X144833333Y-71529762D01*
X144928571Y-71577381D01*
X145119048Y-71577381D01*
X145214286Y-71529762D01*
X145261905Y-71482143D01*
X145309524Y-71386905D01*
X145309524Y-70577381D01*
X146309524Y-71577381D02*
X145738095Y-71577381D01*
X146023809Y-71577381D02*
X146023809Y-70577381D01*
X145928571Y-70720238D01*
X145833333Y-70815476D01*
X145738095Y-70863095D01*
X120778095Y-82452381D02*
X120778095Y-83261905D01*
X120825714Y-83357143D01*
X120873333Y-83404762D01*
X120968571Y-83452381D01*
X121159048Y-83452381D01*
X121254286Y-83404762D01*
X121301905Y-83357143D01*
X121349524Y-83261905D01*
X121349524Y-82452381D01*
X121778095Y-82547619D02*
X121825714Y-82500000D01*
X121920952Y-82452381D01*
X122159048Y-82452381D01*
X122254286Y-82500000D01*
X122301905Y-82547619D01*
X122349524Y-82642857D01*
X122349524Y-82738095D01*
X122301905Y-82880952D01*
X121730476Y-83452381D01*
X122349524Y-83452381D01*
D17*
X94612152Y-76387639D02*
X95422339Y-76387639D01*
X95517655Y-76339981D01*
X95565313Y-76292323D01*
X95612971Y-76197007D01*
X95612971Y-76006374D01*
X95565313Y-75911058D01*
X95517655Y-75863400D01*
X95422339Y-75815742D01*
X94612152Y-75815742D01*
X94612152Y-75434478D02*
X94612152Y-74814923D01*
X94993416Y-75148530D01*
X94993416Y-75005555D01*
X95041074Y-74910239D01*
X95088732Y-74862581D01*
X95184049Y-74814923D01*
X95422339Y-74814923D01*
X95517655Y-74862581D01*
X95565313Y-74910239D01*
X95612971Y-75005555D01*
X95612971Y-75291504D01*
X95565313Y-75386820D01*
X95517655Y-75434478D01*
D15*
X145238095Y-107602381D02*
X145238095Y-108411905D01*
X145285714Y-108507143D01*
X145333333Y-108554762D01*
X145428571Y-108602381D01*
X145619048Y-108602381D01*
X145714286Y-108554762D01*
X145761905Y-108507143D01*
X145809524Y-108411905D01*
X145809524Y-107602381D01*
X146714286Y-107935714D02*
X146714286Y-108602381D01*
X146476190Y-107554762D02*
X146238095Y-108269048D01*
X146857143Y-108269048D01*
X172202381Y-48059523D02*
X172916667Y-48059523D01*
X173059524Y-48107143D01*
X173154762Y-48202381D01*
X173202381Y-48345238D01*
X173202381Y-48440476D01*
X173202381Y-47059523D02*
X173202381Y-47630952D01*
X173202381Y-47345238D02*
X172202381Y-47345238D01*
X172345238Y-47440476D01*
X172440476Y-47535714D01*
X172488095Y-47630952D01*
X172202381Y-46726190D02*
X172202381Y-46107142D01*
X172583333Y-46440476D01*
X172583333Y-46297618D01*
X172630952Y-46202380D01*
X172678571Y-46154761D01*
X172773810Y-46107142D01*
X173011905Y-46107142D01*
X173107143Y-46154761D01*
X173154762Y-46202380D01*
X173202381Y-46297618D01*
X173202381Y-46583333D01*
X173154762Y-46678571D01*
X173107143Y-46726190D01*
D18*
X170507619Y-98384524D02*
X170507619Y-97114524D01*
X171233333Y-98384524D02*
X170689048Y-97658810D01*
X171233333Y-97114524D02*
X170507619Y-97840238D01*
X171656667Y-97114524D02*
X172442857Y-97114524D01*
X172019524Y-97598333D01*
X172200952Y-97598333D01*
X172321905Y-97658810D01*
X172382381Y-97719286D01*
X172442857Y-97840238D01*
X172442857Y-98142619D01*
X172382381Y-98263571D01*
X172321905Y-98324048D01*
X172200952Y-98384524D01*
X171838095Y-98384524D01*
X171717143Y-98324048D01*
X171656667Y-98263571D01*
D15*
X84190476Y-41252381D02*
X84190476Y-40252381D01*
X84523810Y-40966667D01*
X84857143Y-40252381D01*
X84857143Y-41252381D01*
X85857143Y-41252381D02*
X85285714Y-41252381D01*
X85571428Y-41252381D02*
X85571428Y-40252381D01*
X85476190Y-40395238D01*
X85380952Y-40490476D01*
X85285714Y-40538095D01*
X194190476Y-41252381D02*
X194190476Y-40252381D01*
X194523810Y-40966667D01*
X194857143Y-40252381D01*
X194857143Y-41252381D01*
X195285714Y-40347619D02*
X195333333Y-40300000D01*
X195428571Y-40252381D01*
X195666667Y-40252381D01*
X195761905Y-40300000D01*
X195809524Y-40347619D01*
X195857143Y-40442857D01*
X195857143Y-40538095D01*
X195809524Y-40680952D01*
X195238095Y-41252381D01*
X195857143Y-41252381D01*
X194190476Y-106252381D02*
X194190476Y-105252381D01*
X194523810Y-105966667D01*
X194857143Y-105252381D01*
X194857143Y-106252381D01*
X195238095Y-105252381D02*
X195857143Y-105252381D01*
X195523809Y-105633333D01*
X195666667Y-105633333D01*
X195761905Y-105680952D01*
X195809524Y-105728571D01*
X195857143Y-105823810D01*
X195857143Y-106061905D01*
X195809524Y-106157143D01*
X195761905Y-106204762D01*
X195666667Y-106252381D01*
X195380952Y-106252381D01*
X195285714Y-106204762D01*
X195238095Y-106157143D01*
X84190476Y-106252381D02*
X84190476Y-105252381D01*
X84523810Y-105966667D01*
X84857143Y-105252381D01*
X84857143Y-106252381D01*
X85761905Y-105585714D02*
X85761905Y-106252381D01*
X85523809Y-105204762D02*
X85285714Y-105919048D01*
X85904762Y-105919048D01*
X127357143Y-62166666D02*
X127404762Y-62214285D01*
X127452381Y-62357142D01*
X127452381Y-62452380D01*
X127404762Y-62595238D01*
X127309524Y-62690476D01*
X127214286Y-62738095D01*
X127023810Y-62785714D01*
X126880952Y-62785714D01*
X126690476Y-62738095D01*
X126595238Y-62690476D01*
X126500000Y-62595238D01*
X126452381Y-62452380D01*
X126452381Y-62357142D01*
X126500000Y-62214285D01*
X126547619Y-62166666D01*
X126547619Y-61785714D02*
X126500000Y-61738095D01*
X126452381Y-61642857D01*
X126452381Y-61404761D01*
X126500000Y-61309523D01*
X126547619Y-61261904D01*
X126642857Y-61214285D01*
X126738095Y-61214285D01*
X126880952Y-61261904D01*
X127452381Y-61833333D01*
X127452381Y-61214285D01*
M02*
