G04 #@! TF.FileFunction,Soldermask,Bot*
%FSLAX46Y46*%
G04 Gerber Fmt 4.6, Leading zero omitted, Abs format (unit mm)*
G04 Created by KiCad (PCBNEW 4.0.7-e2-6376~61~ubuntu18.04.1) date Wed Aug 19 23:26:29 2020*
%MOMM*%
%LPD*%
G01*
G04 APERTURE LIST*
%ADD10C,0.100000*%
%ADD11R,2.150000X2.150000*%
%ADD12C,2.150000*%
%ADD13R,3.400000X2.750000*%
%ADD14O,3.400000X2.750000*%
%ADD15C,2.350000*%
%ADD16C,6.800000*%
G04 APERTURE END LIST*
D10*
D11*
X150750000Y-45750000D03*
D12*
X148250000Y-45750000D03*
X145750000Y-45750000D03*
X143250000Y-45750000D03*
X140750000Y-45750000D03*
D11*
X165750000Y-45750000D03*
D12*
X163250000Y-45750000D03*
X160750000Y-45750000D03*
D11*
X130500000Y-45750000D03*
D12*
X128000000Y-45750000D03*
D11*
X101500000Y-45750000D03*
D12*
X99000000Y-45750000D03*
D11*
X118500000Y-45750000D03*
D12*
X116000000Y-45750000D03*
X113500000Y-45750000D03*
X111000000Y-45750000D03*
D11*
X194000000Y-80500000D03*
D12*
X194000000Y-78000000D03*
D11*
X194000000Y-69500000D03*
D12*
X194000000Y-67000000D03*
D11*
X86000000Y-89000000D03*
D12*
X86000000Y-91500000D03*
D11*
X86000000Y-61500000D03*
D12*
X86000000Y-64000000D03*
D13*
X194000000Y-98000000D03*
D14*
X194000000Y-101960000D03*
D13*
X194000000Y-54000000D03*
D14*
X194000000Y-57960000D03*
D15*
X163000000Y-60500000D03*
X178240000Y-60500000D03*
X180780000Y-68120000D03*
X173160000Y-68120000D03*
X163000000Y-68120000D03*
X163000000Y-77000000D03*
X178240000Y-77000000D03*
X180780000Y-84620000D03*
X173160000Y-84620000D03*
X163000000Y-84620000D03*
D11*
X179000000Y-45750000D03*
D12*
X176500000Y-45750000D03*
D15*
X163000000Y-94000000D03*
X178240000Y-94000000D03*
X180780000Y-101620000D03*
X173160000Y-101620000D03*
X163000000Y-101620000D03*
D16*
X85000000Y-45000000D03*
X195000000Y-45000000D03*
X195000000Y-110000000D03*
X85000000Y-110000000D03*
M02*
