M48
;DRILL file {KiCad 4.0.7-e2-6376~61~ubuntu18.04.1} date Wed Aug 19 23:26:37 2020
;FORMAT={-:-/ absolute / metric / decimal}
FMAT,2
METRIC,TZ
T1C0.400
T2C1.000
T3C1.050
T4C1.300
T5C1.650
T6C3.200
%
G90
G05
M71
T1
X91.75Y-94.
X93.Y-82.
X94.5Y-72.75
X94.75Y-83.5
X95.25Y-88.
X95.25Y-100.5
X96.Y-71.
X97.Y-84.25
X97.75Y-75.5
X98.Y-99.
X98.25Y-83.
X99.Y-75.75
X99.2Y-61.2
X101.Y-86.75
X101.Y-89.25
X102.5Y-69.5
X103.4Y-56.8
X103.5Y-85.5
X105.Y-99.
X107.Y-64.75
X107.25Y-53.75
X107.25Y-84.5
X107.5Y-73.75
X110.Y-78.25
X110.Y-86.25
X111.25Y-78.75
X112.25Y-73.5
X112.5Y-87.
X112.75Y-92.5
X112.75Y-98.75
X113.5Y-78.
X115.5Y-67.5
X116.75Y-84.75
X116.75Y-95.25
X118.Y-84.75
X118.Y-92.25
X119.Y-73.
X119.Y-74.75
X119.Y-76.5
X119.Y-78.5
X119.Y-86.75
X121.Y-73.
X121.Y-74.75
X121.Y-76.5
X121.Y-78.5
X123.Y-73.
X123.Y-74.75
X123.Y-76.5
X123.Y-78.5
X124.25Y-85.25
X124.25Y-103.75
X124.5Y-97.25
X124.75Y-73.
X124.75Y-74.75
X124.75Y-76.5
X124.75Y-78.5
X125.Y-66.2
X126.8Y-66.4
X128.25Y-102.75
X129.Y-94.25
X129.Y-96.
X129.25Y-62.25
X130.Y-102.75
X131.Y-61.75
X131.Y-73.
X131.Y-78.
X132.75Y-53.25
X133.25Y-83.75
X135.25Y-105.25
X135.5Y-86.75
X135.5Y-95.75
X135.75Y-68.
X135.75Y-70.5
X138.8Y-53.6
X138.8Y-57.4
X142.6Y-58.8
X144.4Y-54.4
X154.Y-81.5
X157.25Y-71.5
X157.25Y-76.75
X162.Y-88.75
X165.5Y-55.25
X170.5Y-92.25
X177.75Y-64.25
X184.Y-60.5
T2
X111.Y-45.75
X113.5Y-45.75
X116.Y-45.75
X118.5Y-45.75
X140.75Y-45.75
X143.25Y-45.75
X145.75Y-45.75
X148.25Y-45.75
X150.75Y-45.75
X160.75Y-45.75
X163.25Y-45.75
X165.75Y-45.75
T3
X86.Y-61.5
X86.Y-64.
X86.Y-89.
X86.Y-91.5
X99.Y-45.75
X101.5Y-45.75
X128.Y-45.75
X130.5Y-45.75
X176.5Y-45.75
X179.Y-45.75
X194.Y-67.
X194.Y-69.5
X194.Y-78.
X194.Y-80.5
T4
X163.Y-60.5
X163.Y-68.12
X163.Y-77.
X163.Y-84.62
X163.Y-94.
X163.Y-101.62
X173.16Y-68.12
X173.16Y-84.62
X173.16Y-101.62
X178.24Y-60.5
X178.24Y-77.
X178.24Y-94.
X180.78Y-68.12
X180.78Y-84.62
X180.78Y-101.62
T5
X194.Y-54.
X194.Y-57.96
X194.Y-98.
X194.Y-101.96
T6
X85.Y-45.
X85.Y-110.
X195.Y-45.
X195.Y-110.
T0
M30
