G04 #@! TF.FileFunction,Copper,L2,Bot,Signal*
%FSLAX46Y46*%
G04 Gerber Fmt 4.6, Leading zero omitted, Abs format (unit mm)*
G04 Created by KiCad (PCBNEW 4.0.7-e2-6376~61~ubuntu18.04.1) date Wed Aug 19 23:26:29 2020*
%MOMM*%
%LPD*%
G01*
G04 APERTURE LIST*
%ADD10C,0.100000*%
%ADD11R,1.750000X1.750000*%
%ADD12C,1.750000*%
%ADD13R,3.000000X2.350000*%
%ADD14O,3.000000X2.350000*%
%ADD15C,1.950000*%
%ADD16C,6.400000*%
%ADD17C,0.600000*%
%ADD18C,0.250000*%
%ADD19C,1.000000*%
%ADD20C,3.500000*%
%ADD21C,4.000000*%
%ADD22C,0.254000*%
G04 APERTURE END LIST*
D10*
D11*
X150750000Y-45750000D03*
D12*
X148250000Y-45750000D03*
X145750000Y-45750000D03*
X143250000Y-45750000D03*
X140750000Y-45750000D03*
D11*
X165750000Y-45750000D03*
D12*
X163250000Y-45750000D03*
X160750000Y-45750000D03*
D11*
X130500000Y-45750000D03*
D12*
X128000000Y-45750000D03*
D11*
X101500000Y-45750000D03*
D12*
X99000000Y-45750000D03*
D11*
X118500000Y-45750000D03*
D12*
X116000000Y-45750000D03*
X113500000Y-45750000D03*
X111000000Y-45750000D03*
D11*
X194000000Y-80500000D03*
D12*
X194000000Y-78000000D03*
D11*
X194000000Y-69500000D03*
D12*
X194000000Y-67000000D03*
D11*
X86000000Y-89000000D03*
D12*
X86000000Y-91500000D03*
D11*
X86000000Y-61500000D03*
D12*
X86000000Y-64000000D03*
D13*
X194000000Y-98000000D03*
D14*
X194000000Y-101960000D03*
D13*
X194000000Y-54000000D03*
D14*
X194000000Y-57960000D03*
D15*
X163000000Y-60500000D03*
X178240000Y-60500000D03*
X180780000Y-68120000D03*
X173160000Y-68120000D03*
X163000000Y-68120000D03*
X163000000Y-77000000D03*
X178240000Y-77000000D03*
X180780000Y-84620000D03*
X173160000Y-84620000D03*
X163000000Y-84620000D03*
D11*
X179000000Y-45750000D03*
D12*
X176500000Y-45750000D03*
D15*
X163000000Y-94000000D03*
X178240000Y-94000000D03*
X180780000Y-101620000D03*
X173160000Y-101620000D03*
X163000000Y-101620000D03*
D16*
X85000000Y-45000000D03*
X195000000Y-45000000D03*
X195000000Y-110000000D03*
X85000000Y-110000000D03*
D17*
X135250000Y-105250000D03*
X135500000Y-86750000D03*
X129000000Y-94250000D03*
X133250000Y-83750000D03*
X98250000Y-83000000D03*
X95250000Y-100500000D03*
X135500000Y-95750000D03*
X129000000Y-96000000D03*
X135750000Y-68000000D03*
X135750000Y-70500000D03*
X99000000Y-75750000D03*
X97750000Y-75500000D03*
X129250000Y-62250000D03*
X98000000Y-99000000D03*
X105000000Y-99000000D03*
X124750000Y-78500000D03*
X123000000Y-78500000D03*
X121000000Y-78500000D03*
X119000000Y-78500000D03*
X119000000Y-76500000D03*
X121000000Y-76500000D03*
X123000000Y-76500000D03*
X124750000Y-76500000D03*
X124750000Y-74750000D03*
X123000000Y-74750000D03*
X121000000Y-74750000D03*
X119000000Y-74750000D03*
X119000000Y-73000000D03*
X121000000Y-73000000D03*
X123000000Y-73000000D03*
X124750000Y-73000000D03*
X124250000Y-85250000D03*
X107250000Y-84500000D03*
X110000000Y-86250000D03*
X101000000Y-89250000D03*
X107000000Y-64750000D03*
X107500000Y-73750000D03*
X165500000Y-55250000D03*
X115500000Y-67500000D03*
X112750000Y-98750000D03*
X112750000Y-92500000D03*
X112500000Y-87000000D03*
X102500000Y-69500000D03*
X107250000Y-53750000D03*
X131000000Y-61750000D03*
X132750000Y-53250000D03*
X131000000Y-73000000D03*
X131000000Y-78000000D03*
X154000000Y-81500000D03*
X162000000Y-88750000D03*
X170500000Y-92250000D03*
X184000000Y-60500000D03*
X177750000Y-64250000D03*
X157250000Y-71500000D03*
X157250000Y-76750000D03*
X93000000Y-82000000D03*
X94750000Y-83500000D03*
X96000000Y-71000000D03*
X94500000Y-72750000D03*
X113500000Y-78000000D03*
X124250000Y-103750000D03*
X119000000Y-86750000D03*
X128250000Y-102750000D03*
X124500000Y-97250000D03*
X130000000Y-102750000D03*
X144400000Y-54400000D03*
X142600000Y-58800000D03*
X138800000Y-53600000D03*
X138800000Y-57400000D03*
X116750000Y-95250000D03*
X116750000Y-84750000D03*
X118000000Y-92250000D03*
X118000000Y-84750000D03*
X101000000Y-86750000D03*
X110000000Y-78250000D03*
X95250000Y-88000000D03*
X97000000Y-84250000D03*
X103500000Y-85500000D03*
X111250000Y-78750000D03*
X91750000Y-94000000D03*
X112250000Y-73500000D03*
X103400000Y-56800000D03*
X126800000Y-66400000D03*
X99200000Y-61200000D03*
X125000000Y-66200000D03*
D18*
X130250000Y-95500000D02*
X129000000Y-94250000D01*
X130250000Y-100250000D02*
X130250000Y-95500000D01*
X135250000Y-105250000D02*
X130250000Y-100250000D01*
X135500000Y-87750000D02*
X135500000Y-86750000D01*
X129000000Y-94250000D02*
X135500000Y-87750000D01*
X124750000Y-78500000D02*
X123000000Y-78500000D01*
X121000000Y-78500000D02*
X119000000Y-78500000D01*
X119000000Y-76500000D02*
X121000000Y-76500000D01*
X123000000Y-76500000D02*
X124750000Y-76500000D01*
X124750000Y-74750000D02*
X123000000Y-74750000D01*
X121000000Y-74750000D02*
X119000000Y-74750000D01*
X119000000Y-73000000D02*
X121000000Y-73000000D01*
X123000000Y-73000000D02*
X124750000Y-73000000D01*
X107000000Y-64750000D02*
X107500000Y-65250000D01*
X107500000Y-65250000D02*
X107500000Y-73750000D01*
X165500000Y-55250000D02*
X154250000Y-55250000D01*
X154250000Y-55250000D02*
X153000000Y-54000000D01*
X153000000Y-54000000D02*
X151000000Y-52000000D01*
X151000000Y-52000000D02*
X134000000Y-52000000D01*
X134000000Y-52000000D02*
X132750000Y-53250000D01*
X102500000Y-65000000D02*
X102500000Y-69500000D01*
X105000000Y-65000000D02*
X102500000Y-65000000D01*
X106500000Y-63500000D02*
X105000000Y-65000000D01*
X107750000Y-63500000D02*
X106500000Y-63500000D01*
X108750000Y-64500000D02*
X107750000Y-63500000D01*
X108750000Y-66000000D02*
X108750000Y-64500000D01*
X110250000Y-67500000D02*
X108750000Y-66000000D01*
X115500000Y-67500000D02*
X110250000Y-67500000D01*
X131000000Y-78000000D02*
X131000000Y-80500000D01*
X116000000Y-83500000D02*
X112500000Y-87000000D01*
X128000000Y-83500000D02*
X116000000Y-83500000D01*
X131000000Y-80500000D02*
X128000000Y-83500000D01*
X112750000Y-98750000D02*
X112750000Y-92500000D01*
X112750000Y-92500000D02*
X112500000Y-92250000D01*
X112500000Y-92250000D02*
X112500000Y-87000000D01*
D19*
X93500000Y-53750000D02*
X107250000Y-53750000D01*
X102500000Y-69500000D02*
X102500000Y-66750000D01*
X102500000Y-66750000D02*
X101000000Y-65250000D01*
X101000000Y-65250000D02*
X93500000Y-65250000D01*
X93500000Y-65250000D02*
X92000000Y-63750000D01*
X92000000Y-63750000D02*
X92000000Y-55250000D01*
X92000000Y-55250000D02*
X93500000Y-53750000D01*
X107750000Y-53250000D02*
X132750000Y-53250000D01*
X107250000Y-53750000D02*
X107750000Y-53250000D01*
X131000000Y-61750000D02*
X132750000Y-60000000D01*
X132750000Y-60000000D02*
X132750000Y-53250000D01*
X131000000Y-78000000D02*
X131000000Y-73000000D01*
D18*
X181750000Y-88500000D02*
X178000000Y-92250000D01*
X192250000Y-78000000D02*
X181750000Y-88500000D01*
X194000000Y-78000000D02*
X192250000Y-78000000D01*
X154750000Y-81500000D02*
X154000000Y-81500000D01*
X162000000Y-88750000D02*
X154750000Y-81500000D01*
X178000000Y-92250000D02*
X170500000Y-92250000D01*
X181500000Y-60500000D02*
X184000000Y-60500000D01*
X177750000Y-64250000D02*
X181500000Y-60500000D01*
X157250000Y-76750000D02*
X157250000Y-71500000D01*
X93000000Y-82000000D02*
X86000000Y-89000000D01*
X94750000Y-83500000D02*
X86750000Y-91500000D01*
X86750000Y-91500000D02*
X86000000Y-91500000D01*
X86000000Y-61500000D02*
X86500000Y-61500000D01*
X86500000Y-61500000D02*
X96000000Y-71000000D01*
X94500000Y-72750000D02*
X86000000Y-64250000D01*
X86000000Y-64250000D02*
X86000000Y-64000000D01*
D20*
X194000000Y-54000000D02*
X176000000Y-54000000D01*
X173160000Y-56840000D02*
X173160000Y-68120000D01*
X176000000Y-54000000D02*
X173160000Y-56840000D01*
D21*
X173160000Y-84620000D02*
X173160000Y-73340000D01*
X184750000Y-72750000D02*
X173750000Y-72750000D01*
X186750000Y-70750000D02*
X184750000Y-72750000D01*
X186750000Y-65000000D02*
X186750000Y-70750000D01*
X186750000Y-65000000D02*
X193790000Y-57960000D01*
X173160000Y-73340000D02*
X173750000Y-72750000D01*
X194000000Y-57960000D02*
X193790000Y-57960000D01*
D18*
X111250000Y-80250000D02*
X113500000Y-78000000D01*
X111250000Y-99500000D02*
X111250000Y-80250000D01*
X113750000Y-102000000D02*
X111250000Y-99500000D01*
X122500000Y-102000000D02*
X113750000Y-102000000D01*
X124250000Y-103750000D02*
X122500000Y-102000000D01*
X119000000Y-93500000D02*
X119000000Y-86750000D01*
X128250000Y-102750000D02*
X119000000Y-93500000D01*
X130000000Y-102750000D02*
X124500000Y-97250000D01*
X144400000Y-57000000D02*
X144400000Y-54400000D01*
X142600000Y-58800000D02*
X144400000Y-57000000D01*
X138800000Y-55600000D02*
X138800000Y-53600000D01*
X138800000Y-57400000D02*
X138800000Y-55600000D01*
X116750000Y-84750000D02*
X116750000Y-95250000D01*
X118000000Y-84750000D02*
X118000000Y-92250000D01*
X103500000Y-84250000D02*
X101000000Y-86750000D01*
X104000000Y-84250000D02*
X103500000Y-84250000D01*
X110000000Y-78250000D02*
X104000000Y-84250000D01*
X95250000Y-86000000D02*
X95250000Y-88000000D01*
X97000000Y-84250000D02*
X95250000Y-86000000D01*
X104500000Y-85500000D02*
X103500000Y-85500000D01*
X111250000Y-78750000D02*
X104500000Y-85500000D01*
X112250000Y-73500000D02*
X91750000Y-94000000D01*
X117200000Y-56800000D02*
X103400000Y-56800000D01*
X126800000Y-66400000D02*
X117200000Y-56800000D01*
X120000000Y-61200000D02*
X99200000Y-61200000D01*
X125000000Y-66200000D02*
X120000000Y-61200000D01*
D19*
X163000000Y-101620000D02*
X163130000Y-101620000D01*
X163130000Y-101620000D02*
X168250000Y-96500000D01*
X168250000Y-96500000D02*
X168250000Y-56250000D01*
X168250000Y-56250000D02*
X175750000Y-48750000D01*
X175750000Y-48750000D02*
X178750000Y-48750000D01*
X178750000Y-48750000D02*
X179000000Y-48500000D01*
X179000000Y-48500000D02*
X179000000Y-45750000D01*
D22*
G36*
X199290000Y-114290000D02*
X80710000Y-114290000D01*
X80710000Y-112740910D01*
X82438695Y-112740910D01*
X82805640Y-113236343D01*
X84211171Y-113829736D01*
X85736793Y-113840087D01*
X87150246Y-113265819D01*
X87194360Y-113236343D01*
X87561305Y-112740910D01*
X192438695Y-112740910D01*
X192805640Y-113236343D01*
X194211171Y-113829736D01*
X195736793Y-113840087D01*
X197150246Y-113265819D01*
X197194360Y-113236343D01*
X197561305Y-112740910D01*
X195000000Y-110179605D01*
X192438695Y-112740910D01*
X87561305Y-112740910D01*
X85000000Y-110179605D01*
X82438695Y-112740910D01*
X80710000Y-112740910D01*
X80710000Y-110736793D01*
X81159913Y-110736793D01*
X81734181Y-112150246D01*
X81763657Y-112194360D01*
X82259090Y-112561305D01*
X84820395Y-110000000D01*
X85179605Y-110000000D01*
X87740910Y-112561305D01*
X88236343Y-112194360D01*
X88829736Y-110788829D01*
X88830089Y-110736793D01*
X191159913Y-110736793D01*
X191734181Y-112150246D01*
X191763657Y-112194360D01*
X192259090Y-112561305D01*
X194820395Y-110000000D01*
X195179605Y-110000000D01*
X197740910Y-112561305D01*
X198236343Y-112194360D01*
X198829736Y-110788829D01*
X198840087Y-109263207D01*
X198265819Y-107849754D01*
X198236343Y-107805640D01*
X197740910Y-107438695D01*
X195179605Y-110000000D01*
X194820395Y-110000000D01*
X192259090Y-107438695D01*
X191763657Y-107805640D01*
X191170264Y-109211171D01*
X191159913Y-110736793D01*
X88830089Y-110736793D01*
X88840087Y-109263207D01*
X88265819Y-107849754D01*
X88236343Y-107805640D01*
X87740910Y-107438695D01*
X85179605Y-110000000D01*
X84820395Y-110000000D01*
X82259090Y-107438695D01*
X81763657Y-107805640D01*
X81170264Y-109211171D01*
X81159913Y-110736793D01*
X80710000Y-110736793D01*
X80710000Y-107259090D01*
X82438695Y-107259090D01*
X85000000Y-109820395D01*
X87561305Y-107259090D01*
X192438695Y-107259090D01*
X195000000Y-109820395D01*
X197561305Y-107259090D01*
X197194360Y-106763657D01*
X195788829Y-106170264D01*
X194263207Y-106159913D01*
X192849754Y-106734181D01*
X192805640Y-106763657D01*
X192438695Y-107259090D01*
X87561305Y-107259090D01*
X87194360Y-106763657D01*
X85788829Y-106170264D01*
X84263207Y-106159913D01*
X82849754Y-106734181D01*
X82805640Y-106763657D01*
X82438695Y-107259090D01*
X80710000Y-107259090D01*
X80710000Y-94185167D01*
X90814838Y-94185167D01*
X90956883Y-94528943D01*
X91219673Y-94792192D01*
X91563201Y-94934838D01*
X91935167Y-94935162D01*
X92278943Y-94793117D01*
X92542192Y-94530327D01*
X92684838Y-94186799D01*
X92684879Y-94139923D01*
X100064991Y-86759811D01*
X100064838Y-86935167D01*
X100206883Y-87278943D01*
X100469673Y-87542192D01*
X100813201Y-87684838D01*
X101185167Y-87685162D01*
X101528943Y-87543117D01*
X101792192Y-87280327D01*
X101934838Y-86936799D01*
X101934879Y-86889923D01*
X102751332Y-86073470D01*
X102969673Y-86292192D01*
X103313201Y-86434838D01*
X103685167Y-86435162D01*
X104028943Y-86293117D01*
X104062118Y-86260000D01*
X104500000Y-86260000D01*
X104790839Y-86202148D01*
X105037401Y-86037401D01*
X110490000Y-80584802D01*
X110490000Y-99500000D01*
X110547852Y-99790839D01*
X110712599Y-100037401D01*
X113212599Y-102537401D01*
X113459161Y-102702148D01*
X113750000Y-102760000D01*
X122185198Y-102760000D01*
X123314878Y-103889680D01*
X123314838Y-103935167D01*
X123456883Y-104278943D01*
X123719673Y-104542192D01*
X124063201Y-104684838D01*
X124435167Y-104685162D01*
X124778943Y-104543117D01*
X125042192Y-104280327D01*
X125184838Y-103936799D01*
X125185162Y-103564833D01*
X125043117Y-103221057D01*
X124780327Y-102957808D01*
X124436799Y-102815162D01*
X124389923Y-102815121D01*
X123037401Y-101462599D01*
X122790839Y-101297852D01*
X122500000Y-101240000D01*
X114064802Y-101240000D01*
X112471606Y-99646804D01*
X112563201Y-99684838D01*
X112935167Y-99685162D01*
X113278943Y-99543117D01*
X113542192Y-99280327D01*
X113684838Y-98936799D01*
X113685162Y-98564833D01*
X113543117Y-98221057D01*
X113510000Y-98187882D01*
X113510000Y-93062463D01*
X113542192Y-93030327D01*
X113684838Y-92686799D01*
X113685162Y-92314833D01*
X113543117Y-91971057D01*
X113280327Y-91707808D01*
X113260000Y-91699367D01*
X113260000Y-87562463D01*
X113292192Y-87530327D01*
X113434838Y-87186799D01*
X113434879Y-87139923D01*
X115814991Y-84759811D01*
X115814838Y-84935167D01*
X115956883Y-85278943D01*
X115990000Y-85312118D01*
X115990000Y-94687537D01*
X115957808Y-94719673D01*
X115815162Y-95063201D01*
X115814838Y-95435167D01*
X115956883Y-95778943D01*
X116219673Y-96042192D01*
X116563201Y-96184838D01*
X116935167Y-96185162D01*
X117278943Y-96043117D01*
X117542192Y-95780327D01*
X117684838Y-95436799D01*
X117685162Y-95064833D01*
X117543117Y-94721057D01*
X117510000Y-94687882D01*
X117510000Y-93058937D01*
X117813201Y-93184838D01*
X118185167Y-93185162D01*
X118240000Y-93162506D01*
X118240000Y-93500000D01*
X118297852Y-93790839D01*
X118462599Y-94037401D01*
X127314878Y-102889680D01*
X127314838Y-102935167D01*
X127456883Y-103278943D01*
X127719673Y-103542192D01*
X128063201Y-103684838D01*
X128435167Y-103685162D01*
X128778943Y-103543117D01*
X129042192Y-103280327D01*
X129125028Y-103080838D01*
X129206883Y-103278943D01*
X129469673Y-103542192D01*
X129813201Y-103684838D01*
X130185167Y-103685162D01*
X130528943Y-103543117D01*
X130792192Y-103280327D01*
X130934838Y-102936799D01*
X130935162Y-102564833D01*
X130793117Y-102221057D01*
X130530327Y-101957808D01*
X130186799Y-101815162D01*
X130139923Y-101815121D01*
X125435122Y-97110320D01*
X125435162Y-97064833D01*
X125293117Y-96721057D01*
X125030327Y-96457808D01*
X124686799Y-96315162D01*
X124314833Y-96314838D01*
X123971057Y-96456883D01*
X123707808Y-96719673D01*
X123586534Y-97011732D01*
X121009969Y-94435167D01*
X128064838Y-94435167D01*
X128206883Y-94778943D01*
X128469673Y-95042192D01*
X128813201Y-95184838D01*
X128860077Y-95184879D01*
X129490000Y-95814802D01*
X129490000Y-100250000D01*
X129547852Y-100540839D01*
X129712599Y-100787401D01*
X134314878Y-105389680D01*
X134314838Y-105435167D01*
X134456883Y-105778943D01*
X134719673Y-106042192D01*
X135063201Y-106184838D01*
X135435167Y-106185162D01*
X135778943Y-106043117D01*
X136042192Y-105780327D01*
X136184838Y-105436799D01*
X136185162Y-105064833D01*
X136043117Y-104721057D01*
X135780327Y-104457808D01*
X135436799Y-104315162D01*
X135389923Y-104315121D01*
X133013646Y-101938844D01*
X161389721Y-101938844D01*
X161634312Y-102530800D01*
X162086817Y-102984096D01*
X162678346Y-103229720D01*
X163318844Y-103230279D01*
X163910800Y-102985688D01*
X164364096Y-102533183D01*
X164609720Y-101941654D01*
X164609722Y-101938844D01*
X171549721Y-101938844D01*
X171794312Y-102530800D01*
X172246817Y-102984096D01*
X172838346Y-103229720D01*
X173478844Y-103230279D01*
X174070800Y-102985688D01*
X174524096Y-102533183D01*
X174769720Y-101941654D01*
X174769722Y-101938844D01*
X179169721Y-101938844D01*
X179414312Y-102530800D01*
X179866817Y-102984096D01*
X180458346Y-103229720D01*
X181098844Y-103230279D01*
X181690800Y-102985688D01*
X182144096Y-102533183D01*
X182382102Y-101960000D01*
X191823173Y-101960000D01*
X191960951Y-102652657D01*
X192353310Y-103239863D01*
X192940516Y-103632222D01*
X193633173Y-103770000D01*
X194366827Y-103770000D01*
X195059484Y-103632222D01*
X195646690Y-103239863D01*
X196039049Y-102652657D01*
X196176827Y-101960000D01*
X196039049Y-101267343D01*
X195646690Y-100680137D01*
X195059484Y-100287778D01*
X194366827Y-100150000D01*
X193633173Y-100150000D01*
X192940516Y-100287778D01*
X192353310Y-100680137D01*
X191960951Y-101267343D01*
X191823173Y-101960000D01*
X182382102Y-101960000D01*
X182389720Y-101941654D01*
X182390279Y-101301156D01*
X182145688Y-100709200D01*
X181693183Y-100255904D01*
X181101654Y-100010280D01*
X180461156Y-100009721D01*
X179869200Y-100254312D01*
X179415904Y-100706817D01*
X179170280Y-101298346D01*
X179169721Y-101938844D01*
X174769722Y-101938844D01*
X174770279Y-101301156D01*
X174525688Y-100709200D01*
X174073183Y-100255904D01*
X173481654Y-100010280D01*
X172841156Y-100009721D01*
X172249200Y-100254312D01*
X171795904Y-100706817D01*
X171550280Y-101298346D01*
X171549721Y-101938844D01*
X164609722Y-101938844D01*
X164609891Y-101745241D01*
X168069382Y-98285750D01*
X191865000Y-98285750D01*
X191865000Y-99301309D01*
X191961673Y-99534698D01*
X192140301Y-99713327D01*
X192373690Y-99810000D01*
X193714250Y-99810000D01*
X193873000Y-99651250D01*
X193873000Y-98127000D01*
X194127000Y-98127000D01*
X194127000Y-99651250D01*
X194285750Y-99810000D01*
X195626310Y-99810000D01*
X195859699Y-99713327D01*
X196038327Y-99534698D01*
X196135000Y-99301309D01*
X196135000Y-98285750D01*
X195976250Y-98127000D01*
X194127000Y-98127000D01*
X193873000Y-98127000D01*
X192023750Y-98127000D01*
X191865000Y-98285750D01*
X168069382Y-98285750D01*
X169052566Y-97302567D01*
X169298603Y-96934346D01*
X169345477Y-96698691D01*
X191865000Y-96698691D01*
X191865000Y-97714250D01*
X192023750Y-97873000D01*
X193873000Y-97873000D01*
X193873000Y-96348750D01*
X194127000Y-96348750D01*
X194127000Y-97873000D01*
X195976250Y-97873000D01*
X196135000Y-97714250D01*
X196135000Y-96698691D01*
X196038327Y-96465302D01*
X195859699Y-96286673D01*
X195626310Y-96190000D01*
X194285750Y-96190000D01*
X194127000Y-96348750D01*
X193873000Y-96348750D01*
X193714250Y-96190000D01*
X192373690Y-96190000D01*
X192140301Y-96286673D01*
X191961673Y-96465302D01*
X191865000Y-96698691D01*
X169345477Y-96698691D01*
X169385000Y-96500000D01*
X169385000Y-92435167D01*
X169564838Y-92435167D01*
X169706883Y-92778943D01*
X169969673Y-93042192D01*
X170313201Y-93184838D01*
X170685167Y-93185162D01*
X171028943Y-93043117D01*
X171062118Y-93010000D01*
X176952855Y-93010000D01*
X176875904Y-93086817D01*
X176630280Y-93678346D01*
X176629721Y-94318844D01*
X176874312Y-94910800D01*
X177326817Y-95364096D01*
X177918346Y-95609720D01*
X178558844Y-95610279D01*
X179150800Y-95365688D01*
X179604096Y-94913183D01*
X179849720Y-94321654D01*
X179850279Y-93681156D01*
X179605688Y-93089200D01*
X179153183Y-92635904D01*
X178825121Y-92499681D01*
X192564802Y-78760000D01*
X192680203Y-78760000D01*
X192719138Y-78854229D01*
X192887717Y-79023103D01*
X192673559Y-79160910D01*
X192528569Y-79373110D01*
X192477560Y-79625000D01*
X192477560Y-81375000D01*
X192521838Y-81610317D01*
X192660910Y-81826441D01*
X192873110Y-81971431D01*
X193125000Y-82022440D01*
X194875000Y-82022440D01*
X195110317Y-81978162D01*
X195326441Y-81839090D01*
X195471431Y-81626890D01*
X195522440Y-81375000D01*
X195522440Y-79625000D01*
X195478162Y-79389683D01*
X195339090Y-79173559D01*
X195126890Y-79028569D01*
X195110324Y-79025214D01*
X195279370Y-78856463D01*
X195509738Y-78301675D01*
X195510262Y-77700960D01*
X195280862Y-77145771D01*
X194856463Y-76720630D01*
X194301675Y-76490262D01*
X193700960Y-76489738D01*
X193145771Y-76719138D01*
X192720630Y-77143537D01*
X192680575Y-77240000D01*
X192250000Y-77240000D01*
X192011701Y-77287401D01*
X191959160Y-77297852D01*
X191712599Y-77462599D01*
X177685198Y-91490000D01*
X171062463Y-91490000D01*
X171030327Y-91457808D01*
X170686799Y-91315162D01*
X170314833Y-91314838D01*
X169971057Y-91456883D01*
X169707808Y-91719673D01*
X169565162Y-92063201D01*
X169564838Y-92435167D01*
X169385000Y-92435167D01*
X169385000Y-73340000D01*
X170525000Y-73340000D01*
X170525000Y-84620000D01*
X170725577Y-85628371D01*
X171296774Y-86483226D01*
X172151629Y-87054423D01*
X173160000Y-87255000D01*
X174168371Y-87054423D01*
X175023226Y-86483226D01*
X175594423Y-85628371D01*
X175731578Y-84938844D01*
X179169721Y-84938844D01*
X179414312Y-85530800D01*
X179866817Y-85984096D01*
X180458346Y-86229720D01*
X181098844Y-86230279D01*
X181690800Y-85985688D01*
X182144096Y-85533183D01*
X182389720Y-84941654D01*
X182390279Y-84301156D01*
X182145688Y-83709200D01*
X181693183Y-83255904D01*
X181101654Y-83010280D01*
X180461156Y-83009721D01*
X179869200Y-83254312D01*
X179415904Y-83706817D01*
X179170280Y-84298346D01*
X179169721Y-84938844D01*
X175731578Y-84938844D01*
X175795000Y-84620000D01*
X175795000Y-78134442D01*
X177285163Y-78134442D01*
X177380763Y-78398704D01*
X177981429Y-78621049D01*
X178621461Y-78596605D01*
X179099237Y-78398704D01*
X179194837Y-78134442D01*
X178240000Y-77179605D01*
X177285163Y-78134442D01*
X175795000Y-78134442D01*
X175795000Y-76741429D01*
X176618951Y-76741429D01*
X176643395Y-77381461D01*
X176841296Y-77859237D01*
X177105558Y-77954837D01*
X178060395Y-77000000D01*
X178419605Y-77000000D01*
X179374442Y-77954837D01*
X179638704Y-77859237D01*
X179861049Y-77258571D01*
X179836605Y-76618539D01*
X179638704Y-76140763D01*
X179374442Y-76045163D01*
X178419605Y-77000000D01*
X178060395Y-77000000D01*
X177105558Y-76045163D01*
X176841296Y-76140763D01*
X176618951Y-76741429D01*
X175795000Y-76741429D01*
X175795000Y-75385000D01*
X178340186Y-75385000D01*
X177858539Y-75403395D01*
X177380763Y-75601296D01*
X177285163Y-75865558D01*
X178240000Y-76820395D01*
X179194837Y-75865558D01*
X179099237Y-75601296D01*
X178514912Y-75385000D01*
X184750000Y-75385000D01*
X185758371Y-75184423D01*
X186613226Y-74613226D01*
X188613226Y-72613226D01*
X189184423Y-71758371D01*
X189195606Y-71702148D01*
X189385000Y-70750000D01*
X189385000Y-68625000D01*
X192477560Y-68625000D01*
X192477560Y-70375000D01*
X192521838Y-70610317D01*
X192660910Y-70826441D01*
X192873110Y-70971431D01*
X193125000Y-71022440D01*
X194875000Y-71022440D01*
X195110317Y-70978162D01*
X195326441Y-70839090D01*
X195471431Y-70626890D01*
X195522440Y-70375000D01*
X195522440Y-68625000D01*
X195478162Y-68389683D01*
X195339090Y-68173559D01*
X195126890Y-68028569D01*
X195110324Y-68025214D01*
X195279370Y-67856463D01*
X195509738Y-67301675D01*
X195510262Y-66700960D01*
X195280862Y-66145771D01*
X194856463Y-65720630D01*
X194301675Y-65490262D01*
X193700960Y-65489738D01*
X193145771Y-65719138D01*
X192720630Y-66143537D01*
X192490262Y-66698325D01*
X192489738Y-67299040D01*
X192719138Y-67854229D01*
X192887717Y-68023103D01*
X192673559Y-68160910D01*
X192528569Y-68373110D01*
X192477560Y-68625000D01*
X189385000Y-68625000D01*
X189385000Y-66091452D01*
X195230356Y-60246097D01*
X195863226Y-59823226D01*
X196434423Y-58968371D01*
X196635000Y-57960000D01*
X196434423Y-56951629D01*
X195863226Y-56096774D01*
X195467792Y-55832553D01*
X195482926Y-55822440D01*
X195500000Y-55822440D01*
X195735317Y-55778162D01*
X195951441Y-55639090D01*
X196096431Y-55426890D01*
X196147440Y-55175000D01*
X196147440Y-54996529D01*
X196203453Y-54912700D01*
X196385000Y-54000000D01*
X196203453Y-53087300D01*
X196147440Y-53003471D01*
X196147440Y-52825000D01*
X196103162Y-52589683D01*
X195964090Y-52373559D01*
X195751890Y-52228569D01*
X195500000Y-52177560D01*
X195482926Y-52177560D01*
X194912700Y-51796547D01*
X194000000Y-51615000D01*
X176000005Y-51615000D01*
X176000000Y-51614999D01*
X175087300Y-51796547D01*
X174313550Y-52313550D01*
X174313548Y-52313553D01*
X171473550Y-55153550D01*
X170956547Y-55927300D01*
X170775000Y-56840000D01*
X170775000Y-68120000D01*
X170956547Y-69032700D01*
X171473550Y-69806450D01*
X172247300Y-70323453D01*
X172619146Y-70397418D01*
X171886774Y-70886774D01*
X171296774Y-71476774D01*
X170725577Y-72331629D01*
X170525000Y-73340000D01*
X169385000Y-73340000D01*
X169385000Y-56720132D01*
X176220132Y-49885000D01*
X178750000Y-49885000D01*
X179184346Y-49798603D01*
X179552566Y-49552566D01*
X179802566Y-49302566D01*
X180048603Y-48934346D01*
X180069411Y-48829736D01*
X180135000Y-48500000D01*
X180135000Y-47740910D01*
X192438695Y-47740910D01*
X192805640Y-48236343D01*
X194211171Y-48829736D01*
X195736793Y-48840087D01*
X197150246Y-48265819D01*
X197194360Y-48236343D01*
X197561305Y-47740910D01*
X195000000Y-45179605D01*
X192438695Y-47740910D01*
X180135000Y-47740910D01*
X180135000Y-47212279D01*
X180326441Y-47089090D01*
X180471431Y-46876890D01*
X180522440Y-46625000D01*
X180522440Y-45736793D01*
X191159913Y-45736793D01*
X191734181Y-47150246D01*
X191763657Y-47194360D01*
X192259090Y-47561305D01*
X194820395Y-45000000D01*
X195179605Y-45000000D01*
X197740910Y-47561305D01*
X198236343Y-47194360D01*
X198829736Y-45788829D01*
X198840087Y-44263207D01*
X198265819Y-42849754D01*
X198236343Y-42805640D01*
X197740910Y-42438695D01*
X195179605Y-45000000D01*
X194820395Y-45000000D01*
X192259090Y-42438695D01*
X191763657Y-42805640D01*
X191170264Y-44211171D01*
X191159913Y-45736793D01*
X180522440Y-45736793D01*
X180522440Y-44875000D01*
X180478162Y-44639683D01*
X180339090Y-44423559D01*
X180126890Y-44278569D01*
X179875000Y-44227560D01*
X178125000Y-44227560D01*
X177889683Y-44271838D01*
X177673559Y-44410910D01*
X177536006Y-44612226D01*
X177497086Y-44573306D01*
X177382454Y-44687938D01*
X177299116Y-44434047D01*
X176734694Y-44228410D01*
X176134542Y-44254421D01*
X175700884Y-44434047D01*
X175617545Y-44687940D01*
X176500000Y-45570395D01*
X176514143Y-45556253D01*
X176693748Y-45735858D01*
X176679605Y-45750000D01*
X176693748Y-45764143D01*
X176514143Y-45943748D01*
X176500000Y-45929605D01*
X175617545Y-46812060D01*
X175700884Y-47065953D01*
X176265306Y-47271590D01*
X176865458Y-47245579D01*
X177299116Y-47065953D01*
X177382454Y-46812062D01*
X177497086Y-46926694D01*
X177538136Y-46885644D01*
X177660910Y-47076441D01*
X177865000Y-47215890D01*
X177865000Y-47615000D01*
X175750000Y-47615000D01*
X175315654Y-47701397D01*
X174947434Y-47947434D01*
X167447434Y-55447434D01*
X167201397Y-55815654D01*
X167115000Y-56250000D01*
X167115000Y-96029867D01*
X163134751Y-100010117D01*
X162681156Y-100009721D01*
X162089200Y-100254312D01*
X161635904Y-100706817D01*
X161390280Y-101298346D01*
X161389721Y-101938844D01*
X133013646Y-101938844D01*
X131010000Y-99935198D01*
X131010000Y-95500000D01*
X130952148Y-95209161D01*
X130787401Y-94962599D01*
X130143646Y-94318844D01*
X161389721Y-94318844D01*
X161634312Y-94910800D01*
X162086817Y-95364096D01*
X162678346Y-95609720D01*
X163318844Y-95610279D01*
X163910800Y-95365688D01*
X164364096Y-94913183D01*
X164609720Y-94321654D01*
X164610279Y-93681156D01*
X164365688Y-93089200D01*
X163913183Y-92635904D01*
X163321654Y-92390280D01*
X162681156Y-92389721D01*
X162089200Y-92634312D01*
X161635904Y-93086817D01*
X161390280Y-93678346D01*
X161389721Y-94318844D01*
X130143646Y-94318844D01*
X130074802Y-94250000D01*
X136037401Y-88287401D01*
X136202148Y-88040839D01*
X136260000Y-87750000D01*
X136260000Y-87312463D01*
X136292192Y-87280327D01*
X136434838Y-86936799D01*
X136435162Y-86564833D01*
X136293117Y-86221057D01*
X136030327Y-85957808D01*
X135686799Y-85815162D01*
X135314833Y-85814838D01*
X134971057Y-85956883D01*
X134707808Y-86219673D01*
X134565162Y-86563201D01*
X134564838Y-86935167D01*
X134706883Y-87278943D01*
X134740000Y-87312118D01*
X134740000Y-87435198D01*
X128860320Y-93314878D01*
X128814833Y-93314838D01*
X128471057Y-93456883D01*
X128207808Y-93719673D01*
X128065162Y-94063201D01*
X128064838Y-94435167D01*
X121009969Y-94435167D01*
X119760000Y-93185198D01*
X119760000Y-87312463D01*
X119792192Y-87280327D01*
X119934838Y-86936799D01*
X119935162Y-86564833D01*
X119793117Y-86221057D01*
X119530327Y-85957808D01*
X119186799Y-85815162D01*
X118814833Y-85814838D01*
X118760000Y-85837494D01*
X118760000Y-85312463D01*
X118792192Y-85280327D01*
X118934838Y-84936799D01*
X118935162Y-84564833D01*
X118809208Y-84260000D01*
X128000000Y-84260000D01*
X128290839Y-84202148D01*
X128537401Y-84037401D01*
X130889635Y-81685167D01*
X153064838Y-81685167D01*
X153206883Y-82028943D01*
X153469673Y-82292192D01*
X153813201Y-82434838D01*
X154185167Y-82435162D01*
X154486041Y-82310843D01*
X161064878Y-88889680D01*
X161064838Y-88935167D01*
X161206883Y-89278943D01*
X161469673Y-89542192D01*
X161813201Y-89684838D01*
X162185167Y-89685162D01*
X162528943Y-89543117D01*
X162792192Y-89280327D01*
X162934838Y-88936799D01*
X162935162Y-88564833D01*
X162793117Y-88221057D01*
X162530327Y-87957808D01*
X162186799Y-87815162D01*
X162139923Y-87815121D01*
X159263646Y-84938844D01*
X161389721Y-84938844D01*
X161634312Y-85530800D01*
X162086817Y-85984096D01*
X162678346Y-86229720D01*
X163318844Y-86230279D01*
X163910800Y-85985688D01*
X164364096Y-85533183D01*
X164609720Y-84941654D01*
X164610279Y-84301156D01*
X164365688Y-83709200D01*
X163913183Y-83255904D01*
X163321654Y-83010280D01*
X162681156Y-83009721D01*
X162089200Y-83254312D01*
X161635904Y-83706817D01*
X161390280Y-84298346D01*
X161389721Y-84938844D01*
X159263646Y-84938844D01*
X155287401Y-80962599D01*
X155040839Y-80797852D01*
X154750000Y-80740000D01*
X154562463Y-80740000D01*
X154530327Y-80707808D01*
X154186799Y-80565162D01*
X153814833Y-80564838D01*
X153471057Y-80706883D01*
X153207808Y-80969673D01*
X153065162Y-81313201D01*
X153064838Y-81685167D01*
X130889635Y-81685167D01*
X131537401Y-81037401D01*
X131702148Y-80790839D01*
X131760000Y-80500000D01*
X131760000Y-78831008D01*
X131802566Y-78802566D01*
X132048603Y-78434346D01*
X132135000Y-78000000D01*
X132135000Y-73000000D01*
X132048603Y-72565654D01*
X131802566Y-72197434D01*
X131434346Y-71951397D01*
X131000000Y-71865000D01*
X130565654Y-71951397D01*
X130197434Y-72197434D01*
X129951397Y-72565654D01*
X129865000Y-73000000D01*
X129865000Y-78000000D01*
X129951397Y-78434346D01*
X130197434Y-78802566D01*
X130240000Y-78831008D01*
X130240000Y-80185198D01*
X127685198Y-82740000D01*
X116000000Y-82740000D01*
X115757414Y-82788254D01*
X115709160Y-82797852D01*
X115462599Y-82962599D01*
X112360320Y-86064878D01*
X112314833Y-86064838D01*
X112010000Y-86190792D01*
X112010000Y-80564802D01*
X113639680Y-78935122D01*
X113685167Y-78935162D01*
X114028943Y-78793117D01*
X114292192Y-78530327D01*
X114434838Y-78186799D01*
X114435162Y-77814833D01*
X114293117Y-77471057D01*
X114030327Y-77207808D01*
X113686799Y-77065162D01*
X113314833Y-77064838D01*
X112971057Y-77206883D01*
X112707808Y-77469673D01*
X112565162Y-77813201D01*
X112565121Y-77860077D01*
X112090197Y-78335001D01*
X112043117Y-78221057D01*
X111780327Y-77957808D01*
X111436799Y-77815162D01*
X111064833Y-77814838D01*
X110865840Y-77897060D01*
X110793117Y-77721057D01*
X110530327Y-77457808D01*
X110186799Y-77315162D01*
X109814833Y-77314838D01*
X109471057Y-77456883D01*
X109207808Y-77719673D01*
X109065162Y-78063201D01*
X109065121Y-78110077D01*
X103685198Y-83490000D01*
X103500000Y-83490000D01*
X103293782Y-83531020D01*
X112389680Y-74435122D01*
X112435167Y-74435162D01*
X112778943Y-74293117D01*
X113042192Y-74030327D01*
X113184838Y-73686799D01*
X113185162Y-73314833D01*
X113043117Y-72971057D01*
X112780327Y-72707808D01*
X112436799Y-72565162D01*
X112064833Y-72564838D01*
X111721057Y-72706883D01*
X111457808Y-72969673D01*
X111315162Y-73313201D01*
X111315121Y-73360077D01*
X91610320Y-93064878D01*
X91564833Y-93064838D01*
X91221057Y-93206883D01*
X90957808Y-93469673D01*
X90815162Y-93813201D01*
X90814838Y-94185167D01*
X80710000Y-94185167D01*
X80710000Y-88125000D01*
X84477560Y-88125000D01*
X84477560Y-89875000D01*
X84521838Y-90110317D01*
X84660910Y-90326441D01*
X84873110Y-90471431D01*
X84889676Y-90474786D01*
X84720630Y-90643537D01*
X84490262Y-91198325D01*
X84489738Y-91799040D01*
X84719138Y-92354229D01*
X85143537Y-92779370D01*
X85698325Y-93009738D01*
X86299040Y-93010262D01*
X86854229Y-92780862D01*
X87279370Y-92356463D01*
X87500231Y-91824571D01*
X91139635Y-88185167D01*
X94314838Y-88185167D01*
X94456883Y-88528943D01*
X94719673Y-88792192D01*
X95063201Y-88934838D01*
X95435167Y-88935162D01*
X95778943Y-88793117D01*
X96042192Y-88530327D01*
X96184838Y-88186799D01*
X96185162Y-87814833D01*
X96043117Y-87471057D01*
X96010000Y-87437882D01*
X96010000Y-86314802D01*
X97139680Y-85185122D01*
X97185167Y-85185162D01*
X97528943Y-85043117D01*
X97792192Y-84780327D01*
X97934838Y-84436799D01*
X97935162Y-84064833D01*
X97793117Y-83721057D01*
X97530327Y-83457808D01*
X97186799Y-83315162D01*
X96814833Y-83314838D01*
X96471057Y-83456883D01*
X96207808Y-83719673D01*
X96065162Y-84063201D01*
X96065121Y-84110077D01*
X94712599Y-85462599D01*
X94547852Y-85709161D01*
X94490000Y-86000000D01*
X94490000Y-87437537D01*
X94457808Y-87469673D01*
X94315162Y-87813201D01*
X94314838Y-88185167D01*
X91139635Y-88185167D01*
X94889681Y-84435122D01*
X94935167Y-84435162D01*
X95278943Y-84293117D01*
X95542192Y-84030327D01*
X95684838Y-83686799D01*
X95685162Y-83314833D01*
X95543117Y-82971057D01*
X95280327Y-82707808D01*
X94936799Y-82565162D01*
X94564833Y-82564838D01*
X94221057Y-82706883D01*
X93957808Y-82969673D01*
X93815162Y-83313201D01*
X93815121Y-83360076D01*
X87522440Y-89652758D01*
X87522440Y-88552362D01*
X93139680Y-82935122D01*
X93185167Y-82935162D01*
X93528943Y-82793117D01*
X93792192Y-82530327D01*
X93934838Y-82186799D01*
X93935162Y-81814833D01*
X93793117Y-81471057D01*
X93530327Y-81207808D01*
X93186799Y-81065162D01*
X92814833Y-81064838D01*
X92471057Y-81206883D01*
X92207808Y-81469673D01*
X92065162Y-81813201D01*
X92065121Y-81860077D01*
X86447638Y-87477560D01*
X85125000Y-87477560D01*
X84889683Y-87521838D01*
X84673559Y-87660910D01*
X84528569Y-87873110D01*
X84477560Y-88125000D01*
X80710000Y-88125000D01*
X80710000Y-60625000D01*
X84477560Y-60625000D01*
X84477560Y-62375000D01*
X84521838Y-62610317D01*
X84660910Y-62826441D01*
X84873110Y-62971431D01*
X84889676Y-62974786D01*
X84720630Y-63143537D01*
X84490262Y-63698325D01*
X84489738Y-64299040D01*
X84719138Y-64854229D01*
X85143537Y-65279370D01*
X85698325Y-65509738D01*
X86185361Y-65510163D01*
X93564878Y-72889680D01*
X93564838Y-72935167D01*
X93706883Y-73278943D01*
X93969673Y-73542192D01*
X94313201Y-73684838D01*
X94685167Y-73685162D01*
X95028943Y-73543117D01*
X95292192Y-73280327D01*
X95434838Y-72936799D01*
X95435162Y-72564833D01*
X95293117Y-72221057D01*
X95030327Y-71957808D01*
X94686799Y-71815162D01*
X94639923Y-71815121D01*
X87397288Y-64572486D01*
X87509738Y-64301675D01*
X87510262Y-63700960D01*
X87428655Y-63503457D01*
X95064878Y-71139680D01*
X95064838Y-71185167D01*
X95206883Y-71528943D01*
X95469673Y-71792192D01*
X95813201Y-71934838D01*
X96185167Y-71935162D01*
X96528943Y-71793117D01*
X96792192Y-71530327D01*
X96934838Y-71186799D01*
X96935162Y-70814833D01*
X96793117Y-70471057D01*
X96530327Y-70207808D01*
X96186799Y-70065162D01*
X96139923Y-70065121D01*
X87522440Y-61447638D01*
X87522440Y-60625000D01*
X87478162Y-60389683D01*
X87339090Y-60173559D01*
X87126890Y-60028569D01*
X86875000Y-59977560D01*
X85125000Y-59977560D01*
X84889683Y-60021838D01*
X84673559Y-60160910D01*
X84528569Y-60373110D01*
X84477560Y-60625000D01*
X80710000Y-60625000D01*
X80710000Y-55250000D01*
X90865000Y-55250000D01*
X90865000Y-63750000D01*
X90951397Y-64184346D01*
X91189598Y-64540839D01*
X91197434Y-64552566D01*
X92697434Y-66052566D01*
X93065654Y-66298603D01*
X93500000Y-66385000D01*
X100529868Y-66385000D01*
X101365000Y-67220132D01*
X101365000Y-69500000D01*
X101451397Y-69934346D01*
X101697434Y-70302566D01*
X102065654Y-70548603D01*
X102500000Y-70635000D01*
X102934346Y-70548603D01*
X103302566Y-70302566D01*
X103548603Y-69934346D01*
X103635000Y-69500000D01*
X103635000Y-66750000D01*
X103548603Y-66315654D01*
X103302566Y-65947434D01*
X103260000Y-65904868D01*
X103260000Y-65760000D01*
X105000000Y-65760000D01*
X105290839Y-65702148D01*
X105537401Y-65537401D01*
X106086707Y-64988095D01*
X106206883Y-65278943D01*
X106469673Y-65542192D01*
X106740000Y-65654442D01*
X106740000Y-73187537D01*
X106707808Y-73219673D01*
X106565162Y-73563201D01*
X106564838Y-73935167D01*
X106706883Y-74278943D01*
X106969673Y-74542192D01*
X107313201Y-74684838D01*
X107685167Y-74685162D01*
X108028943Y-74543117D01*
X108292192Y-74280327D01*
X108434838Y-73936799D01*
X108435162Y-73564833D01*
X108293117Y-73221057D01*
X108260000Y-73187882D01*
X108260000Y-71685167D01*
X156314838Y-71685167D01*
X156456883Y-72028943D01*
X156490000Y-72062118D01*
X156490000Y-76187537D01*
X156457808Y-76219673D01*
X156315162Y-76563201D01*
X156314838Y-76935167D01*
X156456883Y-77278943D01*
X156719673Y-77542192D01*
X157063201Y-77684838D01*
X157435167Y-77685162D01*
X157778943Y-77543117D01*
X158003607Y-77318844D01*
X161389721Y-77318844D01*
X161634312Y-77910800D01*
X162086817Y-78364096D01*
X162678346Y-78609720D01*
X163318844Y-78610279D01*
X163910800Y-78365688D01*
X164364096Y-77913183D01*
X164609720Y-77321654D01*
X164610279Y-76681156D01*
X164365688Y-76089200D01*
X163913183Y-75635904D01*
X163321654Y-75390280D01*
X162681156Y-75389721D01*
X162089200Y-75634312D01*
X161635904Y-76086817D01*
X161390280Y-76678346D01*
X161389721Y-77318844D01*
X158003607Y-77318844D01*
X158042192Y-77280327D01*
X158184838Y-76936799D01*
X158185162Y-76564833D01*
X158043117Y-76221057D01*
X158010000Y-76187882D01*
X158010000Y-72062463D01*
X158042192Y-72030327D01*
X158184838Y-71686799D01*
X158185162Y-71314833D01*
X158043117Y-70971057D01*
X157780327Y-70707808D01*
X157436799Y-70565162D01*
X157064833Y-70564838D01*
X156721057Y-70706883D01*
X156457808Y-70969673D01*
X156315162Y-71313201D01*
X156314838Y-71685167D01*
X108260000Y-71685167D01*
X108260000Y-68438844D01*
X161389721Y-68438844D01*
X161634312Y-69030800D01*
X162086817Y-69484096D01*
X162678346Y-69729720D01*
X163318844Y-69730279D01*
X163910800Y-69485688D01*
X164364096Y-69033183D01*
X164609720Y-68441654D01*
X164610279Y-67801156D01*
X164365688Y-67209200D01*
X163913183Y-66755904D01*
X163321654Y-66510280D01*
X162681156Y-66509721D01*
X162089200Y-66754312D01*
X161635904Y-67206817D01*
X161390280Y-67798346D01*
X161389721Y-68438844D01*
X108260000Y-68438844D01*
X108260000Y-66584802D01*
X109712599Y-68037401D01*
X109959160Y-68202148D01*
X110250000Y-68260000D01*
X114937537Y-68260000D01*
X114969673Y-68292192D01*
X115313201Y-68434838D01*
X115685167Y-68435162D01*
X116028943Y-68293117D01*
X116292192Y-68030327D01*
X116434838Y-67686799D01*
X116435162Y-67314833D01*
X116293117Y-66971057D01*
X116030327Y-66707808D01*
X115686799Y-66565162D01*
X115314833Y-66564838D01*
X114971057Y-66706883D01*
X114937882Y-66740000D01*
X110564802Y-66740000D01*
X109510000Y-65685198D01*
X109510000Y-64500000D01*
X109452148Y-64209161D01*
X109287401Y-63962599D01*
X108287401Y-62962599D01*
X108040839Y-62797852D01*
X107750000Y-62740000D01*
X106500000Y-62740000D01*
X106209160Y-62797852D01*
X105962599Y-62962599D01*
X104685198Y-64240000D01*
X102500000Y-64240000D01*
X102209161Y-64297852D01*
X101962599Y-64462599D01*
X101904573Y-64549441D01*
X101802566Y-64447434D01*
X101584422Y-64301675D01*
X101434346Y-64201397D01*
X101000000Y-64115000D01*
X93970132Y-64115000D01*
X93135000Y-63279868D01*
X93135000Y-61385167D01*
X98264838Y-61385167D01*
X98406883Y-61728943D01*
X98669673Y-61992192D01*
X99013201Y-62134838D01*
X99385167Y-62135162D01*
X99728943Y-61993117D01*
X99762118Y-61960000D01*
X119685198Y-61960000D01*
X124064878Y-66339680D01*
X124064838Y-66385167D01*
X124206883Y-66728943D01*
X124469673Y-66992192D01*
X124813201Y-67134838D01*
X125185167Y-67135162D01*
X125528943Y-66993117D01*
X125792192Y-66730327D01*
X125864864Y-66555314D01*
X125864838Y-66585167D01*
X126006883Y-66928943D01*
X126269673Y-67192192D01*
X126613201Y-67334838D01*
X126985167Y-67335162D01*
X127328943Y-67193117D01*
X127592192Y-66930327D01*
X127734838Y-66586799D01*
X127735162Y-66214833D01*
X127593117Y-65871057D01*
X127330327Y-65607808D01*
X126986799Y-65465162D01*
X126939923Y-65465121D01*
X117737401Y-56262599D01*
X117490839Y-56097852D01*
X117200000Y-56040000D01*
X103962463Y-56040000D01*
X103930327Y-56007808D01*
X103586799Y-55865162D01*
X103214833Y-55864838D01*
X102871057Y-56006883D01*
X102607808Y-56269673D01*
X102465162Y-56613201D01*
X102464838Y-56985167D01*
X102606883Y-57328943D01*
X102869673Y-57592192D01*
X103213201Y-57734838D01*
X103585167Y-57735162D01*
X103928943Y-57593117D01*
X103962118Y-57560000D01*
X116885198Y-57560000D01*
X119765198Y-60440000D01*
X99762463Y-60440000D01*
X99730327Y-60407808D01*
X99386799Y-60265162D01*
X99014833Y-60264838D01*
X98671057Y-60406883D01*
X98407808Y-60669673D01*
X98265162Y-61013201D01*
X98264838Y-61385167D01*
X93135000Y-61385167D01*
X93135000Y-55720132D01*
X93970132Y-54885000D01*
X107250000Y-54885000D01*
X107684346Y-54798603D01*
X108052566Y-54552566D01*
X108220132Y-54385000D01*
X131615000Y-54385000D01*
X131615000Y-59529868D01*
X130197434Y-60947434D01*
X129951397Y-61315655D01*
X129865000Y-61750000D01*
X129951397Y-62184345D01*
X130197434Y-62552566D01*
X130565655Y-62798603D01*
X131000000Y-62885000D01*
X131434345Y-62798603D01*
X131802566Y-62552566D01*
X133536288Y-60818844D01*
X161389721Y-60818844D01*
X161634312Y-61410800D01*
X162086817Y-61864096D01*
X162678346Y-62109720D01*
X163318844Y-62110279D01*
X163910800Y-61865688D01*
X164364096Y-61413183D01*
X164609720Y-60821654D01*
X164610279Y-60181156D01*
X164365688Y-59589200D01*
X163913183Y-59135904D01*
X163321654Y-58890280D01*
X162681156Y-58889721D01*
X162089200Y-59134312D01*
X161635904Y-59586817D01*
X161390280Y-60178346D01*
X161389721Y-60818844D01*
X133536288Y-60818844D01*
X133552566Y-60802566D01*
X133560402Y-60790839D01*
X133798603Y-60434346D01*
X133885000Y-60000000D01*
X133885000Y-58985167D01*
X141664838Y-58985167D01*
X141806883Y-59328943D01*
X142069673Y-59592192D01*
X142413201Y-59734838D01*
X142785167Y-59735162D01*
X143128943Y-59593117D01*
X143392192Y-59330327D01*
X143534838Y-58986799D01*
X143534879Y-58939923D01*
X144937401Y-57537401D01*
X145102148Y-57290840D01*
X145117591Y-57213201D01*
X145160000Y-57000000D01*
X145160000Y-54962463D01*
X145192192Y-54930327D01*
X145334838Y-54586799D01*
X145335162Y-54214833D01*
X145193117Y-53871057D01*
X144930327Y-53607808D01*
X144586799Y-53465162D01*
X144214833Y-53464838D01*
X143871057Y-53606883D01*
X143607808Y-53869673D01*
X143465162Y-54213201D01*
X143464838Y-54585167D01*
X143606883Y-54928943D01*
X143640000Y-54962118D01*
X143640000Y-56685198D01*
X142460320Y-57864878D01*
X142414833Y-57864838D01*
X142071057Y-58006883D01*
X141807808Y-58269673D01*
X141665162Y-58613201D01*
X141664838Y-58985167D01*
X133885000Y-58985167D01*
X133885000Y-53250000D01*
X133875012Y-53199790D01*
X134314802Y-52760000D01*
X138384523Y-52760000D01*
X138271057Y-52806883D01*
X138007808Y-53069673D01*
X137865162Y-53413201D01*
X137864838Y-53785167D01*
X138006883Y-54128943D01*
X138040000Y-54162118D01*
X138040000Y-56837537D01*
X138007808Y-56869673D01*
X137865162Y-57213201D01*
X137864838Y-57585167D01*
X138006883Y-57928943D01*
X138269673Y-58192192D01*
X138613201Y-58334838D01*
X138985167Y-58335162D01*
X139328943Y-58193117D01*
X139592192Y-57930327D01*
X139734838Y-57586799D01*
X139735162Y-57214833D01*
X139593117Y-56871057D01*
X139560000Y-56837882D01*
X139560000Y-54162463D01*
X139592192Y-54130327D01*
X139734838Y-53786799D01*
X139735162Y-53414833D01*
X139593117Y-53071057D01*
X139330327Y-52807808D01*
X139215193Y-52760000D01*
X150685198Y-52760000D01*
X153712599Y-55787401D01*
X153959161Y-55952148D01*
X154250000Y-56010000D01*
X164937537Y-56010000D01*
X164969673Y-56042192D01*
X165313201Y-56184838D01*
X165685167Y-56185162D01*
X166028943Y-56043117D01*
X166292192Y-55780327D01*
X166434838Y-55436799D01*
X166435162Y-55064833D01*
X166293117Y-54721057D01*
X166030327Y-54457808D01*
X165686799Y-54315162D01*
X165314833Y-54314838D01*
X164971057Y-54456883D01*
X164937882Y-54490000D01*
X154564802Y-54490000D01*
X151537401Y-51462599D01*
X151290839Y-51297852D01*
X151000000Y-51240000D01*
X134000000Y-51240000D01*
X133709161Y-51297852D01*
X133462599Y-51462599D01*
X132800210Y-52124988D01*
X132750000Y-52115000D01*
X107750000Y-52115000D01*
X107315654Y-52201397D01*
X107057996Y-52373559D01*
X106947434Y-52447434D01*
X106779868Y-52615000D01*
X93500000Y-52615000D01*
X93065654Y-52701397D01*
X92697434Y-52947434D01*
X91197434Y-54447434D01*
X90951397Y-54815654D01*
X90865000Y-55250000D01*
X80710000Y-55250000D01*
X80710000Y-47740910D01*
X82438695Y-47740910D01*
X82805640Y-48236343D01*
X84211171Y-48829736D01*
X85736793Y-48840087D01*
X87150246Y-48265819D01*
X87194360Y-48236343D01*
X87561305Y-47740910D01*
X85000000Y-45179605D01*
X82438695Y-47740910D01*
X80710000Y-47740910D01*
X80710000Y-45736793D01*
X81159913Y-45736793D01*
X81734181Y-47150246D01*
X81763657Y-47194360D01*
X82259090Y-47561305D01*
X84820395Y-45000000D01*
X85179605Y-45000000D01*
X87740910Y-47561305D01*
X88236343Y-47194360D01*
X88719879Y-46049040D01*
X97489738Y-46049040D01*
X97719138Y-46604229D01*
X98143537Y-47029370D01*
X98698325Y-47259738D01*
X99299040Y-47260262D01*
X99854229Y-47030862D01*
X100023103Y-46862283D01*
X100160910Y-47076441D01*
X100373110Y-47221431D01*
X100625000Y-47272440D01*
X102375000Y-47272440D01*
X102610317Y-47228162D01*
X102826441Y-47089090D01*
X102971431Y-46876890D01*
X103022440Y-46625000D01*
X103022440Y-46049040D01*
X109489738Y-46049040D01*
X109719138Y-46604229D01*
X110143537Y-47029370D01*
X110698325Y-47259738D01*
X111299040Y-47260262D01*
X111854229Y-47030862D01*
X112250318Y-46635464D01*
X112643537Y-47029370D01*
X113198325Y-47259738D01*
X113799040Y-47260262D01*
X114354229Y-47030862D01*
X114750318Y-46635464D01*
X115143537Y-47029370D01*
X115698325Y-47259738D01*
X116299040Y-47260262D01*
X116854229Y-47030862D01*
X117032203Y-46853198D01*
X117086673Y-46984699D01*
X117265302Y-47163327D01*
X117498691Y-47260000D01*
X118214250Y-47260000D01*
X118373000Y-47101250D01*
X118373000Y-45877000D01*
X118627000Y-45877000D01*
X118627000Y-47101250D01*
X118785750Y-47260000D01*
X119501309Y-47260000D01*
X119734698Y-47163327D01*
X119913327Y-46984699D01*
X120010000Y-46751310D01*
X120010000Y-46049040D01*
X126489738Y-46049040D01*
X126719138Y-46604229D01*
X127143537Y-47029370D01*
X127698325Y-47259738D01*
X128299040Y-47260262D01*
X128854229Y-47030862D01*
X129023103Y-46862283D01*
X129160910Y-47076441D01*
X129373110Y-47221431D01*
X129625000Y-47272440D01*
X131375000Y-47272440D01*
X131610317Y-47228162D01*
X131826441Y-47089090D01*
X131971431Y-46876890D01*
X132022440Y-46625000D01*
X132022440Y-46049040D01*
X139239738Y-46049040D01*
X139469138Y-46604229D01*
X139893537Y-47029370D01*
X140448325Y-47259738D01*
X141049040Y-47260262D01*
X141604229Y-47030862D01*
X142000318Y-46635464D01*
X142393537Y-47029370D01*
X142948325Y-47259738D01*
X143549040Y-47260262D01*
X144104229Y-47030862D01*
X144500318Y-46635464D01*
X144893537Y-47029370D01*
X145448325Y-47259738D01*
X146049040Y-47260262D01*
X146604229Y-47030862D01*
X147000318Y-46635464D01*
X147393537Y-47029370D01*
X147948325Y-47259738D01*
X148549040Y-47260262D01*
X149104229Y-47030862D01*
X149282203Y-46853198D01*
X149336673Y-46984699D01*
X149515302Y-47163327D01*
X149748691Y-47260000D01*
X150464250Y-47260000D01*
X150623000Y-47101250D01*
X150623000Y-45877000D01*
X150877000Y-45877000D01*
X150877000Y-47101250D01*
X151035750Y-47260000D01*
X151751309Y-47260000D01*
X151984698Y-47163327D01*
X152163327Y-46984699D01*
X152260000Y-46751310D01*
X152260000Y-46049040D01*
X159239738Y-46049040D01*
X159469138Y-46604229D01*
X159893537Y-47029370D01*
X160448325Y-47259738D01*
X161049040Y-47260262D01*
X161604229Y-47030862D01*
X162000318Y-46635464D01*
X162393537Y-47029370D01*
X162948325Y-47259738D01*
X163549040Y-47260262D01*
X164104229Y-47030862D01*
X164273103Y-46862283D01*
X164410910Y-47076441D01*
X164623110Y-47221431D01*
X164875000Y-47272440D01*
X166625000Y-47272440D01*
X166860317Y-47228162D01*
X167076441Y-47089090D01*
X167221431Y-46876890D01*
X167272440Y-46625000D01*
X167272440Y-45515306D01*
X174978410Y-45515306D01*
X175004421Y-46115458D01*
X175184047Y-46549116D01*
X175437940Y-46632455D01*
X176320395Y-45750000D01*
X175437940Y-44867545D01*
X175184047Y-44950884D01*
X174978410Y-45515306D01*
X167272440Y-45515306D01*
X167272440Y-44875000D01*
X167228162Y-44639683D01*
X167089090Y-44423559D01*
X166876890Y-44278569D01*
X166625000Y-44227560D01*
X164875000Y-44227560D01*
X164639683Y-44271838D01*
X164423559Y-44410910D01*
X164278569Y-44623110D01*
X164275214Y-44639676D01*
X164106463Y-44470630D01*
X163551675Y-44240262D01*
X162950960Y-44239738D01*
X162395771Y-44469138D01*
X161999682Y-44864536D01*
X161606463Y-44470630D01*
X161051675Y-44240262D01*
X160450960Y-44239738D01*
X159895771Y-44469138D01*
X159470630Y-44893537D01*
X159240262Y-45448325D01*
X159239738Y-46049040D01*
X152260000Y-46049040D01*
X152260000Y-46035750D01*
X152101250Y-45877000D01*
X150877000Y-45877000D01*
X150623000Y-45877000D01*
X150603000Y-45877000D01*
X150603000Y-45623000D01*
X150623000Y-45623000D01*
X150623000Y-44398750D01*
X150877000Y-44398750D01*
X150877000Y-45623000D01*
X152101250Y-45623000D01*
X152260000Y-45464250D01*
X152260000Y-44748690D01*
X152163327Y-44515301D01*
X151984698Y-44336673D01*
X151751309Y-44240000D01*
X151035750Y-44240000D01*
X150877000Y-44398750D01*
X150623000Y-44398750D01*
X150464250Y-44240000D01*
X149748691Y-44240000D01*
X149515302Y-44336673D01*
X149336673Y-44515301D01*
X149282240Y-44646714D01*
X149106463Y-44470630D01*
X148551675Y-44240262D01*
X147950960Y-44239738D01*
X147395771Y-44469138D01*
X146999682Y-44864536D01*
X146606463Y-44470630D01*
X146051675Y-44240262D01*
X145450960Y-44239738D01*
X144895771Y-44469138D01*
X144499682Y-44864536D01*
X144106463Y-44470630D01*
X143551675Y-44240262D01*
X142950960Y-44239738D01*
X142395771Y-44469138D01*
X141999682Y-44864536D01*
X141606463Y-44470630D01*
X141051675Y-44240262D01*
X140450960Y-44239738D01*
X139895771Y-44469138D01*
X139470630Y-44893537D01*
X139240262Y-45448325D01*
X139239738Y-46049040D01*
X132022440Y-46049040D01*
X132022440Y-44875000D01*
X131978162Y-44639683D01*
X131839090Y-44423559D01*
X131626890Y-44278569D01*
X131375000Y-44227560D01*
X129625000Y-44227560D01*
X129389683Y-44271838D01*
X129173559Y-44410910D01*
X129028569Y-44623110D01*
X129025214Y-44639676D01*
X128856463Y-44470630D01*
X128301675Y-44240262D01*
X127700960Y-44239738D01*
X127145771Y-44469138D01*
X126720630Y-44893537D01*
X126490262Y-45448325D01*
X126489738Y-46049040D01*
X120010000Y-46049040D01*
X120010000Y-46035750D01*
X119851250Y-45877000D01*
X118627000Y-45877000D01*
X118373000Y-45877000D01*
X118353000Y-45877000D01*
X118353000Y-45623000D01*
X118373000Y-45623000D01*
X118373000Y-44398750D01*
X118627000Y-44398750D01*
X118627000Y-45623000D01*
X119851250Y-45623000D01*
X120010000Y-45464250D01*
X120010000Y-44748690D01*
X119913327Y-44515301D01*
X119734698Y-44336673D01*
X119501309Y-44240000D01*
X118785750Y-44240000D01*
X118627000Y-44398750D01*
X118373000Y-44398750D01*
X118214250Y-44240000D01*
X117498691Y-44240000D01*
X117265302Y-44336673D01*
X117086673Y-44515301D01*
X117032240Y-44646714D01*
X116856463Y-44470630D01*
X116301675Y-44240262D01*
X115700960Y-44239738D01*
X115145771Y-44469138D01*
X114749682Y-44864536D01*
X114356463Y-44470630D01*
X113801675Y-44240262D01*
X113200960Y-44239738D01*
X112645771Y-44469138D01*
X112249682Y-44864536D01*
X111856463Y-44470630D01*
X111301675Y-44240262D01*
X110700960Y-44239738D01*
X110145771Y-44469138D01*
X109720630Y-44893537D01*
X109490262Y-45448325D01*
X109489738Y-46049040D01*
X103022440Y-46049040D01*
X103022440Y-44875000D01*
X102978162Y-44639683D01*
X102839090Y-44423559D01*
X102626890Y-44278569D01*
X102375000Y-44227560D01*
X100625000Y-44227560D01*
X100389683Y-44271838D01*
X100173559Y-44410910D01*
X100028569Y-44623110D01*
X100025214Y-44639676D01*
X99856463Y-44470630D01*
X99301675Y-44240262D01*
X98700960Y-44239738D01*
X98145771Y-44469138D01*
X97720630Y-44893537D01*
X97490262Y-45448325D01*
X97489738Y-46049040D01*
X88719879Y-46049040D01*
X88829736Y-45788829D01*
X88840087Y-44263207D01*
X88265819Y-42849754D01*
X88236343Y-42805640D01*
X87740910Y-42438695D01*
X85179605Y-45000000D01*
X84820395Y-45000000D01*
X82259090Y-42438695D01*
X81763657Y-42805640D01*
X81170264Y-44211171D01*
X81159913Y-45736793D01*
X80710000Y-45736793D01*
X80710000Y-42259090D01*
X82438695Y-42259090D01*
X85000000Y-44820395D01*
X87561305Y-42259090D01*
X192438695Y-42259090D01*
X195000000Y-44820395D01*
X197561305Y-42259090D01*
X197194360Y-41763657D01*
X195788829Y-41170264D01*
X194263207Y-41159913D01*
X192849754Y-41734181D01*
X192805640Y-41763657D01*
X192438695Y-42259090D01*
X87561305Y-42259090D01*
X87194360Y-41763657D01*
X85788829Y-41170264D01*
X84263207Y-41159913D01*
X82849754Y-41734181D01*
X82805640Y-41763657D01*
X82438695Y-42259090D01*
X80710000Y-42259090D01*
X80710000Y-40710000D01*
X199290000Y-40710000D01*
X199290000Y-114290000D01*
X199290000Y-114290000D01*
G37*
X199290000Y-114290000D02*
X80710000Y-114290000D01*
X80710000Y-112740910D01*
X82438695Y-112740910D01*
X82805640Y-113236343D01*
X84211171Y-113829736D01*
X85736793Y-113840087D01*
X87150246Y-113265819D01*
X87194360Y-113236343D01*
X87561305Y-112740910D01*
X192438695Y-112740910D01*
X192805640Y-113236343D01*
X194211171Y-113829736D01*
X195736793Y-113840087D01*
X197150246Y-113265819D01*
X197194360Y-113236343D01*
X197561305Y-112740910D01*
X195000000Y-110179605D01*
X192438695Y-112740910D01*
X87561305Y-112740910D01*
X85000000Y-110179605D01*
X82438695Y-112740910D01*
X80710000Y-112740910D01*
X80710000Y-110736793D01*
X81159913Y-110736793D01*
X81734181Y-112150246D01*
X81763657Y-112194360D01*
X82259090Y-112561305D01*
X84820395Y-110000000D01*
X85179605Y-110000000D01*
X87740910Y-112561305D01*
X88236343Y-112194360D01*
X88829736Y-110788829D01*
X88830089Y-110736793D01*
X191159913Y-110736793D01*
X191734181Y-112150246D01*
X191763657Y-112194360D01*
X192259090Y-112561305D01*
X194820395Y-110000000D01*
X195179605Y-110000000D01*
X197740910Y-112561305D01*
X198236343Y-112194360D01*
X198829736Y-110788829D01*
X198840087Y-109263207D01*
X198265819Y-107849754D01*
X198236343Y-107805640D01*
X197740910Y-107438695D01*
X195179605Y-110000000D01*
X194820395Y-110000000D01*
X192259090Y-107438695D01*
X191763657Y-107805640D01*
X191170264Y-109211171D01*
X191159913Y-110736793D01*
X88830089Y-110736793D01*
X88840087Y-109263207D01*
X88265819Y-107849754D01*
X88236343Y-107805640D01*
X87740910Y-107438695D01*
X85179605Y-110000000D01*
X84820395Y-110000000D01*
X82259090Y-107438695D01*
X81763657Y-107805640D01*
X81170264Y-109211171D01*
X81159913Y-110736793D01*
X80710000Y-110736793D01*
X80710000Y-107259090D01*
X82438695Y-107259090D01*
X85000000Y-109820395D01*
X87561305Y-107259090D01*
X192438695Y-107259090D01*
X195000000Y-109820395D01*
X197561305Y-107259090D01*
X197194360Y-106763657D01*
X195788829Y-106170264D01*
X194263207Y-106159913D01*
X192849754Y-106734181D01*
X192805640Y-106763657D01*
X192438695Y-107259090D01*
X87561305Y-107259090D01*
X87194360Y-106763657D01*
X85788829Y-106170264D01*
X84263207Y-106159913D01*
X82849754Y-106734181D01*
X82805640Y-106763657D01*
X82438695Y-107259090D01*
X80710000Y-107259090D01*
X80710000Y-94185167D01*
X90814838Y-94185167D01*
X90956883Y-94528943D01*
X91219673Y-94792192D01*
X91563201Y-94934838D01*
X91935167Y-94935162D01*
X92278943Y-94793117D01*
X92542192Y-94530327D01*
X92684838Y-94186799D01*
X92684879Y-94139923D01*
X100064991Y-86759811D01*
X100064838Y-86935167D01*
X100206883Y-87278943D01*
X100469673Y-87542192D01*
X100813201Y-87684838D01*
X101185167Y-87685162D01*
X101528943Y-87543117D01*
X101792192Y-87280327D01*
X101934838Y-86936799D01*
X101934879Y-86889923D01*
X102751332Y-86073470D01*
X102969673Y-86292192D01*
X103313201Y-86434838D01*
X103685167Y-86435162D01*
X104028943Y-86293117D01*
X104062118Y-86260000D01*
X104500000Y-86260000D01*
X104790839Y-86202148D01*
X105037401Y-86037401D01*
X110490000Y-80584802D01*
X110490000Y-99500000D01*
X110547852Y-99790839D01*
X110712599Y-100037401D01*
X113212599Y-102537401D01*
X113459161Y-102702148D01*
X113750000Y-102760000D01*
X122185198Y-102760000D01*
X123314878Y-103889680D01*
X123314838Y-103935167D01*
X123456883Y-104278943D01*
X123719673Y-104542192D01*
X124063201Y-104684838D01*
X124435167Y-104685162D01*
X124778943Y-104543117D01*
X125042192Y-104280327D01*
X125184838Y-103936799D01*
X125185162Y-103564833D01*
X125043117Y-103221057D01*
X124780327Y-102957808D01*
X124436799Y-102815162D01*
X124389923Y-102815121D01*
X123037401Y-101462599D01*
X122790839Y-101297852D01*
X122500000Y-101240000D01*
X114064802Y-101240000D01*
X112471606Y-99646804D01*
X112563201Y-99684838D01*
X112935167Y-99685162D01*
X113278943Y-99543117D01*
X113542192Y-99280327D01*
X113684838Y-98936799D01*
X113685162Y-98564833D01*
X113543117Y-98221057D01*
X113510000Y-98187882D01*
X113510000Y-93062463D01*
X113542192Y-93030327D01*
X113684838Y-92686799D01*
X113685162Y-92314833D01*
X113543117Y-91971057D01*
X113280327Y-91707808D01*
X113260000Y-91699367D01*
X113260000Y-87562463D01*
X113292192Y-87530327D01*
X113434838Y-87186799D01*
X113434879Y-87139923D01*
X115814991Y-84759811D01*
X115814838Y-84935167D01*
X115956883Y-85278943D01*
X115990000Y-85312118D01*
X115990000Y-94687537D01*
X115957808Y-94719673D01*
X115815162Y-95063201D01*
X115814838Y-95435167D01*
X115956883Y-95778943D01*
X116219673Y-96042192D01*
X116563201Y-96184838D01*
X116935167Y-96185162D01*
X117278943Y-96043117D01*
X117542192Y-95780327D01*
X117684838Y-95436799D01*
X117685162Y-95064833D01*
X117543117Y-94721057D01*
X117510000Y-94687882D01*
X117510000Y-93058937D01*
X117813201Y-93184838D01*
X118185167Y-93185162D01*
X118240000Y-93162506D01*
X118240000Y-93500000D01*
X118297852Y-93790839D01*
X118462599Y-94037401D01*
X127314878Y-102889680D01*
X127314838Y-102935167D01*
X127456883Y-103278943D01*
X127719673Y-103542192D01*
X128063201Y-103684838D01*
X128435167Y-103685162D01*
X128778943Y-103543117D01*
X129042192Y-103280327D01*
X129125028Y-103080838D01*
X129206883Y-103278943D01*
X129469673Y-103542192D01*
X129813201Y-103684838D01*
X130185167Y-103685162D01*
X130528943Y-103543117D01*
X130792192Y-103280327D01*
X130934838Y-102936799D01*
X130935162Y-102564833D01*
X130793117Y-102221057D01*
X130530327Y-101957808D01*
X130186799Y-101815162D01*
X130139923Y-101815121D01*
X125435122Y-97110320D01*
X125435162Y-97064833D01*
X125293117Y-96721057D01*
X125030327Y-96457808D01*
X124686799Y-96315162D01*
X124314833Y-96314838D01*
X123971057Y-96456883D01*
X123707808Y-96719673D01*
X123586534Y-97011732D01*
X121009969Y-94435167D01*
X128064838Y-94435167D01*
X128206883Y-94778943D01*
X128469673Y-95042192D01*
X128813201Y-95184838D01*
X128860077Y-95184879D01*
X129490000Y-95814802D01*
X129490000Y-100250000D01*
X129547852Y-100540839D01*
X129712599Y-100787401D01*
X134314878Y-105389680D01*
X134314838Y-105435167D01*
X134456883Y-105778943D01*
X134719673Y-106042192D01*
X135063201Y-106184838D01*
X135435167Y-106185162D01*
X135778943Y-106043117D01*
X136042192Y-105780327D01*
X136184838Y-105436799D01*
X136185162Y-105064833D01*
X136043117Y-104721057D01*
X135780327Y-104457808D01*
X135436799Y-104315162D01*
X135389923Y-104315121D01*
X133013646Y-101938844D01*
X161389721Y-101938844D01*
X161634312Y-102530800D01*
X162086817Y-102984096D01*
X162678346Y-103229720D01*
X163318844Y-103230279D01*
X163910800Y-102985688D01*
X164364096Y-102533183D01*
X164609720Y-101941654D01*
X164609722Y-101938844D01*
X171549721Y-101938844D01*
X171794312Y-102530800D01*
X172246817Y-102984096D01*
X172838346Y-103229720D01*
X173478844Y-103230279D01*
X174070800Y-102985688D01*
X174524096Y-102533183D01*
X174769720Y-101941654D01*
X174769722Y-101938844D01*
X179169721Y-101938844D01*
X179414312Y-102530800D01*
X179866817Y-102984096D01*
X180458346Y-103229720D01*
X181098844Y-103230279D01*
X181690800Y-102985688D01*
X182144096Y-102533183D01*
X182382102Y-101960000D01*
X191823173Y-101960000D01*
X191960951Y-102652657D01*
X192353310Y-103239863D01*
X192940516Y-103632222D01*
X193633173Y-103770000D01*
X194366827Y-103770000D01*
X195059484Y-103632222D01*
X195646690Y-103239863D01*
X196039049Y-102652657D01*
X196176827Y-101960000D01*
X196039049Y-101267343D01*
X195646690Y-100680137D01*
X195059484Y-100287778D01*
X194366827Y-100150000D01*
X193633173Y-100150000D01*
X192940516Y-100287778D01*
X192353310Y-100680137D01*
X191960951Y-101267343D01*
X191823173Y-101960000D01*
X182382102Y-101960000D01*
X182389720Y-101941654D01*
X182390279Y-101301156D01*
X182145688Y-100709200D01*
X181693183Y-100255904D01*
X181101654Y-100010280D01*
X180461156Y-100009721D01*
X179869200Y-100254312D01*
X179415904Y-100706817D01*
X179170280Y-101298346D01*
X179169721Y-101938844D01*
X174769722Y-101938844D01*
X174770279Y-101301156D01*
X174525688Y-100709200D01*
X174073183Y-100255904D01*
X173481654Y-100010280D01*
X172841156Y-100009721D01*
X172249200Y-100254312D01*
X171795904Y-100706817D01*
X171550280Y-101298346D01*
X171549721Y-101938844D01*
X164609722Y-101938844D01*
X164609891Y-101745241D01*
X168069382Y-98285750D01*
X191865000Y-98285750D01*
X191865000Y-99301309D01*
X191961673Y-99534698D01*
X192140301Y-99713327D01*
X192373690Y-99810000D01*
X193714250Y-99810000D01*
X193873000Y-99651250D01*
X193873000Y-98127000D01*
X194127000Y-98127000D01*
X194127000Y-99651250D01*
X194285750Y-99810000D01*
X195626310Y-99810000D01*
X195859699Y-99713327D01*
X196038327Y-99534698D01*
X196135000Y-99301309D01*
X196135000Y-98285750D01*
X195976250Y-98127000D01*
X194127000Y-98127000D01*
X193873000Y-98127000D01*
X192023750Y-98127000D01*
X191865000Y-98285750D01*
X168069382Y-98285750D01*
X169052566Y-97302567D01*
X169298603Y-96934346D01*
X169345477Y-96698691D01*
X191865000Y-96698691D01*
X191865000Y-97714250D01*
X192023750Y-97873000D01*
X193873000Y-97873000D01*
X193873000Y-96348750D01*
X194127000Y-96348750D01*
X194127000Y-97873000D01*
X195976250Y-97873000D01*
X196135000Y-97714250D01*
X196135000Y-96698691D01*
X196038327Y-96465302D01*
X195859699Y-96286673D01*
X195626310Y-96190000D01*
X194285750Y-96190000D01*
X194127000Y-96348750D01*
X193873000Y-96348750D01*
X193714250Y-96190000D01*
X192373690Y-96190000D01*
X192140301Y-96286673D01*
X191961673Y-96465302D01*
X191865000Y-96698691D01*
X169345477Y-96698691D01*
X169385000Y-96500000D01*
X169385000Y-92435167D01*
X169564838Y-92435167D01*
X169706883Y-92778943D01*
X169969673Y-93042192D01*
X170313201Y-93184838D01*
X170685167Y-93185162D01*
X171028943Y-93043117D01*
X171062118Y-93010000D01*
X176952855Y-93010000D01*
X176875904Y-93086817D01*
X176630280Y-93678346D01*
X176629721Y-94318844D01*
X176874312Y-94910800D01*
X177326817Y-95364096D01*
X177918346Y-95609720D01*
X178558844Y-95610279D01*
X179150800Y-95365688D01*
X179604096Y-94913183D01*
X179849720Y-94321654D01*
X179850279Y-93681156D01*
X179605688Y-93089200D01*
X179153183Y-92635904D01*
X178825121Y-92499681D01*
X192564802Y-78760000D01*
X192680203Y-78760000D01*
X192719138Y-78854229D01*
X192887717Y-79023103D01*
X192673559Y-79160910D01*
X192528569Y-79373110D01*
X192477560Y-79625000D01*
X192477560Y-81375000D01*
X192521838Y-81610317D01*
X192660910Y-81826441D01*
X192873110Y-81971431D01*
X193125000Y-82022440D01*
X194875000Y-82022440D01*
X195110317Y-81978162D01*
X195326441Y-81839090D01*
X195471431Y-81626890D01*
X195522440Y-81375000D01*
X195522440Y-79625000D01*
X195478162Y-79389683D01*
X195339090Y-79173559D01*
X195126890Y-79028569D01*
X195110324Y-79025214D01*
X195279370Y-78856463D01*
X195509738Y-78301675D01*
X195510262Y-77700960D01*
X195280862Y-77145771D01*
X194856463Y-76720630D01*
X194301675Y-76490262D01*
X193700960Y-76489738D01*
X193145771Y-76719138D01*
X192720630Y-77143537D01*
X192680575Y-77240000D01*
X192250000Y-77240000D01*
X192011701Y-77287401D01*
X191959160Y-77297852D01*
X191712599Y-77462599D01*
X177685198Y-91490000D01*
X171062463Y-91490000D01*
X171030327Y-91457808D01*
X170686799Y-91315162D01*
X170314833Y-91314838D01*
X169971057Y-91456883D01*
X169707808Y-91719673D01*
X169565162Y-92063201D01*
X169564838Y-92435167D01*
X169385000Y-92435167D01*
X169385000Y-73340000D01*
X170525000Y-73340000D01*
X170525000Y-84620000D01*
X170725577Y-85628371D01*
X171296774Y-86483226D01*
X172151629Y-87054423D01*
X173160000Y-87255000D01*
X174168371Y-87054423D01*
X175023226Y-86483226D01*
X175594423Y-85628371D01*
X175731578Y-84938844D01*
X179169721Y-84938844D01*
X179414312Y-85530800D01*
X179866817Y-85984096D01*
X180458346Y-86229720D01*
X181098844Y-86230279D01*
X181690800Y-85985688D01*
X182144096Y-85533183D01*
X182389720Y-84941654D01*
X182390279Y-84301156D01*
X182145688Y-83709200D01*
X181693183Y-83255904D01*
X181101654Y-83010280D01*
X180461156Y-83009721D01*
X179869200Y-83254312D01*
X179415904Y-83706817D01*
X179170280Y-84298346D01*
X179169721Y-84938844D01*
X175731578Y-84938844D01*
X175795000Y-84620000D01*
X175795000Y-78134442D01*
X177285163Y-78134442D01*
X177380763Y-78398704D01*
X177981429Y-78621049D01*
X178621461Y-78596605D01*
X179099237Y-78398704D01*
X179194837Y-78134442D01*
X178240000Y-77179605D01*
X177285163Y-78134442D01*
X175795000Y-78134442D01*
X175795000Y-76741429D01*
X176618951Y-76741429D01*
X176643395Y-77381461D01*
X176841296Y-77859237D01*
X177105558Y-77954837D01*
X178060395Y-77000000D01*
X178419605Y-77000000D01*
X179374442Y-77954837D01*
X179638704Y-77859237D01*
X179861049Y-77258571D01*
X179836605Y-76618539D01*
X179638704Y-76140763D01*
X179374442Y-76045163D01*
X178419605Y-77000000D01*
X178060395Y-77000000D01*
X177105558Y-76045163D01*
X176841296Y-76140763D01*
X176618951Y-76741429D01*
X175795000Y-76741429D01*
X175795000Y-75385000D01*
X178340186Y-75385000D01*
X177858539Y-75403395D01*
X177380763Y-75601296D01*
X177285163Y-75865558D01*
X178240000Y-76820395D01*
X179194837Y-75865558D01*
X179099237Y-75601296D01*
X178514912Y-75385000D01*
X184750000Y-75385000D01*
X185758371Y-75184423D01*
X186613226Y-74613226D01*
X188613226Y-72613226D01*
X189184423Y-71758371D01*
X189195606Y-71702148D01*
X189385000Y-70750000D01*
X189385000Y-68625000D01*
X192477560Y-68625000D01*
X192477560Y-70375000D01*
X192521838Y-70610317D01*
X192660910Y-70826441D01*
X192873110Y-70971431D01*
X193125000Y-71022440D01*
X194875000Y-71022440D01*
X195110317Y-70978162D01*
X195326441Y-70839090D01*
X195471431Y-70626890D01*
X195522440Y-70375000D01*
X195522440Y-68625000D01*
X195478162Y-68389683D01*
X195339090Y-68173559D01*
X195126890Y-68028569D01*
X195110324Y-68025214D01*
X195279370Y-67856463D01*
X195509738Y-67301675D01*
X195510262Y-66700960D01*
X195280862Y-66145771D01*
X194856463Y-65720630D01*
X194301675Y-65490262D01*
X193700960Y-65489738D01*
X193145771Y-65719138D01*
X192720630Y-66143537D01*
X192490262Y-66698325D01*
X192489738Y-67299040D01*
X192719138Y-67854229D01*
X192887717Y-68023103D01*
X192673559Y-68160910D01*
X192528569Y-68373110D01*
X192477560Y-68625000D01*
X189385000Y-68625000D01*
X189385000Y-66091452D01*
X195230356Y-60246097D01*
X195863226Y-59823226D01*
X196434423Y-58968371D01*
X196635000Y-57960000D01*
X196434423Y-56951629D01*
X195863226Y-56096774D01*
X195467792Y-55832553D01*
X195482926Y-55822440D01*
X195500000Y-55822440D01*
X195735317Y-55778162D01*
X195951441Y-55639090D01*
X196096431Y-55426890D01*
X196147440Y-55175000D01*
X196147440Y-54996529D01*
X196203453Y-54912700D01*
X196385000Y-54000000D01*
X196203453Y-53087300D01*
X196147440Y-53003471D01*
X196147440Y-52825000D01*
X196103162Y-52589683D01*
X195964090Y-52373559D01*
X195751890Y-52228569D01*
X195500000Y-52177560D01*
X195482926Y-52177560D01*
X194912700Y-51796547D01*
X194000000Y-51615000D01*
X176000005Y-51615000D01*
X176000000Y-51614999D01*
X175087300Y-51796547D01*
X174313550Y-52313550D01*
X174313548Y-52313553D01*
X171473550Y-55153550D01*
X170956547Y-55927300D01*
X170775000Y-56840000D01*
X170775000Y-68120000D01*
X170956547Y-69032700D01*
X171473550Y-69806450D01*
X172247300Y-70323453D01*
X172619146Y-70397418D01*
X171886774Y-70886774D01*
X171296774Y-71476774D01*
X170725577Y-72331629D01*
X170525000Y-73340000D01*
X169385000Y-73340000D01*
X169385000Y-56720132D01*
X176220132Y-49885000D01*
X178750000Y-49885000D01*
X179184346Y-49798603D01*
X179552566Y-49552566D01*
X179802566Y-49302566D01*
X180048603Y-48934346D01*
X180069411Y-48829736D01*
X180135000Y-48500000D01*
X180135000Y-47740910D01*
X192438695Y-47740910D01*
X192805640Y-48236343D01*
X194211171Y-48829736D01*
X195736793Y-48840087D01*
X197150246Y-48265819D01*
X197194360Y-48236343D01*
X197561305Y-47740910D01*
X195000000Y-45179605D01*
X192438695Y-47740910D01*
X180135000Y-47740910D01*
X180135000Y-47212279D01*
X180326441Y-47089090D01*
X180471431Y-46876890D01*
X180522440Y-46625000D01*
X180522440Y-45736793D01*
X191159913Y-45736793D01*
X191734181Y-47150246D01*
X191763657Y-47194360D01*
X192259090Y-47561305D01*
X194820395Y-45000000D01*
X195179605Y-45000000D01*
X197740910Y-47561305D01*
X198236343Y-47194360D01*
X198829736Y-45788829D01*
X198840087Y-44263207D01*
X198265819Y-42849754D01*
X198236343Y-42805640D01*
X197740910Y-42438695D01*
X195179605Y-45000000D01*
X194820395Y-45000000D01*
X192259090Y-42438695D01*
X191763657Y-42805640D01*
X191170264Y-44211171D01*
X191159913Y-45736793D01*
X180522440Y-45736793D01*
X180522440Y-44875000D01*
X180478162Y-44639683D01*
X180339090Y-44423559D01*
X180126890Y-44278569D01*
X179875000Y-44227560D01*
X178125000Y-44227560D01*
X177889683Y-44271838D01*
X177673559Y-44410910D01*
X177536006Y-44612226D01*
X177497086Y-44573306D01*
X177382454Y-44687938D01*
X177299116Y-44434047D01*
X176734694Y-44228410D01*
X176134542Y-44254421D01*
X175700884Y-44434047D01*
X175617545Y-44687940D01*
X176500000Y-45570395D01*
X176514143Y-45556253D01*
X176693748Y-45735858D01*
X176679605Y-45750000D01*
X176693748Y-45764143D01*
X176514143Y-45943748D01*
X176500000Y-45929605D01*
X175617545Y-46812060D01*
X175700884Y-47065953D01*
X176265306Y-47271590D01*
X176865458Y-47245579D01*
X177299116Y-47065953D01*
X177382454Y-46812062D01*
X177497086Y-46926694D01*
X177538136Y-46885644D01*
X177660910Y-47076441D01*
X177865000Y-47215890D01*
X177865000Y-47615000D01*
X175750000Y-47615000D01*
X175315654Y-47701397D01*
X174947434Y-47947434D01*
X167447434Y-55447434D01*
X167201397Y-55815654D01*
X167115000Y-56250000D01*
X167115000Y-96029867D01*
X163134751Y-100010117D01*
X162681156Y-100009721D01*
X162089200Y-100254312D01*
X161635904Y-100706817D01*
X161390280Y-101298346D01*
X161389721Y-101938844D01*
X133013646Y-101938844D01*
X131010000Y-99935198D01*
X131010000Y-95500000D01*
X130952148Y-95209161D01*
X130787401Y-94962599D01*
X130143646Y-94318844D01*
X161389721Y-94318844D01*
X161634312Y-94910800D01*
X162086817Y-95364096D01*
X162678346Y-95609720D01*
X163318844Y-95610279D01*
X163910800Y-95365688D01*
X164364096Y-94913183D01*
X164609720Y-94321654D01*
X164610279Y-93681156D01*
X164365688Y-93089200D01*
X163913183Y-92635904D01*
X163321654Y-92390280D01*
X162681156Y-92389721D01*
X162089200Y-92634312D01*
X161635904Y-93086817D01*
X161390280Y-93678346D01*
X161389721Y-94318844D01*
X130143646Y-94318844D01*
X130074802Y-94250000D01*
X136037401Y-88287401D01*
X136202148Y-88040839D01*
X136260000Y-87750000D01*
X136260000Y-87312463D01*
X136292192Y-87280327D01*
X136434838Y-86936799D01*
X136435162Y-86564833D01*
X136293117Y-86221057D01*
X136030327Y-85957808D01*
X135686799Y-85815162D01*
X135314833Y-85814838D01*
X134971057Y-85956883D01*
X134707808Y-86219673D01*
X134565162Y-86563201D01*
X134564838Y-86935167D01*
X134706883Y-87278943D01*
X134740000Y-87312118D01*
X134740000Y-87435198D01*
X128860320Y-93314878D01*
X128814833Y-93314838D01*
X128471057Y-93456883D01*
X128207808Y-93719673D01*
X128065162Y-94063201D01*
X128064838Y-94435167D01*
X121009969Y-94435167D01*
X119760000Y-93185198D01*
X119760000Y-87312463D01*
X119792192Y-87280327D01*
X119934838Y-86936799D01*
X119935162Y-86564833D01*
X119793117Y-86221057D01*
X119530327Y-85957808D01*
X119186799Y-85815162D01*
X118814833Y-85814838D01*
X118760000Y-85837494D01*
X118760000Y-85312463D01*
X118792192Y-85280327D01*
X118934838Y-84936799D01*
X118935162Y-84564833D01*
X118809208Y-84260000D01*
X128000000Y-84260000D01*
X128290839Y-84202148D01*
X128537401Y-84037401D01*
X130889635Y-81685167D01*
X153064838Y-81685167D01*
X153206883Y-82028943D01*
X153469673Y-82292192D01*
X153813201Y-82434838D01*
X154185167Y-82435162D01*
X154486041Y-82310843D01*
X161064878Y-88889680D01*
X161064838Y-88935167D01*
X161206883Y-89278943D01*
X161469673Y-89542192D01*
X161813201Y-89684838D01*
X162185167Y-89685162D01*
X162528943Y-89543117D01*
X162792192Y-89280327D01*
X162934838Y-88936799D01*
X162935162Y-88564833D01*
X162793117Y-88221057D01*
X162530327Y-87957808D01*
X162186799Y-87815162D01*
X162139923Y-87815121D01*
X159263646Y-84938844D01*
X161389721Y-84938844D01*
X161634312Y-85530800D01*
X162086817Y-85984096D01*
X162678346Y-86229720D01*
X163318844Y-86230279D01*
X163910800Y-85985688D01*
X164364096Y-85533183D01*
X164609720Y-84941654D01*
X164610279Y-84301156D01*
X164365688Y-83709200D01*
X163913183Y-83255904D01*
X163321654Y-83010280D01*
X162681156Y-83009721D01*
X162089200Y-83254312D01*
X161635904Y-83706817D01*
X161390280Y-84298346D01*
X161389721Y-84938844D01*
X159263646Y-84938844D01*
X155287401Y-80962599D01*
X155040839Y-80797852D01*
X154750000Y-80740000D01*
X154562463Y-80740000D01*
X154530327Y-80707808D01*
X154186799Y-80565162D01*
X153814833Y-80564838D01*
X153471057Y-80706883D01*
X153207808Y-80969673D01*
X153065162Y-81313201D01*
X153064838Y-81685167D01*
X130889635Y-81685167D01*
X131537401Y-81037401D01*
X131702148Y-80790839D01*
X131760000Y-80500000D01*
X131760000Y-78831008D01*
X131802566Y-78802566D01*
X132048603Y-78434346D01*
X132135000Y-78000000D01*
X132135000Y-73000000D01*
X132048603Y-72565654D01*
X131802566Y-72197434D01*
X131434346Y-71951397D01*
X131000000Y-71865000D01*
X130565654Y-71951397D01*
X130197434Y-72197434D01*
X129951397Y-72565654D01*
X129865000Y-73000000D01*
X129865000Y-78000000D01*
X129951397Y-78434346D01*
X130197434Y-78802566D01*
X130240000Y-78831008D01*
X130240000Y-80185198D01*
X127685198Y-82740000D01*
X116000000Y-82740000D01*
X115757414Y-82788254D01*
X115709160Y-82797852D01*
X115462599Y-82962599D01*
X112360320Y-86064878D01*
X112314833Y-86064838D01*
X112010000Y-86190792D01*
X112010000Y-80564802D01*
X113639680Y-78935122D01*
X113685167Y-78935162D01*
X114028943Y-78793117D01*
X114292192Y-78530327D01*
X114434838Y-78186799D01*
X114435162Y-77814833D01*
X114293117Y-77471057D01*
X114030327Y-77207808D01*
X113686799Y-77065162D01*
X113314833Y-77064838D01*
X112971057Y-77206883D01*
X112707808Y-77469673D01*
X112565162Y-77813201D01*
X112565121Y-77860077D01*
X112090197Y-78335001D01*
X112043117Y-78221057D01*
X111780327Y-77957808D01*
X111436799Y-77815162D01*
X111064833Y-77814838D01*
X110865840Y-77897060D01*
X110793117Y-77721057D01*
X110530327Y-77457808D01*
X110186799Y-77315162D01*
X109814833Y-77314838D01*
X109471057Y-77456883D01*
X109207808Y-77719673D01*
X109065162Y-78063201D01*
X109065121Y-78110077D01*
X103685198Y-83490000D01*
X103500000Y-83490000D01*
X103293782Y-83531020D01*
X112389680Y-74435122D01*
X112435167Y-74435162D01*
X112778943Y-74293117D01*
X113042192Y-74030327D01*
X113184838Y-73686799D01*
X113185162Y-73314833D01*
X113043117Y-72971057D01*
X112780327Y-72707808D01*
X112436799Y-72565162D01*
X112064833Y-72564838D01*
X111721057Y-72706883D01*
X111457808Y-72969673D01*
X111315162Y-73313201D01*
X111315121Y-73360077D01*
X91610320Y-93064878D01*
X91564833Y-93064838D01*
X91221057Y-93206883D01*
X90957808Y-93469673D01*
X90815162Y-93813201D01*
X90814838Y-94185167D01*
X80710000Y-94185167D01*
X80710000Y-88125000D01*
X84477560Y-88125000D01*
X84477560Y-89875000D01*
X84521838Y-90110317D01*
X84660910Y-90326441D01*
X84873110Y-90471431D01*
X84889676Y-90474786D01*
X84720630Y-90643537D01*
X84490262Y-91198325D01*
X84489738Y-91799040D01*
X84719138Y-92354229D01*
X85143537Y-92779370D01*
X85698325Y-93009738D01*
X86299040Y-93010262D01*
X86854229Y-92780862D01*
X87279370Y-92356463D01*
X87500231Y-91824571D01*
X91139635Y-88185167D01*
X94314838Y-88185167D01*
X94456883Y-88528943D01*
X94719673Y-88792192D01*
X95063201Y-88934838D01*
X95435167Y-88935162D01*
X95778943Y-88793117D01*
X96042192Y-88530327D01*
X96184838Y-88186799D01*
X96185162Y-87814833D01*
X96043117Y-87471057D01*
X96010000Y-87437882D01*
X96010000Y-86314802D01*
X97139680Y-85185122D01*
X97185167Y-85185162D01*
X97528943Y-85043117D01*
X97792192Y-84780327D01*
X97934838Y-84436799D01*
X97935162Y-84064833D01*
X97793117Y-83721057D01*
X97530327Y-83457808D01*
X97186799Y-83315162D01*
X96814833Y-83314838D01*
X96471057Y-83456883D01*
X96207808Y-83719673D01*
X96065162Y-84063201D01*
X96065121Y-84110077D01*
X94712599Y-85462599D01*
X94547852Y-85709161D01*
X94490000Y-86000000D01*
X94490000Y-87437537D01*
X94457808Y-87469673D01*
X94315162Y-87813201D01*
X94314838Y-88185167D01*
X91139635Y-88185167D01*
X94889681Y-84435122D01*
X94935167Y-84435162D01*
X95278943Y-84293117D01*
X95542192Y-84030327D01*
X95684838Y-83686799D01*
X95685162Y-83314833D01*
X95543117Y-82971057D01*
X95280327Y-82707808D01*
X94936799Y-82565162D01*
X94564833Y-82564838D01*
X94221057Y-82706883D01*
X93957808Y-82969673D01*
X93815162Y-83313201D01*
X93815121Y-83360076D01*
X87522440Y-89652758D01*
X87522440Y-88552362D01*
X93139680Y-82935122D01*
X93185167Y-82935162D01*
X93528943Y-82793117D01*
X93792192Y-82530327D01*
X93934838Y-82186799D01*
X93935162Y-81814833D01*
X93793117Y-81471057D01*
X93530327Y-81207808D01*
X93186799Y-81065162D01*
X92814833Y-81064838D01*
X92471057Y-81206883D01*
X92207808Y-81469673D01*
X92065162Y-81813201D01*
X92065121Y-81860077D01*
X86447638Y-87477560D01*
X85125000Y-87477560D01*
X84889683Y-87521838D01*
X84673559Y-87660910D01*
X84528569Y-87873110D01*
X84477560Y-88125000D01*
X80710000Y-88125000D01*
X80710000Y-60625000D01*
X84477560Y-60625000D01*
X84477560Y-62375000D01*
X84521838Y-62610317D01*
X84660910Y-62826441D01*
X84873110Y-62971431D01*
X84889676Y-62974786D01*
X84720630Y-63143537D01*
X84490262Y-63698325D01*
X84489738Y-64299040D01*
X84719138Y-64854229D01*
X85143537Y-65279370D01*
X85698325Y-65509738D01*
X86185361Y-65510163D01*
X93564878Y-72889680D01*
X93564838Y-72935167D01*
X93706883Y-73278943D01*
X93969673Y-73542192D01*
X94313201Y-73684838D01*
X94685167Y-73685162D01*
X95028943Y-73543117D01*
X95292192Y-73280327D01*
X95434838Y-72936799D01*
X95435162Y-72564833D01*
X95293117Y-72221057D01*
X95030327Y-71957808D01*
X94686799Y-71815162D01*
X94639923Y-71815121D01*
X87397288Y-64572486D01*
X87509738Y-64301675D01*
X87510262Y-63700960D01*
X87428655Y-63503457D01*
X95064878Y-71139680D01*
X95064838Y-71185167D01*
X95206883Y-71528943D01*
X95469673Y-71792192D01*
X95813201Y-71934838D01*
X96185167Y-71935162D01*
X96528943Y-71793117D01*
X96792192Y-71530327D01*
X96934838Y-71186799D01*
X96935162Y-70814833D01*
X96793117Y-70471057D01*
X96530327Y-70207808D01*
X96186799Y-70065162D01*
X96139923Y-70065121D01*
X87522440Y-61447638D01*
X87522440Y-60625000D01*
X87478162Y-60389683D01*
X87339090Y-60173559D01*
X87126890Y-60028569D01*
X86875000Y-59977560D01*
X85125000Y-59977560D01*
X84889683Y-60021838D01*
X84673559Y-60160910D01*
X84528569Y-60373110D01*
X84477560Y-60625000D01*
X80710000Y-60625000D01*
X80710000Y-55250000D01*
X90865000Y-55250000D01*
X90865000Y-63750000D01*
X90951397Y-64184346D01*
X91189598Y-64540839D01*
X91197434Y-64552566D01*
X92697434Y-66052566D01*
X93065654Y-66298603D01*
X93500000Y-66385000D01*
X100529868Y-66385000D01*
X101365000Y-67220132D01*
X101365000Y-69500000D01*
X101451397Y-69934346D01*
X101697434Y-70302566D01*
X102065654Y-70548603D01*
X102500000Y-70635000D01*
X102934346Y-70548603D01*
X103302566Y-70302566D01*
X103548603Y-69934346D01*
X103635000Y-69500000D01*
X103635000Y-66750000D01*
X103548603Y-66315654D01*
X103302566Y-65947434D01*
X103260000Y-65904868D01*
X103260000Y-65760000D01*
X105000000Y-65760000D01*
X105290839Y-65702148D01*
X105537401Y-65537401D01*
X106086707Y-64988095D01*
X106206883Y-65278943D01*
X106469673Y-65542192D01*
X106740000Y-65654442D01*
X106740000Y-73187537D01*
X106707808Y-73219673D01*
X106565162Y-73563201D01*
X106564838Y-73935167D01*
X106706883Y-74278943D01*
X106969673Y-74542192D01*
X107313201Y-74684838D01*
X107685167Y-74685162D01*
X108028943Y-74543117D01*
X108292192Y-74280327D01*
X108434838Y-73936799D01*
X108435162Y-73564833D01*
X108293117Y-73221057D01*
X108260000Y-73187882D01*
X108260000Y-71685167D01*
X156314838Y-71685167D01*
X156456883Y-72028943D01*
X156490000Y-72062118D01*
X156490000Y-76187537D01*
X156457808Y-76219673D01*
X156315162Y-76563201D01*
X156314838Y-76935167D01*
X156456883Y-77278943D01*
X156719673Y-77542192D01*
X157063201Y-77684838D01*
X157435167Y-77685162D01*
X157778943Y-77543117D01*
X158003607Y-77318844D01*
X161389721Y-77318844D01*
X161634312Y-77910800D01*
X162086817Y-78364096D01*
X162678346Y-78609720D01*
X163318844Y-78610279D01*
X163910800Y-78365688D01*
X164364096Y-77913183D01*
X164609720Y-77321654D01*
X164610279Y-76681156D01*
X164365688Y-76089200D01*
X163913183Y-75635904D01*
X163321654Y-75390280D01*
X162681156Y-75389721D01*
X162089200Y-75634312D01*
X161635904Y-76086817D01*
X161390280Y-76678346D01*
X161389721Y-77318844D01*
X158003607Y-77318844D01*
X158042192Y-77280327D01*
X158184838Y-76936799D01*
X158185162Y-76564833D01*
X158043117Y-76221057D01*
X158010000Y-76187882D01*
X158010000Y-72062463D01*
X158042192Y-72030327D01*
X158184838Y-71686799D01*
X158185162Y-71314833D01*
X158043117Y-70971057D01*
X157780327Y-70707808D01*
X157436799Y-70565162D01*
X157064833Y-70564838D01*
X156721057Y-70706883D01*
X156457808Y-70969673D01*
X156315162Y-71313201D01*
X156314838Y-71685167D01*
X108260000Y-71685167D01*
X108260000Y-68438844D01*
X161389721Y-68438844D01*
X161634312Y-69030800D01*
X162086817Y-69484096D01*
X162678346Y-69729720D01*
X163318844Y-69730279D01*
X163910800Y-69485688D01*
X164364096Y-69033183D01*
X164609720Y-68441654D01*
X164610279Y-67801156D01*
X164365688Y-67209200D01*
X163913183Y-66755904D01*
X163321654Y-66510280D01*
X162681156Y-66509721D01*
X162089200Y-66754312D01*
X161635904Y-67206817D01*
X161390280Y-67798346D01*
X161389721Y-68438844D01*
X108260000Y-68438844D01*
X108260000Y-66584802D01*
X109712599Y-68037401D01*
X109959160Y-68202148D01*
X110250000Y-68260000D01*
X114937537Y-68260000D01*
X114969673Y-68292192D01*
X115313201Y-68434838D01*
X115685167Y-68435162D01*
X116028943Y-68293117D01*
X116292192Y-68030327D01*
X116434838Y-67686799D01*
X116435162Y-67314833D01*
X116293117Y-66971057D01*
X116030327Y-66707808D01*
X115686799Y-66565162D01*
X115314833Y-66564838D01*
X114971057Y-66706883D01*
X114937882Y-66740000D01*
X110564802Y-66740000D01*
X109510000Y-65685198D01*
X109510000Y-64500000D01*
X109452148Y-64209161D01*
X109287401Y-63962599D01*
X108287401Y-62962599D01*
X108040839Y-62797852D01*
X107750000Y-62740000D01*
X106500000Y-62740000D01*
X106209160Y-62797852D01*
X105962599Y-62962599D01*
X104685198Y-64240000D01*
X102500000Y-64240000D01*
X102209161Y-64297852D01*
X101962599Y-64462599D01*
X101904573Y-64549441D01*
X101802566Y-64447434D01*
X101584422Y-64301675D01*
X101434346Y-64201397D01*
X101000000Y-64115000D01*
X93970132Y-64115000D01*
X93135000Y-63279868D01*
X93135000Y-61385167D01*
X98264838Y-61385167D01*
X98406883Y-61728943D01*
X98669673Y-61992192D01*
X99013201Y-62134838D01*
X99385167Y-62135162D01*
X99728943Y-61993117D01*
X99762118Y-61960000D01*
X119685198Y-61960000D01*
X124064878Y-66339680D01*
X124064838Y-66385167D01*
X124206883Y-66728943D01*
X124469673Y-66992192D01*
X124813201Y-67134838D01*
X125185167Y-67135162D01*
X125528943Y-66993117D01*
X125792192Y-66730327D01*
X125864864Y-66555314D01*
X125864838Y-66585167D01*
X126006883Y-66928943D01*
X126269673Y-67192192D01*
X126613201Y-67334838D01*
X126985167Y-67335162D01*
X127328943Y-67193117D01*
X127592192Y-66930327D01*
X127734838Y-66586799D01*
X127735162Y-66214833D01*
X127593117Y-65871057D01*
X127330327Y-65607808D01*
X126986799Y-65465162D01*
X126939923Y-65465121D01*
X117737401Y-56262599D01*
X117490839Y-56097852D01*
X117200000Y-56040000D01*
X103962463Y-56040000D01*
X103930327Y-56007808D01*
X103586799Y-55865162D01*
X103214833Y-55864838D01*
X102871057Y-56006883D01*
X102607808Y-56269673D01*
X102465162Y-56613201D01*
X102464838Y-56985167D01*
X102606883Y-57328943D01*
X102869673Y-57592192D01*
X103213201Y-57734838D01*
X103585167Y-57735162D01*
X103928943Y-57593117D01*
X103962118Y-57560000D01*
X116885198Y-57560000D01*
X119765198Y-60440000D01*
X99762463Y-60440000D01*
X99730327Y-60407808D01*
X99386799Y-60265162D01*
X99014833Y-60264838D01*
X98671057Y-60406883D01*
X98407808Y-60669673D01*
X98265162Y-61013201D01*
X98264838Y-61385167D01*
X93135000Y-61385167D01*
X93135000Y-55720132D01*
X93970132Y-54885000D01*
X107250000Y-54885000D01*
X107684346Y-54798603D01*
X108052566Y-54552566D01*
X108220132Y-54385000D01*
X131615000Y-54385000D01*
X131615000Y-59529868D01*
X130197434Y-60947434D01*
X129951397Y-61315655D01*
X129865000Y-61750000D01*
X129951397Y-62184345D01*
X130197434Y-62552566D01*
X130565655Y-62798603D01*
X131000000Y-62885000D01*
X131434345Y-62798603D01*
X131802566Y-62552566D01*
X133536288Y-60818844D01*
X161389721Y-60818844D01*
X161634312Y-61410800D01*
X162086817Y-61864096D01*
X162678346Y-62109720D01*
X163318844Y-62110279D01*
X163910800Y-61865688D01*
X164364096Y-61413183D01*
X164609720Y-60821654D01*
X164610279Y-60181156D01*
X164365688Y-59589200D01*
X163913183Y-59135904D01*
X163321654Y-58890280D01*
X162681156Y-58889721D01*
X162089200Y-59134312D01*
X161635904Y-59586817D01*
X161390280Y-60178346D01*
X161389721Y-60818844D01*
X133536288Y-60818844D01*
X133552566Y-60802566D01*
X133560402Y-60790839D01*
X133798603Y-60434346D01*
X133885000Y-60000000D01*
X133885000Y-58985167D01*
X141664838Y-58985167D01*
X141806883Y-59328943D01*
X142069673Y-59592192D01*
X142413201Y-59734838D01*
X142785167Y-59735162D01*
X143128943Y-59593117D01*
X143392192Y-59330327D01*
X143534838Y-58986799D01*
X143534879Y-58939923D01*
X144937401Y-57537401D01*
X145102148Y-57290840D01*
X145117591Y-57213201D01*
X145160000Y-57000000D01*
X145160000Y-54962463D01*
X145192192Y-54930327D01*
X145334838Y-54586799D01*
X145335162Y-54214833D01*
X145193117Y-53871057D01*
X144930327Y-53607808D01*
X144586799Y-53465162D01*
X144214833Y-53464838D01*
X143871057Y-53606883D01*
X143607808Y-53869673D01*
X143465162Y-54213201D01*
X143464838Y-54585167D01*
X143606883Y-54928943D01*
X143640000Y-54962118D01*
X143640000Y-56685198D01*
X142460320Y-57864878D01*
X142414833Y-57864838D01*
X142071057Y-58006883D01*
X141807808Y-58269673D01*
X141665162Y-58613201D01*
X141664838Y-58985167D01*
X133885000Y-58985167D01*
X133885000Y-53250000D01*
X133875012Y-53199790D01*
X134314802Y-52760000D01*
X138384523Y-52760000D01*
X138271057Y-52806883D01*
X138007808Y-53069673D01*
X137865162Y-53413201D01*
X137864838Y-53785167D01*
X138006883Y-54128943D01*
X138040000Y-54162118D01*
X138040000Y-56837537D01*
X138007808Y-56869673D01*
X137865162Y-57213201D01*
X137864838Y-57585167D01*
X138006883Y-57928943D01*
X138269673Y-58192192D01*
X138613201Y-58334838D01*
X138985167Y-58335162D01*
X139328943Y-58193117D01*
X139592192Y-57930327D01*
X139734838Y-57586799D01*
X139735162Y-57214833D01*
X139593117Y-56871057D01*
X139560000Y-56837882D01*
X139560000Y-54162463D01*
X139592192Y-54130327D01*
X139734838Y-53786799D01*
X139735162Y-53414833D01*
X139593117Y-53071057D01*
X139330327Y-52807808D01*
X139215193Y-52760000D01*
X150685198Y-52760000D01*
X153712599Y-55787401D01*
X153959161Y-55952148D01*
X154250000Y-56010000D01*
X164937537Y-56010000D01*
X164969673Y-56042192D01*
X165313201Y-56184838D01*
X165685167Y-56185162D01*
X166028943Y-56043117D01*
X166292192Y-55780327D01*
X166434838Y-55436799D01*
X166435162Y-55064833D01*
X166293117Y-54721057D01*
X166030327Y-54457808D01*
X165686799Y-54315162D01*
X165314833Y-54314838D01*
X164971057Y-54456883D01*
X164937882Y-54490000D01*
X154564802Y-54490000D01*
X151537401Y-51462599D01*
X151290839Y-51297852D01*
X151000000Y-51240000D01*
X134000000Y-51240000D01*
X133709161Y-51297852D01*
X133462599Y-51462599D01*
X132800210Y-52124988D01*
X132750000Y-52115000D01*
X107750000Y-52115000D01*
X107315654Y-52201397D01*
X107057996Y-52373559D01*
X106947434Y-52447434D01*
X106779868Y-52615000D01*
X93500000Y-52615000D01*
X93065654Y-52701397D01*
X92697434Y-52947434D01*
X91197434Y-54447434D01*
X90951397Y-54815654D01*
X90865000Y-55250000D01*
X80710000Y-55250000D01*
X80710000Y-47740910D01*
X82438695Y-47740910D01*
X82805640Y-48236343D01*
X84211171Y-48829736D01*
X85736793Y-48840087D01*
X87150246Y-48265819D01*
X87194360Y-48236343D01*
X87561305Y-47740910D01*
X85000000Y-45179605D01*
X82438695Y-47740910D01*
X80710000Y-47740910D01*
X80710000Y-45736793D01*
X81159913Y-45736793D01*
X81734181Y-47150246D01*
X81763657Y-47194360D01*
X82259090Y-47561305D01*
X84820395Y-45000000D01*
X85179605Y-45000000D01*
X87740910Y-47561305D01*
X88236343Y-47194360D01*
X88719879Y-46049040D01*
X97489738Y-46049040D01*
X97719138Y-46604229D01*
X98143537Y-47029370D01*
X98698325Y-47259738D01*
X99299040Y-47260262D01*
X99854229Y-47030862D01*
X100023103Y-46862283D01*
X100160910Y-47076441D01*
X100373110Y-47221431D01*
X100625000Y-47272440D01*
X102375000Y-47272440D01*
X102610317Y-47228162D01*
X102826441Y-47089090D01*
X102971431Y-46876890D01*
X103022440Y-46625000D01*
X103022440Y-46049040D01*
X109489738Y-46049040D01*
X109719138Y-46604229D01*
X110143537Y-47029370D01*
X110698325Y-47259738D01*
X111299040Y-47260262D01*
X111854229Y-47030862D01*
X112250318Y-46635464D01*
X112643537Y-47029370D01*
X113198325Y-47259738D01*
X113799040Y-47260262D01*
X114354229Y-47030862D01*
X114750318Y-46635464D01*
X115143537Y-47029370D01*
X115698325Y-47259738D01*
X116299040Y-47260262D01*
X116854229Y-47030862D01*
X117032203Y-46853198D01*
X117086673Y-46984699D01*
X117265302Y-47163327D01*
X117498691Y-47260000D01*
X118214250Y-47260000D01*
X118373000Y-47101250D01*
X118373000Y-45877000D01*
X118627000Y-45877000D01*
X118627000Y-47101250D01*
X118785750Y-47260000D01*
X119501309Y-47260000D01*
X119734698Y-47163327D01*
X119913327Y-46984699D01*
X120010000Y-46751310D01*
X120010000Y-46049040D01*
X126489738Y-46049040D01*
X126719138Y-46604229D01*
X127143537Y-47029370D01*
X127698325Y-47259738D01*
X128299040Y-47260262D01*
X128854229Y-47030862D01*
X129023103Y-46862283D01*
X129160910Y-47076441D01*
X129373110Y-47221431D01*
X129625000Y-47272440D01*
X131375000Y-47272440D01*
X131610317Y-47228162D01*
X131826441Y-47089090D01*
X131971431Y-46876890D01*
X132022440Y-46625000D01*
X132022440Y-46049040D01*
X139239738Y-46049040D01*
X139469138Y-46604229D01*
X139893537Y-47029370D01*
X140448325Y-47259738D01*
X141049040Y-47260262D01*
X141604229Y-47030862D01*
X142000318Y-46635464D01*
X142393537Y-47029370D01*
X142948325Y-47259738D01*
X143549040Y-47260262D01*
X144104229Y-47030862D01*
X144500318Y-46635464D01*
X144893537Y-47029370D01*
X145448325Y-47259738D01*
X146049040Y-47260262D01*
X146604229Y-47030862D01*
X147000318Y-46635464D01*
X147393537Y-47029370D01*
X147948325Y-47259738D01*
X148549040Y-47260262D01*
X149104229Y-47030862D01*
X149282203Y-46853198D01*
X149336673Y-46984699D01*
X149515302Y-47163327D01*
X149748691Y-47260000D01*
X150464250Y-47260000D01*
X150623000Y-47101250D01*
X150623000Y-45877000D01*
X150877000Y-45877000D01*
X150877000Y-47101250D01*
X151035750Y-47260000D01*
X151751309Y-47260000D01*
X151984698Y-47163327D01*
X152163327Y-46984699D01*
X152260000Y-46751310D01*
X152260000Y-46049040D01*
X159239738Y-46049040D01*
X159469138Y-46604229D01*
X159893537Y-47029370D01*
X160448325Y-47259738D01*
X161049040Y-47260262D01*
X161604229Y-47030862D01*
X162000318Y-46635464D01*
X162393537Y-47029370D01*
X162948325Y-47259738D01*
X163549040Y-47260262D01*
X164104229Y-47030862D01*
X164273103Y-46862283D01*
X164410910Y-47076441D01*
X164623110Y-47221431D01*
X164875000Y-47272440D01*
X166625000Y-47272440D01*
X166860317Y-47228162D01*
X167076441Y-47089090D01*
X167221431Y-46876890D01*
X167272440Y-46625000D01*
X167272440Y-45515306D01*
X174978410Y-45515306D01*
X175004421Y-46115458D01*
X175184047Y-46549116D01*
X175437940Y-46632455D01*
X176320395Y-45750000D01*
X175437940Y-44867545D01*
X175184047Y-44950884D01*
X174978410Y-45515306D01*
X167272440Y-45515306D01*
X167272440Y-44875000D01*
X167228162Y-44639683D01*
X167089090Y-44423559D01*
X166876890Y-44278569D01*
X166625000Y-44227560D01*
X164875000Y-44227560D01*
X164639683Y-44271838D01*
X164423559Y-44410910D01*
X164278569Y-44623110D01*
X164275214Y-44639676D01*
X164106463Y-44470630D01*
X163551675Y-44240262D01*
X162950960Y-44239738D01*
X162395771Y-44469138D01*
X161999682Y-44864536D01*
X161606463Y-44470630D01*
X161051675Y-44240262D01*
X160450960Y-44239738D01*
X159895771Y-44469138D01*
X159470630Y-44893537D01*
X159240262Y-45448325D01*
X159239738Y-46049040D01*
X152260000Y-46049040D01*
X152260000Y-46035750D01*
X152101250Y-45877000D01*
X150877000Y-45877000D01*
X150623000Y-45877000D01*
X150603000Y-45877000D01*
X150603000Y-45623000D01*
X150623000Y-45623000D01*
X150623000Y-44398750D01*
X150877000Y-44398750D01*
X150877000Y-45623000D01*
X152101250Y-45623000D01*
X152260000Y-45464250D01*
X152260000Y-44748690D01*
X152163327Y-44515301D01*
X151984698Y-44336673D01*
X151751309Y-44240000D01*
X151035750Y-44240000D01*
X150877000Y-44398750D01*
X150623000Y-44398750D01*
X150464250Y-44240000D01*
X149748691Y-44240000D01*
X149515302Y-44336673D01*
X149336673Y-44515301D01*
X149282240Y-44646714D01*
X149106463Y-44470630D01*
X148551675Y-44240262D01*
X147950960Y-44239738D01*
X147395771Y-44469138D01*
X146999682Y-44864536D01*
X146606463Y-44470630D01*
X146051675Y-44240262D01*
X145450960Y-44239738D01*
X144895771Y-44469138D01*
X144499682Y-44864536D01*
X144106463Y-44470630D01*
X143551675Y-44240262D01*
X142950960Y-44239738D01*
X142395771Y-44469138D01*
X141999682Y-44864536D01*
X141606463Y-44470630D01*
X141051675Y-44240262D01*
X140450960Y-44239738D01*
X139895771Y-44469138D01*
X139470630Y-44893537D01*
X139240262Y-45448325D01*
X139239738Y-46049040D01*
X132022440Y-46049040D01*
X132022440Y-44875000D01*
X131978162Y-44639683D01*
X131839090Y-44423559D01*
X131626890Y-44278569D01*
X131375000Y-44227560D01*
X129625000Y-44227560D01*
X129389683Y-44271838D01*
X129173559Y-44410910D01*
X129028569Y-44623110D01*
X129025214Y-44639676D01*
X128856463Y-44470630D01*
X128301675Y-44240262D01*
X127700960Y-44239738D01*
X127145771Y-44469138D01*
X126720630Y-44893537D01*
X126490262Y-45448325D01*
X126489738Y-46049040D01*
X120010000Y-46049040D01*
X120010000Y-46035750D01*
X119851250Y-45877000D01*
X118627000Y-45877000D01*
X118373000Y-45877000D01*
X118353000Y-45877000D01*
X118353000Y-45623000D01*
X118373000Y-45623000D01*
X118373000Y-44398750D01*
X118627000Y-44398750D01*
X118627000Y-45623000D01*
X119851250Y-45623000D01*
X120010000Y-45464250D01*
X120010000Y-44748690D01*
X119913327Y-44515301D01*
X119734698Y-44336673D01*
X119501309Y-44240000D01*
X118785750Y-44240000D01*
X118627000Y-44398750D01*
X118373000Y-44398750D01*
X118214250Y-44240000D01*
X117498691Y-44240000D01*
X117265302Y-44336673D01*
X117086673Y-44515301D01*
X117032240Y-44646714D01*
X116856463Y-44470630D01*
X116301675Y-44240262D01*
X115700960Y-44239738D01*
X115145771Y-44469138D01*
X114749682Y-44864536D01*
X114356463Y-44470630D01*
X113801675Y-44240262D01*
X113200960Y-44239738D01*
X112645771Y-44469138D01*
X112249682Y-44864536D01*
X111856463Y-44470630D01*
X111301675Y-44240262D01*
X110700960Y-44239738D01*
X110145771Y-44469138D01*
X109720630Y-44893537D01*
X109490262Y-45448325D01*
X109489738Y-46049040D01*
X103022440Y-46049040D01*
X103022440Y-44875000D01*
X102978162Y-44639683D01*
X102839090Y-44423559D01*
X102626890Y-44278569D01*
X102375000Y-44227560D01*
X100625000Y-44227560D01*
X100389683Y-44271838D01*
X100173559Y-44410910D01*
X100028569Y-44623110D01*
X100025214Y-44639676D01*
X99856463Y-44470630D01*
X99301675Y-44240262D01*
X98700960Y-44239738D01*
X98145771Y-44469138D01*
X97720630Y-44893537D01*
X97490262Y-45448325D01*
X97489738Y-46049040D01*
X88719879Y-46049040D01*
X88829736Y-45788829D01*
X88840087Y-44263207D01*
X88265819Y-42849754D01*
X88236343Y-42805640D01*
X87740910Y-42438695D01*
X85179605Y-45000000D01*
X84820395Y-45000000D01*
X82259090Y-42438695D01*
X81763657Y-42805640D01*
X81170264Y-44211171D01*
X81159913Y-45736793D01*
X80710000Y-45736793D01*
X80710000Y-42259090D01*
X82438695Y-42259090D01*
X85000000Y-44820395D01*
X87561305Y-42259090D01*
X192438695Y-42259090D01*
X195000000Y-44820395D01*
X197561305Y-42259090D01*
X197194360Y-41763657D01*
X195788829Y-41170264D01*
X194263207Y-41159913D01*
X192849754Y-41734181D01*
X192805640Y-41763657D01*
X192438695Y-42259090D01*
X87561305Y-42259090D01*
X87194360Y-41763657D01*
X85788829Y-41170264D01*
X84263207Y-41159913D01*
X82849754Y-41734181D01*
X82805640Y-41763657D01*
X82438695Y-42259090D01*
X80710000Y-42259090D01*
X80710000Y-40710000D01*
X199290000Y-40710000D01*
X199290000Y-114290000D01*
G36*
X184886774Y-63136774D02*
X184315577Y-63991629D01*
X184115000Y-65000000D01*
X184115000Y-69658548D01*
X183658548Y-70115000D01*
X174384672Y-70115000D01*
X174846450Y-69806450D01*
X175363453Y-69032700D01*
X175481578Y-68438844D01*
X179169721Y-68438844D01*
X179414312Y-69030800D01*
X179866817Y-69484096D01*
X180458346Y-69729720D01*
X181098844Y-69730279D01*
X181690800Y-69485688D01*
X182144096Y-69033183D01*
X182389720Y-68441654D01*
X182390279Y-67801156D01*
X182145688Y-67209200D01*
X181693183Y-66755904D01*
X181101654Y-66510280D01*
X180461156Y-66509721D01*
X179869200Y-66754312D01*
X179415904Y-67206817D01*
X179170280Y-67798346D01*
X179169721Y-68438844D01*
X175481578Y-68438844D01*
X175545000Y-68120000D01*
X175545000Y-64435167D01*
X176814838Y-64435167D01*
X176956883Y-64778943D01*
X177219673Y-65042192D01*
X177563201Y-65184838D01*
X177935167Y-65185162D01*
X178278943Y-65043117D01*
X178542192Y-64780327D01*
X178684838Y-64436799D01*
X178684879Y-64389923D01*
X181814802Y-61260000D01*
X183437537Y-61260000D01*
X183469673Y-61292192D01*
X183813201Y-61434838D01*
X184185167Y-61435162D01*
X184528943Y-61293117D01*
X184792192Y-61030327D01*
X184934838Y-60686799D01*
X184935162Y-60314833D01*
X184793117Y-59971057D01*
X184530327Y-59707808D01*
X184186799Y-59565162D01*
X183814833Y-59564838D01*
X183471057Y-59706883D01*
X183437882Y-59740000D01*
X181500000Y-59740000D01*
X181209161Y-59797852D01*
X180962599Y-59962599D01*
X179681456Y-61243742D01*
X179861049Y-60758571D01*
X179836605Y-60118539D01*
X179638704Y-59640763D01*
X179374442Y-59545163D01*
X178419605Y-60500000D01*
X178433748Y-60514143D01*
X178254143Y-60693748D01*
X178240000Y-60679605D01*
X177285163Y-61634442D01*
X177380763Y-61898704D01*
X177981429Y-62121049D01*
X178621461Y-62096605D01*
X178975057Y-61950141D01*
X177610320Y-63314878D01*
X177564833Y-63314838D01*
X177221057Y-63456883D01*
X176957808Y-63719673D01*
X176815162Y-64063201D01*
X176814838Y-64435167D01*
X175545000Y-64435167D01*
X175545000Y-60241429D01*
X176618951Y-60241429D01*
X176643395Y-60881461D01*
X176841296Y-61359237D01*
X177105558Y-61454837D01*
X178060395Y-60500000D01*
X177105558Y-59545163D01*
X176841296Y-59640763D01*
X176618951Y-60241429D01*
X175545000Y-60241429D01*
X175545000Y-59365558D01*
X177285163Y-59365558D01*
X178240000Y-60320395D01*
X179194837Y-59365558D01*
X179099237Y-59101296D01*
X178498571Y-58878951D01*
X177858539Y-58903395D01*
X177380763Y-59101296D01*
X177285163Y-59365558D01*
X175545000Y-59365558D01*
X175545000Y-57827900D01*
X176987899Y-56385000D01*
X191638547Y-56385000D01*
X184886774Y-63136774D01*
X184886774Y-63136774D01*
G37*
X184886774Y-63136774D02*
X184315577Y-63991629D01*
X184115000Y-65000000D01*
X184115000Y-69658548D01*
X183658548Y-70115000D01*
X174384672Y-70115000D01*
X174846450Y-69806450D01*
X175363453Y-69032700D01*
X175481578Y-68438844D01*
X179169721Y-68438844D01*
X179414312Y-69030800D01*
X179866817Y-69484096D01*
X180458346Y-69729720D01*
X181098844Y-69730279D01*
X181690800Y-69485688D01*
X182144096Y-69033183D01*
X182389720Y-68441654D01*
X182390279Y-67801156D01*
X182145688Y-67209200D01*
X181693183Y-66755904D01*
X181101654Y-66510280D01*
X180461156Y-66509721D01*
X179869200Y-66754312D01*
X179415904Y-67206817D01*
X179170280Y-67798346D01*
X179169721Y-68438844D01*
X175481578Y-68438844D01*
X175545000Y-68120000D01*
X175545000Y-64435167D01*
X176814838Y-64435167D01*
X176956883Y-64778943D01*
X177219673Y-65042192D01*
X177563201Y-65184838D01*
X177935167Y-65185162D01*
X178278943Y-65043117D01*
X178542192Y-64780327D01*
X178684838Y-64436799D01*
X178684879Y-64389923D01*
X181814802Y-61260000D01*
X183437537Y-61260000D01*
X183469673Y-61292192D01*
X183813201Y-61434838D01*
X184185167Y-61435162D01*
X184528943Y-61293117D01*
X184792192Y-61030327D01*
X184934838Y-60686799D01*
X184935162Y-60314833D01*
X184793117Y-59971057D01*
X184530327Y-59707808D01*
X184186799Y-59565162D01*
X183814833Y-59564838D01*
X183471057Y-59706883D01*
X183437882Y-59740000D01*
X181500000Y-59740000D01*
X181209161Y-59797852D01*
X180962599Y-59962599D01*
X179681456Y-61243742D01*
X179861049Y-60758571D01*
X179836605Y-60118539D01*
X179638704Y-59640763D01*
X179374442Y-59545163D01*
X178419605Y-60500000D01*
X178433748Y-60514143D01*
X178254143Y-60693748D01*
X178240000Y-60679605D01*
X177285163Y-61634442D01*
X177380763Y-61898704D01*
X177981429Y-62121049D01*
X178621461Y-62096605D01*
X178975057Y-61950141D01*
X177610320Y-63314878D01*
X177564833Y-63314838D01*
X177221057Y-63456883D01*
X176957808Y-63719673D01*
X176815162Y-64063201D01*
X176814838Y-64435167D01*
X175545000Y-64435167D01*
X175545000Y-60241429D01*
X176618951Y-60241429D01*
X176643395Y-60881461D01*
X176841296Y-61359237D01*
X177105558Y-61454837D01*
X178060395Y-60500000D01*
X177105558Y-59545163D01*
X176841296Y-59640763D01*
X176618951Y-60241429D01*
X175545000Y-60241429D01*
X175545000Y-59365558D01*
X177285163Y-59365558D01*
X178240000Y-60320395D01*
X179194837Y-59365558D01*
X179099237Y-59101296D01*
X178498571Y-58878951D01*
X177858539Y-58903395D01*
X177380763Y-59101296D01*
X177285163Y-59365558D01*
X175545000Y-59365558D01*
X175545000Y-57827900D01*
X176987899Y-56385000D01*
X191638547Y-56385000D01*
X184886774Y-63136774D01*
M02*
